<svg width="20" height="20" viewBox="0 0 20 20" fill="none" xmlns="http://www.w3.org/2000/svg">
<path fill-rule="evenodd" clip-rule="evenodd" d="M18.0228 4.69793C17.8539 4.30538 17.5735 3.85656 17.0684 3.51983C16.8442 3.35147 16.5637 3.1831 16.2828 3.071C16.0587 3.01518 15.834 2.95846 15.5536 2.95846H15.4977C15.1605 2.95846 14.5438 3.01474 14.2071 3.51983C14.0387 3.68819 13.9824 4.02492 14.0387 4.30538C14.095 4.53002 14.2634 4.75421 14.488 4.81048C14.488 4.81048 14.5438 4.8663 14.6559 4.8663C14.6559 4.92257 14.6001 5.03466 14.6001 5.03466C14.4317 5.20257 14.1508 5.48348 13.3094 5.48348H13.2532C12.8043 5.42766 12.4681 5.31557 11.963 4.81002C11.6825 4.47374 11.5141 3.85656 11.5141 2.90264C11.5141 2.398 11.4579 2.005 11.3458 1.66827C11.2895 1.44363 11.0653 1.21944 10.897 1.10735C10.7286 0.994807 10.6165 0.938992 10.3356 0.826899C9.99888 0.770627 9.66214 0.714355 9.38168 0.714355C9.0454 0.714355 8.82077 0.770624 8.70867 0.938989H8.37195L7.81103 0.994807C7.47431 1.05108 7.25012 1.21945 7.02503 1.38736C6.96921 1.44363 6.74502 1.66827 6.68875 1.89246C6.68875 2.06082 6.74457 2.22918 6.74457 2.28545L6.80084 2.34129C6.91293 2.22919 7.13757 2.17291 7.41803 2.17291C7.81058 2.17291 8.3715 2.34128 8.48404 2.62174C8.7645 3.07101 8.65195 3.40729 8.65195 3.8003C8.48403 4.8663 8.09104 5.37139 7.24966 5.48348C7.0813 5.53976 6.91294 5.53976 6.8004 5.53976C6.18366 5.53976 5.73438 5.37139 5.51019 4.97839V4.8663C5.51019 4.8663 5.56602 4.8663 5.62229 4.81002C5.84648 4.69793 6.01484 4.52958 6.07111 4.30494C6.12693 4.02448 6.07111 3.74401 5.9032 3.51938C5.56647 3.1831 5.11719 2.95846 4.61255 2.95846C4.27582 2.95846 4.05119 3.01474 3.827 3.07056C3.15354 3.23893 2.53636 3.79984 2.08753 4.69793C1.75125 5.37139 1.52661 6.1565 1.47079 7.05414C1.41452 7.95224 1.41452 8.68151 1.47079 9.35497C1.52661 10.4768 1.75125 11.1503 2.03171 11.8795C2.31217 12.6088 2.64889 13.2823 3.04145 13.8995C3.15354 14.0678 3.20981 14.2358 3.3219 14.3483L3.37817 14.2925C3.434 14.2362 3.49027 14.1799 3.54609 14.0678C3.77073 13.8995 4.16328 13.3386 4.27537 13.1702C4.38792 13.0018 4.55628 12.7214 4.66837 12.4409L4.7242 12.3288L4.83674 12.3846C4.94884 12.4972 5.00511 12.6651 5.00511 12.8335C5.00511 13.0018 4.94884 13.1702 4.83674 13.5069C4.7242 13.8995 4.49956 14.3487 4.27537 14.7971C4.33165 14.8534 4.33165 14.9659 4.27537 14.9659C4.10746 15.2459 4.10746 15.3585 4.10746 15.4706H4.16328C4.21911 15.4706 4.44373 15.4147 4.6121 15.2459C4.78001 15.1338 5.22929 14.7413 5.7902 13.9557C6.23902 13.3944 6.51994 12.7776 6.85667 12.1042L6.91249 11.9921L7.02458 12.0479L7.19294 12.16C7.24921 12.2721 7.24921 12.4405 7.24921 12.6088C7.19294 13.0576 6.91249 13.6753 6.74367 14.1241C6.40739 14.9097 5.7902 15.7515 5.34138 16.3682C5.34138 16.4245 5.22884 16.5366 5.17301 16.5366C5.22884 16.5929 5.28555 16.6487 5.39765 16.7049L5.56557 16.8729C6.18321 17.3784 6.74367 17.771 7.4734 18.164C8.03477 18.5002 9.15659 19.0611 9.94214 19.2858C10.7277 19.1174 11.8495 18.5002 12.4109 18.164C13.1406 17.771 13.7011 17.3784 14.3187 16.8729L14.4866 16.7049L14.7113 16.5366C14.7676 16.4245 14.7676 16.3682 14.7676 16.3124L14.7113 16.2561C14.2625 15.6948 13.6453 14.7971 13.3085 14.0116C13.1406 13.5632 12.8597 12.9456 12.8034 12.4972C12.7476 12.3288 12.8034 12.16 12.8597 12.0479L12.9718 11.9358C13.0276 11.8795 13.1402 11.8795 13.1402 11.8795L13.196 11.9921C13.5327 12.6655 13.8695 13.2823 14.262 13.8432C14.8234 14.6292 15.2722 15.0218 15.4406 15.1338C15.6089 15.3022 15.7773 15.3585 15.8894 15.3585H15.9456C16.0015 15.3022 15.9457 15.1901 15.7773 14.9092C15.721 14.8534 15.721 14.7971 15.721 14.7413C15.4968 14.2925 15.2722 13.8436 15.1601 13.4506C15.0476 13.1139 14.9917 12.8897 14.9917 12.7776C14.9917 12.6088 15.0476 12.4405 15.1601 12.3284L15.2722 12.2721L15.328 12.3846C15.4406 12.6651 15.6647 13.0018 15.7773 13.1702L16.4503 14.0116C16.5628 14.1241 16.6187 14.1799 16.6187 14.2362L16.6749 14.2925C16.7308 14.2362 16.787 14.1241 16.8991 13.8995L16.9554 13.8437C17.2921 13.2823 17.6284 12.553 17.9089 11.8237C18.1898 11.1503 18.3581 10.421 18.4702 9.2987C18.5265 8.62569 18.5823 7.89641 18.4702 6.99876C18.5274 6.15694 18.3028 5.31557 18.0228 4.69793Z" fill="#00AEEF"/>
</svg>
