<svg width="20" height="20" viewBox="0 0 20 20" fill="none" xmlns="http://www.w3.org/2000/svg">
<path d="M0.0498047 5H7.9607C8.07181 5.08333 8.17736 5.16666 8.28291 5.25555C5.63299 5.2611 2.98306 5.2611 0.33313 5.25555C0.238688 5.17222 0.144247 5.08333 0.0498047 5Z" fill="#15569C"/>
<path d="M12.1003 5H19.9501C19.9223 5.13888 19.7223 5.24999 19.5834 5.24999C16.9835 5.24999 14.378 5.24999 11.7781 5.24999C11.8614 5.18888 12.0225 5.06111 12.1003 5Z" fill="#15569C"/>
<path d="M0.727539 5.58878C3.32191 5.58322 5.91628 5.58878 8.51066 5.58878C8.71065 5.53878 8.82731 5.74433 8.9662 5.83877C6.31627 5.83877 3.6719 5.84988 1.02198 5.83877C0.921978 5.75544 0.827536 5.67211 0.727539 5.58878Z" fill="#15569C"/>
<path d="M11.1105 5.8442C11.2049 5.75531 11.3049 5.67198 11.4049 5.58865C14.0493 5.5831 16.6881 5.58865 19.3269 5.58865C19.2269 5.67754 19.1269 5.76642 19.0214 5.8442C16.3881 5.83864 13.7493 5.8442 11.1105 5.8442Z" fill="#15569C"/>
<path d="M1.39966 6.16101C4.05514 6.16657 6.71618 6.1499 9.37166 6.16657C9.4661 6.2499 9.5661 6.33323 9.66054 6.41656C7.07172 6.41656 4.48291 6.41656 1.89409 6.41656C1.68298 6.46656 1.55521 6.26101 1.39966 6.16101Z" fill="#15569C"/>
<path d="M10.4438 6.41671C10.5327 6.33338 10.6272 6.24449 10.7161 6.16116C13.366 6.15561 16.0159 6.16116 18.6658 6.16116C18.5547 6.2556 18.4436 6.33893 18.3214 6.41671C15.6993 6.41671 13.0716 6.42227 10.4438 6.41671Z" fill="#15569C"/>
<path d="M2.08911 6.74438C4.72237 6.74994 7.35563 6.74438 9.98889 6.74994C10.1278 6.79438 10.2222 6.9166 10.3444 6.99438C7.70007 6.99438 5.06125 6.99438 2.41688 6.99438C2.30577 6.91105 2.20022 6.83327 2.08911 6.74438Z" fill="#15569C"/>
<path d="M10.5333 6.74438C13.0166 6.74438 15.4999 6.74438 17.9831 6.74438C17.8331 6.83327 17.7109 7.02771 17.5109 6.99438C15.2832 6.98882 13.0499 6.99438 10.8222 6.98882C10.7222 6.91105 10.6278 6.83327 10.5333 6.74438Z" fill="#15569C"/>
<path d="M2.7832 7.32202C5.41646 7.32758 8.05528 7.32202 10.6885 7.32758C10.8163 7.37758 10.8996 7.49424 11.0052 7.57757C8.37749 7.57757 5.74423 7.57757 3.11653 7.57202C2.9832 7.52757 2.89431 7.3998 2.7832 7.32202Z" fill="#15569C"/>
<path d="M11.1882 7.32202C13.2271 7.32202 15.2659 7.32202 17.3047 7.32202C17.1936 7.40535 17.0825 7.48868 16.9714 7.57202C15.1548 7.57757 13.3382 7.57202 11.5216 7.57202C11.4049 7.49424 11.2993 7.41091 11.1882 7.32202Z" fill="#15569C"/>
<path d="M3.47778 7.90552C6.11104 7.90552 8.74986 7.90552 11.3831 7.90552C11.4831 7.98885 11.5831 8.07218 11.6831 8.15551C9.03874 8.15551 6.39993 8.16107 3.75555 8.14995C3.66111 8.06662 3.56667 7.98885 3.47778 7.90552Z" fill="#15569C"/>
<path d="M11.9047 7.90015C13.4713 7.90015 15.0379 7.90015 16.6101 7.90015C16.4934 7.98348 16.4045 8.11681 16.2657 8.16125C14.9046 8.1557 13.5435 8.17236 12.1824 8.1557C12.088 8.06681 11.9935 7.98348 11.9047 7.90015Z" fill="#15569C"/>
<path d="M0 8.69435C0.361101 8.69435 0.722202 8.6888 1.0833 8.69435C1.08886 9.05545 1.0833 9.41655 1.08886 9.77766C1.46107 9.77766 1.83328 9.77766 2.20549 9.77766C2.21105 9.41655 2.20549 9.05545 2.21105 8.69435C2.57771 8.6888 2.94436 8.6888 3.31102 8.69435C3.31102 9.70543 3.31657 10.7165 3.31102 11.722C2.94436 11.7276 2.57771 11.7276 2.21105 11.722C2.20549 11.3387 2.2166 10.9554 2.20549 10.5721C1.83328 10.5665 1.46107 10.5665 1.08886 10.5721C1.0833 10.9554 1.08886 11.3387 1.0833 11.722C0.722202 11.7276 0.361101 11.722 0 11.722V8.69435Z" fill="#15569C"/>
<path d="M3.42236 11.7443C3.87235 10.7277 4.31678 9.71103 4.77232 8.69995C5.11676 8.69995 5.46675 8.69995 5.81119 8.69995C6.27784 9.70548 6.71116 10.7277 7.1667 11.7443C6.80005 11.7443 6.43339 11.7443 6.06673 11.7443C5.98896 11.5776 5.92229 11.411 5.84452 11.2388C5.47786 11.2332 5.10565 11.2332 4.73899 11.2388C4.66122 11.4054 4.59455 11.5776 4.51678 11.7443C4.15568 11.7443 3.78902 11.7443 3.42236 11.7443ZM5.05009 10.5832C5.21676 10.5832 5.37786 10.5832 5.53897 10.5832C5.46119 10.3943 5.38342 10.2055 5.30009 10.0166C5.19454 10.1944 5.12787 10.3943 5.05009 10.5832Z" fill="#15569C"/>
<path d="M7.24463 8.70511C7.61129 8.69955 7.97794 8.70511 8.3446 8.70511C8.35015 9.46064 8.3446 10.2106 8.3446 10.9662C8.7057 10.9717 9.0668 10.9662 9.43346 10.9717C9.43346 11.2328 9.43346 11.4884 9.43346 11.7495C8.7057 11.7495 7.97794 11.7495 7.24463 11.7495C7.24463 10.7273 7.25018 9.71619 7.24463 8.70511Z" fill="#15569C"/>
<path d="M9.64358 8.69998C9.99913 8.69442 10.3547 8.69998 10.7102 8.69998C10.7102 9.71662 10.7102 10.7277 10.7102 11.7443C10.3547 11.7499 9.99913 11.7443 9.64358 11.7443C9.63803 10.7277 9.64358 9.71662 9.64358 8.69998Z" fill="#15569C"/>
<path d="M11.1278 8.69997C11.8389 8.69441 12.55 8.69441 13.2666 8.69997C13.2666 8.93329 13.2666 9.16107 13.2666 9.39439C12.9278 9.39995 12.5833 9.38884 12.2444 9.39995C12.2444 9.52772 12.2444 9.66105 12.2444 9.79438C12.5722 9.79994 12.9055 9.79438 13.2333 9.79994C13.2389 10.0499 13.2333 10.3055 13.2389 10.5555C12.9111 10.5721 12.5778 10.5555 12.25 10.561C12.2444 10.9555 12.25 11.3443 12.2444 11.7388C11.8722 11.7388 11.5 11.7443 11.1278 11.7388C11.1278 10.7277 11.1278 9.71661 11.1278 8.69997Z" fill="#15569C"/>
<path d="M14.2214 8.70548C14.5714 8.69992 14.9214 8.70548 15.2714 8.70548C15.6547 9.55545 16.0214 10.4165 16.4102 11.2665C16.688 10.9221 16.9769 10.5776 17.2547 10.2277C16.8547 9.71656 16.4491 9.21102 16.0547 8.69436C16.5325 8.69436 17.0047 8.68881 17.4769 8.69436C17.6491 8.90547 17.8102 9.12769 17.9824 9.34435C18.1602 9.12769 18.3269 8.90547 18.5102 8.69436C18.9213 8.69436 19.3324 8.69436 19.7435 8.69436C19.3713 9.18324 18.9435 9.63878 18.5991 10.1388C19.0213 10.6665 19.4268 11.2054 19.8435 11.7387C19.3768 11.7276 18.9046 11.7609 18.438 11.7221C18.2546 11.4776 18.0658 11.2387 17.8713 10.9999C17.6713 11.2443 17.4769 11.4887 17.2824 11.7332C16.6936 11.7443 16.1103 11.7721 15.5214 11.7387C15.4492 11.5721 15.3769 11.3998 15.2936 11.2332C14.9325 11.2332 14.5714 11.2332 14.2048 11.2332C14.1214 11.3998 14.0492 11.5665 13.977 11.7387C13.6103 11.7443 13.2437 11.7443 12.8826 11.7387C13.327 10.7332 13.777 9.72211 14.2214 8.70548ZM14.7492 10.0165C14.6659 10.2054 14.5825 10.3943 14.5047 10.5888C14.6714 10.5888 14.8325 10.5888 14.9992 10.5888C14.9214 10.3999 14.8381 10.2054 14.7492 10.0165Z" fill="#15569C"/>
<path d="M3.74476 12.2444C5.11694 12.2388 6.48357 12.2388 7.85575 12.2444C7.95019 12.3277 8.05019 12.4111 8.13908 12.5C6.57246 12.5 5.00583 12.5 3.43921 12.5C3.53921 12.4111 3.64476 12.3277 3.74476 12.2444Z" fill="#15569C"/>
<path d="M8.36133 12.2439C10.9946 12.2439 13.6278 12.2439 16.2611 12.2439C16.3778 12.3106 16.4667 12.4106 16.5722 12.4939C13.9445 12.4994 11.3112 12.4939 8.68354 12.4939C8.56132 12.4439 8.47244 12.3272 8.36133 12.2439Z" fill="#15569C"/>
<path d="M2.73853 13.0719C2.88852 12.9885 3.00518 12.7997 3.19407 12.8219C4.96069 12.8274 6.73286 12.8219 8.49948 12.8274C8.63836 12.8719 8.7328 12.9941 8.85502 13.0719C6.81619 13.0719 4.77736 13.0719 2.73853 13.0719Z" fill="#15569C"/>
<path d="M9.03857 12.8276C11.6829 12.8276 14.3218 12.8276 16.9661 12.8276C17.0661 12.9054 17.1717 12.9887 17.2717 13.0721C14.6273 13.0721 11.9829 13.0721 9.33857 13.0721C9.23301 12.9887 9.13302 12.911 9.03857 12.8276Z" fill="#15569C"/>
<path d="M2.41737 13.4053C4.68398 13.3997 6.94503 13.3997 9.21163 13.4053C9.33385 13.4608 9.41718 13.5664 9.52273 13.6497C7.03947 13.6497 4.55065 13.6497 2.06738 13.6497C2.17849 13.572 2.28404 13.4664 2.41737 13.4053Z" fill="#15569C"/>
<path d="M9.69958 13.4053C12.3328 13.4053 14.9661 13.4053 17.5994 13.4053C17.7327 13.4553 17.8382 13.5719 17.9549 13.6497C15.3161 13.6497 12.6717 13.6497 10.0329 13.6497C9.91625 13.5775 9.80514 13.4942 9.69958 13.4053Z" fill="#15569C"/>
<path d="M1.37744 14.2332C1.48855 14.1498 1.59966 14.0665 1.71077 13.9832C4.34403 13.9776 6.97173 13.9832 9.60499 13.9832C9.51055 14.0721 9.41611 14.1554 9.31611 14.2387C6.67174 14.2332 4.02181 14.2332 1.37744 14.2332Z" fill="#15569C"/>
<path d="M10.3881 13.9829C13.0269 13.9829 15.6657 13.9829 18.3045 13.9829C18.4212 14.0607 18.5323 14.144 18.6434 14.2329C15.9935 14.2329 13.338 14.2329 10.6881 14.2329C10.5825 14.1496 10.4825 14.0662 10.3881 13.9829Z" fill="#15569C"/>
<path d="M0.716431 14.8053C0.810873 14.7219 0.91087 14.6386 1.01087 14.5608C3.64968 14.5553 6.2885 14.5608 8.92732 14.5608C8.79399 14.6497 8.69399 14.8497 8.49955 14.8108C5.90518 14.8053 3.31636 14.8053 0.716431 14.8053Z" fill="#15569C"/>
<path d="M11.0825 14.561C13.7269 14.561 16.3713 14.5554 19.0156 14.5554C19.1212 14.6332 19.2212 14.7165 19.3212 14.8054C16.7101 14.811 14.0991 14.8054 11.4936 14.8054C11.3103 14.8387 11.2158 14.6443 11.0825 14.561Z" fill="#15569C"/>
<path d="M0.349248 15.1553C2.98806 15.1497 5.62132 15.1553 8.26014 15.1553C8.1657 15.2386 8.07126 15.322 7.97126 15.4053H0.0437012C0.143698 15.3164 0.249251 15.2331 0.349248 15.1553Z" fill="#15569C"/>
<path d="M11.7614 15.1442C14.3724 15.1387 16.9779 15.1442 19.5889 15.1442C19.7722 15.1164 19.8667 15.3164 20 15.4053H12.0836C11.9725 15.3164 11.8669 15.2276 11.7614 15.1442Z" fill="#15569C"/>
</svg>
