<svg width="20" height="20" viewBox="0 0 20 20" fill="none" xmlns="http://www.w3.org/2000/svg">
<path d="M18.6224 10.7148C18.8791 10.9038 19.1358 11.0388 19.1358 11.3224C19.1358 11.4034 19.0277 11.4982 18.7846 11.4982C18.5955 11.4982 18.3929 11.4441 18.2983 11.3091C18.2174 11.2146 18.3255 11.0795 18.2714 10.9715C18.2174 10.8905 18.1093 10.931 18.0283 10.8905C17.9338 10.8364 17.9338 10.7959 17.8664 10.6743C17.7987 10.5257 17.5692 10.2692 17.2992 9.99919C17.0696 9.76964 16.8265 9.64799 16.7184 9.66155C16.6374 9.67511 16.6103 9.67511 16.5429 9.67511C16.3538 9.67511 16.1781 9.86417 15.9081 9.97227C15.719 10.0532 15.6109 10.1073 15.4759 10.1207L15.4354 10.1747L15.6921 10.1611C15.9216 10.1611 16.2457 10.1207 16.4753 10.1207C16.7184 10.1207 16.8399 10.3366 16.9344 10.5664C17.1234 11.0255 17.3937 11.7006 17.7311 12.2544C17.8933 12.5109 18.0283 12.6866 18.0283 13.0107C18.0283 13.1052 18.0147 13.2402 17.8797 13.2402C17.6906 13.2402 17.218 13.0512 17.218 12.835C17.218 12.673 17.3396 12.6054 17.3396 12.4435C17.3396 12.349 17.1911 12.3623 17.1506 12.2678C17.0289 11.7682 16.8939 11.282 16.6103 10.985C16.4617 10.8364 16.4484 10.7688 16.3133 10.7688C16.2322 10.7688 16.1648 10.7824 16.0971 10.8095C15.7057 10.9579 15.1925 11.3765 14.5577 11.5791C14.3146 11.6601 14.2741 11.5117 14.0174 11.5656H14.031C13.8286 11.6063 13.6664 11.7277 13.3964 11.7951C13.0047 11.9032 12.343 11.9573 11.8162 11.8896C11.4381 11.8358 10.9519 11.7682 10.7359 11.7682C10.574 12.2273 10.2363 12.835 9.72315 13.0781C9.45312 13.1998 9.37194 13.3617 9.45312 13.6722C9.54745 14.0506 9.8851 14.3342 10.0606 14.6447C10.2227 14.9283 10.4792 15.3604 10.7628 15.509C11.0466 15.6576 11.2086 15.86 11.2086 16.0355C11.2086 16.1167 11.1681 16.1706 11.0869 16.1706H10.5333C10.4523 16.1706 10.4118 16.1167 10.3847 16.0896C10.3037 15.941 10.3578 15.806 10.2632 15.6845C10.1823 15.59 10.1282 15.6169 10.0337 15.5359C9.87153 15.374 9.99299 15.2795 9.87153 15.0768C9.52032 14.523 9.37194 14.388 9.07478 13.9965C8.91284 13.7803 8.71021 13.6858 8.71021 13.4022C8.71021 13.0647 9.04786 13.0107 9.0343 12.673C8.81831 12.835 8.56163 12.9566 8.16994 13.0107C8.11609 13.0243 7.98087 13.1186 7.92703 13.1862C7.79201 13.3212 7.73796 13.4562 7.7244 13.6589C7.68391 14.118 7.58938 14.5771 7.64343 15.0364C7.7244 15.3333 7.76488 15.4279 8.008 15.59C8.15658 15.6845 8.33208 15.8331 8.35921 16.0491C8.35921 16.1032 8.34564 16.1708 8.26467 16.1708H7.67035C7.6163 16.1708 7.56226 16.1303 7.5489 16.0898C7.48128 15.9681 7.52177 15.8872 7.49485 15.7522C7.4408 15.4686 7.13028 15.4955 7.13028 15.2119C7.13028 15.1309 7.18433 15.0228 7.18433 14.8473C7.19769 14.4558 7.31934 13.8346 7.19769 13.0783C7.14364 12.6326 7.60294 12.619 7.83249 12.2409C7.98108 12.0249 7.92703 12.1194 8.02156 11.9573C8.10253 11.7953 8.08897 11.6737 8.07561 11.5658C8.07561 11.4441 7.95395 11.1741 8.03492 10.6204C8.06205 10.3773 8.1835 10.1342 8.34565 9.91823C8.34565 9.90467 8.34565 9.87774 8.2916 9.87774C8.06205 9.8911 8.06204 9.83725 7.8999 9.83725C7.75132 9.83725 7.62987 9.95871 7.60294 10.0261C7.52177 9.99919 7.49485 9.90466 7.49485 9.86418C7.49485 9.7832 7.50841 9.70203 7.58938 9.62106C7.6163 9.59414 7.58938 9.56701 7.5489 9.56701C7.35983 9.56701 7.18433 9.79656 7.14364 9.9587C7.03575 9.94514 7.02218 9.79657 6.9817 9.79657C6.92765 9.79657 6.90073 9.87774 6.90073 9.94515C6.90073 10.4854 7.77845 10.6069 7.77845 11.3091C7.77845 12.133 6.79263 11.9573 6.79263 12.2544C6.79263 12.3085 6.83312 12.3625 6.91409 12.403C6.88716 12.484 6.79263 12.5111 6.6981 12.5111C6.48211 12.5111 6.31997 12.349 6.31997 12.133C6.31997 11.6872 6.91409 11.6737 6.91409 11.3362C6.91409 11.1741 6.81956 11.12 6.72502 11.0526C6.15803 10.6474 5.83374 10.2423 5.83374 9.58058C5.83374 8.8648 6.33353 8.31116 6.9817 8.31116C7.92703 8.31116 7.95395 9.39151 8.80475 9.48605C9.12883 9.27006 9.50696 9.13484 9.87174 9.13484C10.4254 9.13484 10.6685 9.28341 11.2626 9.28341C11.4922 9.28341 11.8974 9.21601 12.3701 8.89193C12.5456 8.77027 12.6266 8.74335 12.7887 8.60833C13.1533 8.28424 13.5043 7.663 13.5043 7.21725V7.24437C13.5043 7.09579 13.4773 7.01483 13.4097 7.01483C13.2073 7.01483 13.0316 7.20369 12.829 7.39296C12.7075 7.52797 12.8966 7.58202 12.613 7.74396C12.5185 7.79801 12.397 7.70348 12.2889 7.70348C12.0594 7.70348 11.9648 7.43345 11.9648 7.2039C11.9648 7.08224 12.0594 7.05532 12.1134 6.94722C12.2349 6.71767 12.2213 6.63669 12.3294 6.40714C12.397 6.25856 12.5185 6.15047 12.5049 6.04258C12.5049 6.00189 12.478 5.97497 12.478 5.93448C12.478 5.70493 12.7751 5.55635 12.7751 5.3268C12.7751 5.20514 12.6266 5.13773 12.5994 5.0432C12.5725 4.94867 12.5861 4.92154 12.5861 4.92154C12.5994 4.90798 12.613 4.89462 12.6266 4.89462C12.748 4.89462 12.7885 5.01608 12.9102 5.08369C12.9237 4.93511 12.8695 4.89462 12.8695 4.78652C12.8695 4.73247 12.8561 4.63794 12.9235 4.63794C13.0047 4.63794 12.9911 4.73247 13.0585 4.78652C13.1397 4.85413 13.2207 4.84056 13.3152 4.90797C13.4367 4.98915 13.5043 5.1106 13.5448 5.12416C13.6664 5.13752 13.6933 5.00251 13.6393 4.90797C13.7743 4.89461 13.9093 5.00251 14.085 5.00251C14.3686 5.00251 14.4496 5.08368 14.5036 5.12416C14.6792 5.27274 14.7196 5.39421 14.9087 5.39421C15.0032 5.39421 15.0573 5.31323 15.0842 5.27274C15.2192 5.36728 15.2328 5.62395 15.0842 5.83994C15.1383 6.01545 15.3949 6.02901 15.5164 6.12354C15.638 6.20451 15.6109 6.245 15.7055 6.29905C15.7731 6.33953 15.8271 6.32617 15.881 6.29905C15.935 6.5286 15.7326 6.74479 15.4895 6.77172C15.503 7.06888 15.8135 7.25794 15.9621 7.33891C15.881 7.52798 15.7326 7.58203 15.5976 7.62251C15.638 7.81158 15.8405 8.08161 15.7459 8.32473C15.6514 8.28424 15.5164 8.32473 15.5164 8.45975C15.5164 8.60833 15.7055 8.68929 15.5028 8.79739C15.4083 8.85123 15.3949 8.98625 15.5569 9.10791C15.7729 9.05386 15.9891 9.05387 16.2322 9.05387C16.3807 9.05387 16.5832 9.01338 16.7184 9.01338C16.9749 9.01338 17.1234 9.10791 17.3125 9.31054C17.7178 9.82349 18.1364 10.3502 18.6224 10.7148Z" fill="black"/>
<path d="M7.13021 7.50452C7.22474 7.50452 7.41381 6.95068 7.79194 6.95068C7.89983 6.95068 7.92696 6.99117 7.92696 7.03185C7.92696 7.11282 7.8053 7.18023 7.8053 7.27477C7.8053 7.28833 7.81886 7.31525 7.84599 7.31525C7.94032 7.31525 8.00793 7.11283 8.38606 7.11283C8.49415 7.11283 8.57512 7.12619 8.66966 7.15332C8.71014 7.16688 8.79131 7.20737 8.76419 7.08571C8.66966 6.82923 8.38606 6.58612 7.98101 6.58612C7.57575 6.58612 7.15713 6.95068 7.10308 7.38286C7.08952 7.45047 7.08952 7.50452 7.13021 7.50452ZM14.1119 4.03372C14.004 3.99324 13.9904 3.92583 14.0174 3.79081C14.0445 3.64223 14.0445 3.58818 13.9769 3.57462C13.9228 3.56106 13.8418 3.58818 13.7609 3.66915C13.6933 3.76368 13.5852 3.87178 13.5447 3.96632C13.5042 4.08797 13.6528 4.07441 13.5583 4.26348C13.3827 4.58756 13.3423 4.65518 13.2611 4.87117C13.1801 5.10072 13.1261 5.1414 13.0856 5.22237C13.0315 5.28998 13.1532 5.30335 13.2882 5.26286C13.4368 5.20881 13.4368 5.38451 13.3827 5.49241C13.3421 5.57338 13.3692 5.61407 13.4908 5.51954C13.5987 5.43837 13.4368 5.37095 13.4773 5.10091C13.5178 4.8578 13.5718 4.72278 13.7202 4.47967C13.8418 4.26368 13.9497 4.1149 14.1795 4.19607C14.274 4.23635 14.2335 4.08777 14.1119 4.03372ZM18.798 11.1775C18.8385 11.1775 18.8519 11.1237 18.8519 11.0697C18.8519 10.948 18.7845 10.7725 18.69 10.7051C18.663 10.8806 18.5819 11.0022 18.5819 11.0697C18.5819 11.1371 18.744 11.1775 18.798 11.1775ZM19.8379 9.48952C19.9053 9.48952 19.9999 9.46259 19.9999 9.40854C19.9999 9.31401 19.8513 9.12494 19.7163 9.08446C19.8108 9.27352 19.7163 9.48952 19.8379 9.48952ZM15.2194 7.1938C16.1647 7.62598 16.1106 8.43629 16.1916 8.23366C16.2321 8.15269 16.3536 7.7612 16.0161 7.36951C15.7594 7.07234 15.6515 7.13995 15.7594 6.89684C16.178 5.89746 16.4347 4.38494 15.1922 3.84486C15.0437 3.79082 14.9358 3.79081 14.9358 3.81773C14.9358 3.84486 15.0708 3.88534 15.2329 3.99324C16.0566 4.54708 15.7999 6.03247 15.0439 6.74825C14.7872 6.99116 14.9086 7.04522 15.2194 7.1938ZM11.9647 14.1757C12.0322 14.1757 11.9917 14.0811 11.9783 14.0271C11.9243 13.9326 11.8162 13.865 11.7216 13.8111C11.7486 13.9056 11.7621 14.1621 11.8567 14.1621H11.9647V14.1757ZM9.10184 14.1757C9.16924 14.1757 9.1154 14.0811 9.08828 14.0271C9.03423 13.9326 8.91277 13.865 8.81824 13.8245C8.84516 13.919 8.85872 14.1757 8.96662 14.1757H9.10184ZM12.5724 8.47677C13.0991 8.42272 13.1801 8.30127 13.2747 7.90957C13.3151 7.72051 13.4502 7.53145 13.5718 7.40999C13.6528 7.32882 13.7204 7.26141 13.8014 7.12639C13.8283 7.07235 13.8418 7.03186 13.8014 7.04542C13.7473 7.0859 13.5718 7.20736 13.4908 7.26141C13.1261 7.51788 12.5589 7.6531 12.3293 7.6531C11.8433 7.6531 11.438 7.50452 10.9925 7.50452C9.6826 7.50452 9.19637 8.53082 9.26378 9.12494C9.27734 9.21948 9.2909 9.21947 9.31783 9.21947C9.41256 9.21947 9.49353 8.86847 9.81762 8.55775C10.3036 8.09864 10.8168 7.84196 11.5597 7.84196C12.0998 7.84196 12.316 8.01767 12.316 8.08508C12.316 8.22009 12.0862 8.23366 12.0998 8.36868C12.0998 8.40916 12.2348 8.51726 12.5724 8.47677Z" fill="#747172"/>
<path d="M0 16.3999H15.8947V16.859H0V16.3999Z" fill="#008037"/>
</svg>
