<?xml version="1.0" encoding="UTF-8" standalone="no"?>
<!DOCTYPE svg PUBLIC "-//W3C//DTD SVG 1.1//EN" "http://www.w3.org/Graphics/SVG/1.1/DTD/svg11.dtd">
<svg width="100%" height="100%" viewBox="0 0 20 20" version="1.1" xmlns="http://www.w3.org/2000/svg" xmlns:xlink="http://www.w3.org/1999/xlink" xml:space="preserve" xmlns:serif="http://www.serif.com/" style="fill-rule:evenodd;clip-rule:evenodd;stroke-linejoin:round;stroke-miterlimit:2;">
    <path d="M18.622,10.715C18.879,10.904 19.136,11.039 19.136,11.322C19.136,11.403 19.028,11.498 18.785,11.498C18.596,11.498 18.393,11.444 18.298,11.309C18.217,11.215 18.326,11.08 18.271,10.972C18.217,10.891 18.109,10.931 18.028,10.891C17.934,10.836 17.934,10.796 17.866,10.674C17.799,10.526 17.569,10.269 17.299,9.999C17.07,9.77 16.827,9.648 16.718,9.662C16.637,9.675 16.61,9.675 16.543,9.675C16.354,9.675 16.178,9.864 15.908,9.972C15.719,10.053 15.611,10.107 15.476,10.121L15.435,10.175L15.692,10.161C15.922,10.161 16.246,10.121 16.475,10.121C16.718,10.121 16.84,10.337 16.934,10.566C17.123,11.025 17.394,11.701 17.731,12.254C17.893,12.511 18.028,12.687 18.028,13.011C18.028,13.105 18.015,13.24 17.88,13.24C17.691,13.24 17.218,13.051 17.218,12.835C17.218,12.673 17.34,12.605 17.34,12.444C17.34,12.349 17.191,12.362 17.151,12.268C17.029,11.768 16.894,11.282 16.61,10.985C16.462,10.836 16.448,10.769 16.313,10.769C16.232,10.769 16.165,10.782 16.097,10.81C15.706,10.958 15.193,11.377 14.558,11.579C14.315,11.66 14.274,11.512 14.017,11.566L14.031,11.566C13.829,11.606 13.666,11.728 13.396,11.795C13.005,11.903 12.343,11.957 11.816,11.89C11.438,11.836 10.952,11.768 10.736,11.768C10.574,12.227 10.236,12.835 9.723,13.078C9.453,13.2 9.372,13.362 9.453,13.672C9.547,14.051 9.885,14.334 10.061,14.645C10.223,14.928 10.479,15.36 10.763,15.509C11.047,15.658 11.209,15.86 11.209,16.035C11.209,16.117 11.168,16.171 11.087,16.171L10.533,16.171C10.452,16.171 10.412,16.117 10.385,16.09C10.304,15.941 10.358,15.806 10.263,15.685C10.182,15.59 10.128,15.617 10.034,15.536C9.872,15.374 9.993,15.28 9.872,15.077C9.52,14.523 9.372,14.388 9.075,13.996C8.913,13.78 8.71,13.686 8.71,13.402C8.71,13.065 9.048,13.011 9.034,12.673C8.818,12.835 8.562,12.957 8.17,13.011C8.116,13.024 7.981,13.119 7.927,13.186C7.792,13.321 7.738,13.456 7.724,13.659C7.684,14.118 7.589,14.577 7.643,15.036C7.724,15.333 7.765,15.428 8.008,15.59C8.157,15.685 8.332,15.833 8.359,16.049C8.359,16.103 8.346,16.171 8.265,16.171L7.67,16.171C7.616,16.171 7.562,16.13 7.549,16.09C7.481,15.968 7.522,15.887 7.495,15.752C7.441,15.469 7.13,15.496 7.13,15.212C7.13,15.131 7.184,15.023 7.184,14.847C7.198,14.456 7.319,13.835 7.198,13.078C7.144,12.633 7.603,12.619 7.832,12.241C7.981,12.025 7.927,12.119 8.022,11.957C8.103,11.795 8.089,11.674 8.076,11.566C8.076,11.444 7.954,11.174 8.035,10.62C8.062,10.377 8.184,10.134 8.346,9.918C8.346,9.905 8.346,9.878 8.292,9.878C8.062,9.891 8.062,9.837 7.9,9.837C7.751,9.837 7.63,9.959 7.603,10.026C7.522,9.999 7.495,9.905 7.495,9.864C7.495,9.783 7.508,9.702 7.589,9.621C7.616,9.594 7.589,9.567 7.549,9.567C7.36,9.567 7.184,9.797 7.144,9.959C7.036,9.945 7.022,9.797 6.982,9.797C6.928,9.797 6.901,9.878 6.901,9.945C6.901,10.485 7.778,10.607 7.778,11.309C7.778,12.133 6.793,11.957 6.793,12.254C6.793,12.309 6.833,12.363 6.914,12.403C6.887,12.484 6.793,12.511 6.698,12.511C6.482,12.511 6.32,12.349 6.32,12.133C6.32,11.687 6.914,11.674 6.914,11.336C6.914,11.174 6.82,11.12 6.725,11.053C6.158,10.647 5.834,10.242 5.834,9.581C5.834,8.865 6.334,8.311 6.982,8.311C7.927,8.311 7.954,9.392 8.805,9.486C9.129,9.27 9.507,9.135 9.872,9.135C10.425,9.135 10.669,9.283 11.263,9.283C11.492,9.283 11.897,9.216 12.37,8.892C12.546,8.77 12.627,8.743 12.789,8.608C13.153,8.284 13.504,7.663 13.504,7.217L13.504,7.244C13.504,7.096 13.477,7.015 13.41,7.015C13.207,7.015 13.032,7.204 12.829,7.393C12.708,7.528 12.897,7.582 12.613,7.744C12.519,7.798 12.397,7.703 12.289,7.703C12.059,7.703 11.965,7.433 11.965,7.204C11.965,7.082 12.059,7.055 12.113,6.947C12.235,6.718 12.221,6.637 12.329,6.407C12.397,6.259 12.519,6.15 12.505,6.043C12.505,6.002 12.478,5.975 12.478,5.934C12.478,5.705 12.775,5.556 12.775,5.327C12.775,5.205 12.627,5.138 12.599,5.043C12.573,4.949 12.586,4.922 12.586,4.922C12.599,4.908 12.613,4.895 12.627,4.895C12.748,4.895 12.789,5.016 12.91,5.084C12.924,4.935 12.87,4.895 12.87,4.787C12.87,4.732 12.856,4.638 12.924,4.638C13.005,4.638 12.991,4.732 13.059,4.787C13.14,4.854 13.221,4.841 13.315,4.908C13.437,4.989 13.504,5.111 13.545,5.124C13.666,5.138 13.693,5.003 13.639,4.908C13.774,4.895 13.909,5.003 14.085,5.003C14.369,5.003 14.45,5.084 14.504,5.124C14.679,5.273 14.72,5.394 14.909,5.394C15.003,5.394 15.057,5.313 15.084,5.273C15.219,5.367 15.233,5.624 15.084,5.84C15.138,6.015 15.395,6.029 15.516,6.124C15.638,6.205 15.611,6.245 15.706,6.299C15.773,6.34 15.827,6.326 15.881,6.299C15.935,6.529 15.733,6.745 15.49,6.772C15.503,7.069 15.814,7.258 15.962,7.339C15.881,7.528 15.733,7.582 15.598,7.623C15.638,7.812 15.841,8.082 15.746,8.325C15.651,8.284 15.516,8.325 15.516,8.46C15.516,8.608 15.706,8.689 15.503,8.797C15.408,8.851 15.395,8.986 15.557,9.108C15.773,9.054 15.989,9.054 16.232,9.054C16.381,9.054 16.583,9.013 16.718,9.013C16.975,9.013 17.123,9.108 17.313,9.311C17.718,9.823 18.136,10.35 18.622,10.715Z" style="fill:white;fill-rule:nonzero;"/>
    <path d="M7.13,7.505C7.225,7.505 7.414,6.951 7.792,6.951C7.9,6.951 7.927,6.991 7.927,7.032C7.927,7.113 7.805,7.18 7.805,7.275C7.805,7.288 7.819,7.315 7.846,7.315C7.94,7.315 8.008,7.113 8.386,7.113C8.494,7.113 8.575,7.126 8.67,7.153C8.71,7.167 8.791,7.207 8.764,7.086C8.67,6.829 8.386,6.586 7.981,6.586C7.576,6.586 7.157,6.951 7.103,7.383C7.09,7.45 7.09,7.505 7.13,7.505ZM14.112,4.034C14.004,3.993 13.99,3.926 14.017,3.791C14.044,3.642 14.044,3.588 13.977,3.575C13.923,3.561 13.842,3.588 13.761,3.669C13.693,3.764 13.585,3.872 13.545,3.966C13.504,4.088 13.653,4.074 13.558,4.263C13.383,4.588 13.342,4.655 13.261,4.871C13.18,5.101 13.126,5.141 13.086,5.222C13.032,5.29 13.153,5.303 13.288,5.263C13.437,5.209 13.437,5.385 13.383,5.492C13.342,5.573 13.369,5.614 13.491,5.52C13.599,5.438 13.437,5.371 13.477,5.101C13.518,4.858 13.572,4.723 13.72,4.48C13.842,4.264 13.95,4.115 14.18,4.196C14.274,4.236 14.233,4.088 14.112,4.034ZM18.798,11.178C18.839,11.178 18.852,11.124 18.852,11.07C18.852,10.948 18.785,10.773 18.69,10.705C18.663,10.881 18.582,11.002 18.582,11.07C18.582,11.137 18.744,11.178 18.798,11.178ZM19.838,9.49C19.905,9.49 20,9.463 20,9.409C20,9.314 19.851,9.125 19.716,9.084C19.811,9.274 19.716,9.49 19.838,9.49ZM15.219,7.194C16.165,7.626 16.111,8.436 16.192,8.234C16.232,8.153 16.354,7.761 16.016,7.37C15.759,7.072 15.652,7.14 15.759,6.897C16.178,5.897 16.435,4.385 15.192,3.845C15.044,3.791 14.936,3.791 14.936,3.818C14.936,3.845 15.071,3.885 15.233,3.993C16.057,4.547 15.8,6.032 15.044,6.748C14.787,6.991 14.909,7.045 15.219,7.194ZM11.965,14.176C12.032,14.176 11.992,14.081 11.978,14.027C11.924,13.933 11.816,13.865 11.722,13.811C11.749,13.906 11.762,14.162 11.857,14.162L11.965,14.162L11.965,14.176ZM9.102,14.176C9.169,14.176 9.115,14.081 9.088,14.027C9.034,13.933 8.913,13.865 8.818,13.825C8.845,13.919 8.859,14.176 8.967,14.176L9.102,14.176ZM12.572,8.477C13.099,8.423 13.18,8.301 13.275,7.91C13.315,7.721 13.45,7.531 13.572,7.41C13.653,7.329 13.72,7.261 13.801,7.126C13.828,7.072 13.842,7.032 13.801,7.045C13.747,7.086 13.572,7.207 13.491,7.261C13.126,7.518 12.559,7.653 12.329,7.653C11.843,7.653 11.438,7.505 10.993,7.505C9.683,7.505 9.196,8.531 9.264,9.125C9.277,9.219 9.291,9.219 9.318,9.219C9.413,9.219 9.494,8.868 9.818,8.558C10.304,8.099 10.817,7.842 11.56,7.842C12.1,7.842 12.316,8.018 12.316,8.085C12.316,8.22 12.086,8.234 12.1,8.369C12.1,8.409 12.235,8.517 12.572,8.477Z" style="fill:rgb(116,113,114);fill-rule:nonzero;"/>
    <rect x="0" y="16.4" width="15.895" height="0.459" style="fill:rgb(0,128,55);fill-rule:nonzero;"/>
</svg>
