<svg width="20" height="20" viewBox="0 0 20 20" fill="none" xmlns="http://www.w3.org/2000/svg">
<path d="M12.7877 11.3743C12.8215 11.4081 12.8553 11.4419 12.9234 11.4419C12.991 11.4419 13.0249 11.4081 13.0587 11.3743L15.6973 6.80748C15.7988 6.60461 15.7988 6.36795 15.6973 6.16461L13.1601 1.76683C13.0249 1.56396 12.8215 1.42871 12.551 1.42871H12.3144L9.87854 6.40175L10.3524 7.1456L12.7877 11.3743Z" fill="#DD3E56"/>
<path d="M10.3174 5.96138L12.618 2.00312C12.6518 1.9355 12.6518 1.9017 12.6518 1.83408C12.6518 1.63122 12.4827 1.46216 12.2794 1.46216H7.40824C7.17157 1.46216 6.9687 1.59742 6.8668 1.76647L4.22812 6.29949C4.19431 6.33331 4.19431 6.40092 4.22812 6.46854C4.26193 6.50235 4.29622 6.53617 4.36384 6.53617H9.3026C9.74262 6.53617 10.1145 6.77333 10.3174 7.11144L10.3512 7.14524C10.1145 6.77332 10.1145 6.33329 10.3174 5.96138Z" fill="#CF002C"/>
<path d="M8.59271 8.97285C8.62652 8.93904 8.62652 8.87143 8.59271 8.80381C8.5589 8.77 8.52509 8.73572 8.45699 8.7019H3.18012C2.97678 8.7019 2.74011 8.80382 2.63867 9.00668L0.101432 13.4383C-0.0338108 13.6411 -0.0338108 13.9116 0.101432 14.1483L0.202864 14.3516L5.75069 13.8778L6.12309 13.1673L8.59271 8.97285Z" fill="#DD3E56"/>
<path d="M5.10789 13.8101H0.541044C0.473423 13.8101 0.439614 13.8101 0.371992 13.8439C0.202938 13.9453 0.135311 14.182 0.236743 14.3511L2.67207 18.5798C2.77351 18.7827 3.01066 18.8841 3.21353 18.8841H8.45706C8.52468 18.8841 8.55849 18.8503 8.5923 18.8165C8.62612 18.7827 8.62612 18.7151 8.5923 18.6474L6.12268 14.3849C5.91982 14.013 5.91982 13.573 6.12268 13.201L6.1565 13.1672C5.95364 13.573 5.54791 13.8101 5.10789 13.8101Z" fill="#CF002C"/>
<path d="M8.62605 13.8101C8.55843 13.8101 8.52462 13.8439 8.49081 13.9115C8.457 13.9791 8.457 14.0129 8.49081 14.0805L11.1295 18.6474C11.2309 18.8507 11.4338 18.9521 11.6705 18.9521H16.7787C17.0154 18.9521 17.2521 18.8169 17.3878 18.6136L17.4892 18.4107L15.1887 13.8439H13.531L8.62605 13.8101Z" fill="#DD3E56"/>
<path d="M14.5791 14.3847L16.8459 18.3768C16.8797 18.4106 16.9135 18.4783 16.9811 18.5121C17.1502 18.6135 17.3868 18.5459 17.4883 18.3768L19.9241 14.1481C20.0255 13.9452 20.0255 13.7085 19.9241 13.5052L17.2854 8.97218C17.2516 8.93837 17.2178 8.90454 17.1502 8.90454C17.0826 8.90454 17.0487 8.93837 17.0149 8.97218L14.5453 13.2347C14.3424 13.6066 13.9362 13.81 13.5305 13.81H13.4967C13.9362 13.81 14.3424 14.0466 14.5791 14.3847Z" fill="#CF002C"/>
</svg>
