<svg width="20" height="20" viewBox="0 0 20 20" fill="none" xmlns="http://www.w3.org/2000/svg">
<path fill-rule="evenodd" clip-rule="evenodd" d="M9.36639 4.64267C9.13707 6.25676 8.95378 7.61571 8.62354 9.73204C9.51577 9.71266 11.5409 10.0679 11.9866 7.17564C12.3556 4.76944 10.7108 4.54658 9.36639 4.64267V4.64267Z" fill="#191C1F"/>
<path fill-rule="evenodd" clip-rule="evenodd" d="M17.0938 16.2788C17.441 17.0516 17.0913 18.0286 16.3671 18.4218C15.9512 18.6479 15.4764 18.8578 15.0025 18.9757C14.2199 19.1626 13.4199 19.2666 12.6156 19.2858C11.3294 19.2858 10.0399 18.5494 9.48433 17.6531C9.3406 17.9624 8.82222 18.5841 7.91383 18.8764C7.33973 19.0621 6.64775 19.2858 5.20322 19.2842C3.90887 19.2834 3.17086 18.6963 2.78086 18.2038C2.15912 17.4206 2.06788 16.4258 2.189 15.7556L2.19546 15.7233C2.68396 13.2727 3.35173 8.81716 3.65937 6.58456L3.6626 6.56276C3.74657 5.94344 3.83216 5.32413 3.88303 4.70077C3.90806 4.38667 3.92502 4.07096 3.92825 3.75605C3.93148 3.4581 3.90402 3.16096 3.90645 2.86301C3.90968 2.58202 3.95489 2.2978 4.08651 2.0491C4.30048 1.6478 4.6921 1.33127 5.10632 1.1932C5.56092 1.0414 6.0357 0.980841 6.50806 0.925934C6.991 0.868062 7.47503 0.819605 7.95986 0.780592C8.551 0.73715 9.14352 0.715065 9.73625 0.714381C10.7504 0.713574 11.771 0.73053 12.7707 0.936431C13.7889 1.14637 14.8176 1.54767 15.621 2.25096C16.1716 2.73301 16.6085 3.34102 16.9371 4.00636C17.2246 4.59257 17.3416 5.20947 17.4111 5.68102C17.5346 6.52733 17.5021 7.38912 17.315 8.22369C17.1673 8.83218 16.918 9.41143 16.5778 9.9371C16.1951 10.5314 15.7041 11.0708 15.0784 11.5843C15.4595 12.6905 16.4526 14.8513 17.0938 16.2788ZM5.70384 2.97525C5.72806 3.38543 5.73129 3.79885 5.71353 4.21065C5.69576 4.63133 5.65943 5.0504 5.61259 5.46866C5.56657 5.88531 5.51086 6.30034 5.45433 6.71537L5.43576 6.85102C5.25812 8.14859 5.07079 9.44455 4.87458 10.7381C4.66787 12.0978 4.43614 13.4503 4.2044 14.8044C4.09701 15.4359 3.85558 16.2449 4.18583 16.8473C4.47974 17.385 5.2339 17.4504 5.75955 17.3963C7.67402 17.2009 7.97843 16.7754 7.97843 16.7754C7.5965 16.3523 7.92837 14.4241 8.31271 11.8322H9.67327L11.0976 16.1399C11.0976 16.1399 11.5175 17.4747 12.6843 17.4101C14.1789 17.3277 15.2786 16.9862 15.4369 16.7964C14.9766 16.5396 13.6605 13.2485 12.9435 10.8318C13.2907 10.6202 13.6274 10.3901 13.9447 10.1325C14.3783 9.77884 14.7804 9.37108 15.088 8.89226C15.3093 8.54828 15.478 8.16959 15.5749 7.76748C15.6258 7.55512 15.6541 7.33307 15.6718 7.11586C15.7041 6.73313 15.692 6.34555 15.6363 5.96605C15.583 5.60108 15.5031 5.19493 15.34 4.86549C15.0372 4.24941 14.6084 3.71164 14.0238 3.36767C13.0371 2.78792 11.9002 2.6773 10.7916 2.61674C9.58924 2.54988 8.38334 2.58933 7.18793 2.73463C7.0539 2.75078 5.69818 2.87028 5.70384 2.97525V2.97525Z" fill="#191C1F"/>
</svg>
