<?xml version="1.0" encoding="UTF-8" standalone="no"?>
<!DOCTYPE svg PUBLIC "-//W3C//DTD SVG 1.1//EN" "http://www.w3.org/Graphics/SVG/1.1/DTD/svg11.dtd">
<svg width="100%" height="100%" viewBox="0 0 20 20" version="1.1" xmlns="http://www.w3.org/2000/svg" xmlns:xlink="http://www.w3.org/1999/xlink" xml:space="preserve" xmlns:serif="http://www.serif.com/" style="fill-rule:evenodd;clip-rule:evenodd;stroke-linejoin:round;stroke-miterlimit:2;">
    <path d="M9.366,4.643C9.137,6.257 8.954,7.616 8.624,9.732C9.516,9.713 11.541,10.068 11.987,7.176C12.356,4.769 10.711,4.547 9.366,4.643Z" style="fill:white;"/>
    <path d="M17.094,16.279C17.441,17.052 17.091,18.029 16.367,18.422C15.951,18.648 15.476,18.858 15.003,18.976C14.22,19.163 13.42,19.267 12.616,19.286C11.329,19.286 10.04,18.549 9.484,17.653C9.341,17.962 8.822,18.584 7.914,18.876C7.34,19.062 6.648,19.286 5.203,19.284C3.909,19.283 3.171,18.696 2.781,18.204C2.159,17.421 2.068,16.426 2.189,15.756L2.195,15.723C2.684,13.273 3.352,8.817 3.659,6.585L3.663,6.563C3.747,5.943 3.832,5.324 3.883,4.701C3.908,4.387 3.925,4.071 3.928,3.756C3.931,3.458 3.904,3.161 3.906,2.863C3.91,2.582 3.955,2.298 4.087,2.049C4.3,1.648 4.692,1.331 5.106,1.193C5.561,1.041 6.036,0.981 6.508,0.926C6.991,0.868 7.475,0.82 7.96,0.781C8.551,0.737 9.144,0.715 9.736,0.714C10.75,0.714 11.771,0.731 12.771,0.936C13.789,1.146 14.818,1.548 15.621,2.251C16.172,2.733 16.609,3.341 16.937,4.006C17.225,4.593 17.342,5.209 17.411,5.681C17.535,6.527 17.502,7.389 17.315,8.224C17.167,8.832 16.918,9.411 16.578,9.937C16.195,10.531 15.704,11.071 15.078,11.584C15.46,12.691 16.453,14.851 17.094,16.279ZM5.704,2.975C5.728,3.385 5.731,3.799 5.714,4.211C5.696,4.631 5.659,5.05 5.613,5.469C5.567,5.885 5.511,6.3 5.454,6.715L5.436,6.851C5.258,8.149 5.071,9.445 4.875,10.738C4.668,12.098 4.436,13.45 4.204,14.804C4.097,15.436 3.856,16.245 4.186,16.847C4.48,17.385 5.234,17.45 5.76,17.396C7.674,17.201 7.978,16.775 7.978,16.775C7.597,16.352 7.928,14.424 8.313,11.832L9.673,11.832L11.098,16.14C11.098,16.14 11.518,17.475 12.684,17.41C14.179,17.328 15.279,16.986 15.437,16.796C14.977,16.54 13.661,13.249 12.944,10.832C13.291,10.62 13.627,10.39 13.945,10.133C14.378,9.779 14.78,9.371 15.088,8.892C15.309,8.548 15.478,8.17 15.575,7.767C15.626,7.555 15.654,7.333 15.672,7.116C15.704,6.733 15.692,6.346 15.636,5.966C15.583,5.601 15.503,5.195 15.34,4.865C15.037,4.249 14.608,3.712 14.024,3.368C13.037,2.788 11.9,2.677 10.792,2.617C9.589,2.55 8.383,2.589 7.188,2.735C7.054,2.751 5.698,2.87 5.704,2.975Z" style="fill:white;"/>
</svg>
