<svg width="20" height="20" viewBox="0 0 20 20" fill="none" xmlns="http://www.w3.org/2000/svg">
<path d="M14.383 9.19248C14.3379 8.52699 14.1549 7.86149 13.7888 7.28379L10.6848 2.00142C10.4566 1.60166 10.2736 1.15801 10.1821 0.714355L10.0454 0.936198C9.26941 2.22328 9.26941 3.86622 10.0454 5.1533L12.5565 9.37041C13.3325 10.6575 13.3325 12.3005 12.5565 13.5875L12.4198 13.8094C12.3283 13.3657 12.1453 12.922 11.9171 12.5223L9.63423 8.65984L8.17373 6.17465C7.94434 5.77489 7.76254 5.33123 7.67103 4.88639L7.53437 5.10823C6.75714 6.3965 6.75714 7.99437 7.53437 9.32653L10.0454 13.5437C10.8214 14.8307 10.8214 16.4725 10.0454 17.7608L9.90877 17.9825C9.81726 17.5389 9.63423 17.0941 9.40607 16.6955L6.25566 11.4119C5.84447 10.7026 5.66145 9.90302 5.66145 9.10349C2.32925 9.94692 0 11.7678 0 13.8544C0 16.7833 4.47427 19.1368 9.99906 19.1368C15.5239 19.1368 19.9993 16.7833 19.9993 13.8544C20.0445 11.8568 17.7616 10.0359 14.383 9.19248Z" fill="#FE2500"/>
</svg>
