<svg width="48" height="48" viewBox="0 0 48 48" fill="none" xmlns="http://www.w3.org/2000/svg">
<g clip-path="url(#clip0_1211_13970)">
<path fill-rule="evenodd" clip-rule="evenodd" d="M30.9936 1.28964C29.4569 2.18604 28.1509 3.42906 27.1797 4.9196C26.2084 6.41014 25.5989 8.10697 25.3996 9.87482C25.2003 11.6427 25.4168 13.4326 26.0319 15.102C26.6469 16.7713 27.6434 18.2739 28.942 19.4899C33.0868 23.5107 40.2721 23.0718 42.8797 20.2619C42.9788 20.1448 43.0293 19.9942 43.0209 19.8411C43.0124 19.6879 42.9456 19.5438 42.8342 19.4384C42.7228 19.3329 42.5753 19.2742 42.4219 19.2741C42.2685 19.2741 42.1209 19.3328 42.0095 19.4382C39.7923 21.6468 33.4851 21.7125 30.2661 18.2002C29.2588 17.1659 28.4967 15.9187 28.0361 14.5504C27.5754 13.1822 27.4279 11.728 27.6046 10.2951C27.7812 8.86224 28.2774 7.48735 29.0565 6.27195C29.8357 5.05654 30.8778 4.03165 32.1061 3.27295C38.4638 -0.419133 46.3983 3.7622 45.9013 12.2245C45.8468 13.7707 45.4685 15.2884 44.7908 16.6793C44.7339 16.8333 44.7346 17.0027 44.7929 17.1562C44.8511 17.3097 44.9629 17.437 45.1077 17.5145C45.2524 17.592 45.4203 17.6145 45.5804 17.5779C45.7404 17.5412 45.8818 17.4479 45.9784 17.3152C46.8044 15.7806 47.2965 14.0887 47.4225 12.3505C47.7403 10.2974 47.4669 8.19631 46.6343 6.2929C45.8017 4.3895 44.4443 2.76251 42.721 1.60225C40.9976 0.441991 38.9795 -0.203574 36.9027 -0.258934C34.8259 -0.314295 32.7763 0.222838 30.9936 1.28964V1.28964Z" fill="#6C56F9"/>
<path d="M37.8546 13.6562C38.0226 13.6562 38.1506 13.7122 38.2386 13.8242C38.3266 13.9362 38.3706 14.0762 38.3706 14.2442C38.3706 14.4522 38.3026 14.6402 38.1666 14.8082C38.0386 14.9682 37.8626 15.0482 37.6386 15.0482C37.2546 15.0482 36.6826 15.0202 35.9226 14.9642C35.7706 14.9562 35.4906 14.9402 35.0826 14.9162C34.6746 14.8922 34.3546 14.8802 34.1226 14.8802C34.0186 14.8802 33.8666 14.9162 33.6666 14.9882C33.6266 14.9962 33.5466 15.0162 33.4266 15.0482C33.3146 15.0802 33.2186 15.0962 33.1386 15.0962C33.0106 15.0962 32.9026 15.0402 32.8146 14.9282C32.7346 14.8082 32.6946 14.6322 32.6946 14.4002C32.6946 14.1442 32.7546 13.9482 32.8746 13.8122C32.9946 13.6682 33.1826 13.5402 33.4386 13.4282C33.9826 13.1882 34.4946 12.8842 34.9746 12.5162C35.4626 12.1402 35.8506 11.7362 36.1386 11.3042C36.4346 10.8722 36.5826 10.4602 36.5826 10.0682C36.5826 9.75619 36.5106 9.52819 36.3666 9.38419C36.2306 9.23219 36.0106 9.15619 35.7066 9.15619C35.3546 9.15619 35.0706 9.25219 34.8546 9.44419C34.6466 9.63619 34.5426 9.90419 34.5426 10.2482C34.5426 10.7202 34.3066 10.9562 33.8346 10.9562C33.6106 10.9562 33.4346 10.8922 33.3066 10.7642C33.1866 10.6362 33.1266 10.4522 33.1266 10.2122C33.1266 9.81219 33.2306 9.44419 33.4386 9.10819C33.6466 8.77219 33.9586 8.50419 34.3746 8.30419C34.7906 8.09619 35.2986 7.99219 35.8986 7.99219C36.6186 7.99219 37.1826 8.17219 37.5906 8.53219C37.9986 8.89219 38.2026 9.39219 38.2026 10.0322C38.2026 10.6402 37.9346 11.2762 37.3986 11.9402C36.8706 12.6042 36.1066 13.1922 35.1066 13.7042L37.8546 13.6562Z" fill="#6C56F9"/>
<path fill-rule="evenodd" clip-rule="evenodd" d="M9.4068 26.2081L10.474 26.8681C10.5301 26.9246 10.5968 26.9694 10.6703 27C10.7438 27.0305 10.8227 27.0463 10.9023 27.0463C10.9819 27.0463 11.0607 27.0305 11.1342 27C11.2077 26.9694 11.2744 26.9246 11.3305 26.8681C11.3866 26.8132 11.4311 26.7476 11.4615 26.6753C11.4919 26.603 11.5076 26.5253 11.5076 26.4468C11.5076 26.3684 11.4919 26.2907 11.4615 26.2184C11.4311 26.146 11.3866 26.0805 11.3305 26.0256L10.2914 24.9303C9.83575 24.5002 9.30822 24.1533 8.73278 23.9053C8.38175 23.7476 8.00128 23.666 7.61645 23.666C7.23162 23.666 6.85115 23.7476 6.50012 23.9053C6.13514 24.0872 5.80672 24.3347 5.53122 24.6354C5.00587 25.2278 4.53584 25.8671 4.12703 26.5451C4.03621 26.6478 3.98608 26.7802 3.98608 26.9172C3.98608 27.0543 4.03621 27.1867 4.12703 27.2894C4.229 27.3872 4.36485 27.4418 4.50616 27.4418C4.64748 27.4418 4.78332 27.3872 4.88529 27.2894C5.58507 26.6573 6.39393 26.1577 7.27242 25.815C7.561 25.7287 7.86849 25.7287 8.15707 25.815C8.58977 25.8878 9.01033 26.0201 9.4068 26.2081Z" fill="#0C0128"/>
<path fill-rule="evenodd" clip-rule="evenodd" d="M26.8189 26.9241C26.9264 26.8074 26.9861 26.6546 26.9861 26.4959C26.9861 26.3372 26.9264 26.1843 26.8189 26.0676L25.7798 24.9863C25.3252 24.5549 24.7974 24.2077 24.2211 23.9613C23.8707 23.8106 23.4932 23.7329 23.1118 23.7329C22.7304 23.7329 22.3529 23.8106 22.0025 23.9613C21.6309 24.1392 21.2972 24.3871 21.0195 24.6915C20.4975 25.2865 20.0277 25.9254 19.6154 26.6012C19.5175 26.7031 19.4629 26.839 19.4629 26.9803C19.4629 27.1216 19.5175 27.2575 19.6154 27.3594C19.6638 27.4091 19.7216 27.4486 19.7855 27.4756C19.8494 27.5025 19.9181 27.5164 19.9875 27.5164C20.0568 27.5164 20.1255 27.5025 20.1894 27.4756C20.2533 27.4486 20.3112 27.4091 20.3596 27.3594C21.0588 26.7265 21.8615 26.2183 22.7327 25.8569C23.0261 25.7711 23.3379 25.7711 23.6313 25.8569C24.0635 25.9461 24.4831 26.0876 24.8811 26.2782L25.9483 26.9522C26.0677 27.0635 26.2262 27.123 26.3894 27.1177C26.5525 27.1124 26.7069 27.0428 26.8189 26.9241Z" fill="#0C0128"/>
<path fill-rule="evenodd" clip-rule="evenodd" d="M14.9253 35.7846C15.1454 36.0324 15.4127 36.2337 15.7117 36.3767C16.0106 36.5196 16.3351 36.6014 16.6662 36.6171C16.9972 36.6328 17.328 36.5821 17.6391 36.4681C17.9503 36.3541 18.2355 36.179 18.4779 35.9531C18.7553 35.7673 19.0181 35.5607 19.2643 35.3353C19.5031 35.1152 19.7282 34.8807 19.9383 34.6332C20.0449 34.5188 20.1042 34.3682 20.1042 34.2119C20.1042 34.0555 20.0449 33.905 19.9383 33.7906C19.8256 33.6808 19.6744 33.6194 19.517 33.6194C19.3597 33.6194 19.2085 33.6808 19.0958 33.7906C18.8981 33.9789 18.6869 34.1526 18.4639 34.3102C18.2544 34.4657 18.0284 34.5976 17.7899 34.7034C17.6165 34.8136 17.4228 34.8878 17.2201 34.9216C17.0175 34.9554 16.8101 34.948 16.6104 34.8999C16.3014 34.7876 16.2032 34.4366 16.0627 34.0574C15.8506 33.2695 15.7374 32.4582 15.7257 31.6422C15.7257 30.575 15.7257 29.5781 15.7257 29.0164V27.5139C15.7959 26.8539 15.8381 26.2501 15.9223 25.6604C15.9713 25.2627 16.0464 24.8687 16.147 24.4808C16.1917 24.3486 16.182 24.2041 16.1201 24.079C16.0582 23.9539 15.9492 23.8585 15.817 23.8138C15.6848 23.7692 15.5402 23.7788 15.4152 23.8407C15.2901 23.9026 15.1947 24.0116 15.15 24.1438L14.1811 27.2331L13.8301 28.8479C13.6296 30.2009 13.6013 31.5739 13.7458 32.9341C13.8498 33.9797 14.2601 34.9713 14.9253 35.7846Z" fill="#0C0128"/>
<path fill-rule="evenodd" clip-rule="evenodd" d="M22.2551 38.3405C22.093 38.6065 21.9049 38.8558 21.6935 39.0847C21.3301 39.4487 20.9457 39.791 20.542 40.1098C20.1969 40.3967 19.836 40.6639 19.4608 40.9101C19.1232 41.1467 18.7546 41.3357 18.3655 41.4718C17.0893 41.9525 15.6819 41.9525 14.4057 41.4718C12.2704 40.6978 10.3092 39.5096 8.63445 37.9754C8.53483 37.8785 8.40133 37.8242 8.26234 37.8242C8.12335 37.8242 7.98984 37.8785 7.89023 37.9754C7.79647 38.0766 7.74438 38.2095 7.74438 38.3475C7.74438 38.4855 7.79647 38.6184 7.89023 38.7196C9.45991 40.696 11.4699 42.278 13.7598 43.3394C14.6242 43.6612 15.5445 43.8059 16.466 43.7649C17.3875 43.7239 18.2913 43.498 19.1238 43.1007C19.5128 42.8985 19.8839 42.6636 20.2331 42.3986C20.7031 42.0149 21.1443 41.5972 21.553 41.1489C21.9621 40.7464 22.3466 40.3197 22.7045 39.871C22.9631 39.5409 23.1756 39.1772 23.3364 38.7898C23.4032 38.6445 23.4097 38.4787 23.3544 38.3286C23.2991 38.1786 23.1866 38.0566 23.0415 37.9894C22.9673 37.9559 22.8869 37.9384 22.8056 37.9382C22.7242 37.938 22.6437 37.955 22.5694 37.9882C22.4951 38.0214 22.4287 38.0699 22.3745 38.1306C22.3203 38.1914 22.2796 38.2629 22.2551 38.3405V38.3405Z" fill="#0C0128"/>
</g>
<defs>
<clipPath id="clip0_1211_13970">
<rect width="48" height="48" fill="white"/>
</clipPath>
</defs>
</svg>
