<svg width="48" height="48" viewBox="0 0 48 48" fill="none" xmlns="http://www.w3.org/2000/svg">
<g clip-path="url(#clip0_1211_13960)">
<path fill-rule="evenodd" clip-rule="evenodd" d="M27.7629 18.1237C28.9125 19.4814 30.3634 20.5518 32 21.2494C33.6365 21.947 35.4134 22.2526 37.189 22.1419C38.9646 22.0312 40.6898 21.5072 42.227 20.6116C43.7642 19.716 45.0709 18.4737 46.0429 16.9837C49.2829 12.2037 47.6029 5.20373 44.3829 3.12373C44.2504 3.04644 44.0933 3.02283 43.944 3.05775C43.7946 3.09267 43.6643 3.18347 43.5798 3.31149C43.4953 3.43951 43.4631 3.59503 43.4897 3.74609C43.5163 3.89715 43.5997 4.03229 43.7229 4.12373C46.2829 5.92373 47.4429 12.1237 44.5429 15.9037C43.6993 17.0753 42.6032 18.0424 41.3358 18.7336C40.0683 19.4249 38.6618 19.8226 37.22 19.8975C35.7783 19.9724 34.3381 19.7225 33.0059 19.1662C31.6736 18.61 30.4834 17.7616 29.5229 16.6837C24.7829 11.0637 27.5229 2.52373 35.9429 1.54373C37.4751 1.32886 39.0354 1.43788 40.5229 1.86373C40.6845 1.89303 40.8512 1.8629 40.9922 1.77889C41.1333 1.69487 41.2392 1.56266 41.2904 1.40665C41.3416 1.25065 41.3346 1.08139 41.2707 0.93013C41.2068 0.778873 41.0904 0.655831 40.9429 0.583727C39.2882 0.0367807 37.5366 -0.15406 35.8029 0.0237274C33.7258 0.0672975 31.7041 0.701397 29.9742 1.85186C28.2443 3.00232 26.8777 4.62157 26.0343 6.52022C25.1909 8.41886 24.9056 10.5184 25.2117 12.5733C25.5179 14.6281 26.4027 16.5533 27.7629 18.1237V18.1237Z" fill="#6C56F9"/>
<path fill-rule="evenodd" clip-rule="evenodd" d="M28.7208 38.4438L26.3175 38.327C26.4176 37.3423 26.5511 36.391 26.6513 35.4064C26.6513 34.9391 26.7514 34.4551 26.7681 33.9878C26.7931 33.5097 26.7931 33.0306 26.7681 32.5525C26.7681 31.7347 26.7681 30.8836 26.6847 30.1159H27.3355C27.4493 30.1099 27.5576 30.0652 27.6425 29.9894C27.7275 29.9135 27.784 29.811 27.8028 29.6986C27.8794 29.7019 27.9556 29.687 28.0252 29.6551C28.0948 29.6232 28.1559 29.5752 28.2034 29.5151C28.3033 29.4123 28.3592 29.2746 28.3592 29.1312C28.3592 28.9879 28.3033 28.8502 28.2034 28.7474C26.718 27.3955 23.7307 24.1578 21.1605 22.0717C20.3752 21.4287 19.525 20.8694 18.6237 20.4027C18.1145 20.1191 17.5373 19.9806 16.9548 20.0022C15.508 20.5723 14.1785 21.4039 13.0328 22.4555C10.1957 24.7586 6.70761 28.1132 5.75633 29.0144C5.66562 29.1051 5.61467 29.2282 5.61467 29.3565C5.61467 29.4848 5.66562 29.6079 5.75633 29.6986V29.6986C5.76133 29.7768 5.78521 29.8525 5.8259 29.9193C5.86659 29.9862 5.9229 30.0422 5.98998 30.0825C6.37094 30.2651 6.7753 30.3943 7.1916 30.4664C6.92516 31.3594 6.71337 32.2679 6.55741 33.1867C6.53243 33.6036 6.53243 34.0215 6.55741 34.4384C6.55741 34.8556 6.55741 35.2895 6.65755 35.7068C6.78304 36.6849 6.96695 37.6546 7.20829 38.6107V38.6107C6.7243 38.6107 6.24031 38.7275 5.77302 38.811C5.65196 38.8237 5.54063 38.8831 5.46271 38.9766C5.38479 39.0701 5.34643 39.1903 5.35578 39.3117C5.31107 39.2162 5.2343 39.1394 5.13882 39.0947C5.08209 39.0669 5.02031 39.0509 4.95722 39.0477C4.89413 39.0445 4.83104 39.0541 4.77176 39.0759C4.71248 39.0977 4.65824 39.1314 4.61233 39.1748C4.56642 39.2181 4.52978 39.2704 4.50463 39.3284C4.34805 39.618 4.21413 39.9193 4.10409 40.2296C4.02165 40.4881 3.9877 40.7597 4.00395 41.0307C4.02786 41.2407 4.10071 41.4423 4.21665 41.6191C4.33259 41.7959 4.48839 41.943 4.67152 42.0487C5.06997 42.2929 5.5121 42.4573 5.97329 42.5327C6.42502 42.6307 6.88192 42.7031 7.34181 42.7496C8.37654 42.8665 9.44465 42.9165 10.4627 43C11.8312 43.1001 13.1997 43.2003 14.5849 43.2336C16.6377 43.2336 18.6738 43.2336 20.7433 43.2336C22.1285 43.2336 23.6472 43.2336 25.1326 43.1168C26.1358 43.0654 27.1341 42.9427 28.1199 42.7496C28.5828 42.6937 29.0202 42.507 29.3808 42.2114C29.7414 41.9159 30.0103 41.5236 30.156 41.0807C30.2738 40.6375 30.2693 40.1707 30.143 39.7299C30.0166 39.2891 29.7731 38.8908 29.4384 38.5773C29.3557 38.4713 29.2371 38.3992 29.1049 38.3746C28.9727 38.35 28.836 38.3746 28.7208 38.4438ZM25.1493 38.2769L20.3761 38.0433C20.3761 37.2589 20.4596 36.4745 20.4929 35.6734C20.5263 34.8723 20.4929 34.2047 20.4929 33.4871C20.4929 32.7695 20.4095 31.6179 20.3594 30.7C22.2787 30.5665 24.0144 30.3996 25.3662 30.2661C25.1993 31.0004 25.0491 31.718 24.949 32.4691C24.8797 32.9449 24.8351 33.4239 24.8155 33.9043C24.8155 34.3828 24.8155 34.8668 24.8155 35.3563C24.8822 36.341 24.9657 37.3089 25.0658 38.2769H25.1493ZM14.4848 30.917H14.6183C16.1704 30.917 17.7893 30.917 19.3247 30.7501C19.1745 31.4677 19.0243 32.202 18.9408 32.9364C18.8739 33.4063 18.8404 33.8803 18.8407 34.355C18.8162 34.8275 18.8162 35.301 18.8407 35.7735C18.8407 36.5079 19.0076 37.2422 19.1244 37.9598C17.8227 37.9598 16.5042 37.9598 15.2024 37.9598H14.368C14.368 37.1921 14.368 36.4411 14.4848 35.6734C14.6016 34.9057 14.4848 34.2047 14.4848 33.4871C14.4848 32.7695 14.4514 31.7681 14.4014 30.917H14.4848ZM16.0703 22.2719C16.3929 22.013 16.7531 21.8048 17.1384 21.6544C17.497 21.7048 17.8394 21.836 18.1398 22.0383C18.8228 22.4306 19.4805 22.8653 20.1091 23.34C22.4122 25.009 25.1159 27.5457 26.7848 28.981H26.5678C26.5319 28.9091 26.4802 28.8463 26.4167 28.7972C26.3531 28.7481 26.2793 28.7139 26.2007 28.6973C26.1079 28.6942 26.0165 28.7197 25.9388 28.7705C25.8612 28.8213 25.8011 28.8948 25.7668 28.981H17.7225C16.4375 28.981 15.1524 28.981 13.9007 29.0978C11.7144 29.1813 9.71168 29.3148 8.24303 29.2647C7.75127 29.2619 7.26039 29.2229 6.77437 29.1479C7.95931 28.1799 10.5295 26.2273 12.866 24.4916C14.0175 23.6238 15.1357 22.8227 15.9868 22.2719H16.0703ZM8.04276 30.4997C9.73013 30.7334 11.4298 30.8671 13.133 30.9003C12.9995 31.5678 12.866 32.2521 12.7825 32.9531C12.7155 33.4229 12.6821 33.897 12.6824 34.3716C12.6578 34.8442 12.6578 35.3177 12.6824 35.7902C12.7403 36.5352 12.8406 37.2763 12.9828 38.0099H12.4821C11.0635 38.0933 9.64492 38.2269 8.24303 38.3938C8.24303 37.4258 8.24303 36.4578 8.24303 35.4731C8.24303 34.8389 8.24303 34.1881 8.24303 33.5372C8.2764 32.5191 8.1262 31.5178 8.04276 30.4997ZM28.9711 40.5967C28.8782 40.8186 28.7233 41.009 28.525 41.1452C28.3267 41.2813 28.0934 41.3574 27.8529 41.3644C26.9229 41.4806 25.9863 41.5363 25.0491 41.5313C23.5805 41.5313 22.0784 41.5313 20.7099 41.4145H10.4961C9.62823 41.4145 8.82715 41.4145 7.84248 41.4145C7.28437 41.4081 6.72712 41.3691 6.17356 41.2977C5.90603 41.2758 5.64241 41.2197 5.38916 41.1308C5.23896 41.1308 5.08876 41.014 5.07207 40.8805C5.03886 40.749 5.03886 40.6114 5.07207 40.4799C5.13517 40.2028 5.23038 39.9339 5.35578 39.6788C5.38897 39.5757 5.38897 39.4648 5.35578 39.3617C5.38559 39.4659 5.44948 39.557 5.53723 39.6206C5.62498 39.6841 5.73151 39.7164 5.83977 39.7122C7.1916 39.6121 8.51005 39.5954 9.8452 39.5954C11.1803 39.5954 12.9494 39.6788 14.5182 39.7289C16.087 39.779 17.6391 39.7289 19.2079 39.7289L28.7208 39.562C28.7208 39.562 28.8042 39.562 28.8543 39.562C28.9458 39.7164 29.0036 39.8885 29.0238 40.0668C29.0439 40.2452 29.0259 40.4258 28.9711 40.5967V40.5967Z" fill="#0C0128"/>
<path d="M35.5961 15.0602C35.3961 15.0602 35.2201 15.0002 35.0681 14.8802C34.9161 14.7602 34.8401 14.5722 34.8401 14.3162L34.8521 14.1842C34.9401 13.3602 35.0441 12.5042 35.1641 11.6162C35.2921 10.7202 35.4001 10.0322 35.4881 9.55219L34.5521 9.81619L34.4081 9.84019C34.2561 9.84019 34.1361 9.78019 34.0481 9.66019C33.9601 9.54019 33.9161 9.40419 33.9161 9.25219L33.9281 9.14419C33.9441 8.99219 33.9921 8.86819 34.0721 8.77219C34.1521 8.67619 34.3041 8.58019 34.5281 8.48419C34.7601 8.38819 35.1041 8.28419 35.5601 8.17219L36.0641 8.05219C36.2481 8.01219 36.4001 7.99219 36.5201 7.99219C36.7521 7.99219 36.9241 8.05219 37.0361 8.17219C37.1561 8.29219 37.2161 8.46019 37.2161 8.67619C37.2161 8.77219 37.2041 8.87619 37.1801 8.98819C37.0521 9.61219 36.8081 11.3882 36.4481 14.3162C36.3841 14.8122 36.1001 15.0602 35.5961 15.0602Z" fill="#6C56F9"/>
</g>
<defs>
<clipPath id="clip0_1211_13960">
<rect width="48" height="48" fill="white"/>
</clipPath>
</defs>
</svg>
