<svg width="68" height="24" viewBox="0 0 68 24" fill="none" xmlns="http://www.w3.org/2000/svg">
<g clip-path="url(#clip0_1208_9167)">
<path d="M34.2833 10.5522L32.6494 15.2575L30.8707 10.5522H28.3268L31.4705 18.122H33.8283L36.7446 10.5522H34.2833Z" fill="white"/>
<path d="M45.8862 10.5522H43.4043L41.7083 14.606L39.8469 10.5522H37.2202L40.4467 17.1086L38.7094 21.0383H41.1706L45.8862 10.5522Z" fill="white"/>
<path d="M49.2057 12.8275C49.4332 12.5793 49.7435 12.4552 50.1261 12.4552C50.5398 12.4552 50.85 12.5793 51.0568 12.8172C51.2636 13.055 51.3774 13.3756 51.3774 13.7686V18.1326H53.7249V13.3756C53.7249 12.4966 53.487 11.7624 53.0113 11.2039C52.5356 10.6352 51.8428 10.356 50.9327 10.356C50.5087 10.356 50.0951 10.449 49.6918 10.6352C49.2885 10.8213 48.9886 11.0798 48.7921 11.4211V10.5524H46.5273V18.1326H48.8748V13.7893C48.8541 13.3963 48.9679 13.0757 49.2057 12.8275Z" fill="white"/>
<path d="M62.2358 14.2129C62.2358 12.9927 61.8945 12.0413 61.212 11.3587C60.5294 10.6762 59.5884 10.335 58.3991 10.335C57.365 10.335 56.4653 10.7072 55.7104 11.4518C54.9555 12.1964 54.5729 13.1581 54.5729 14.337C54.5729 15.5676 54.9555 16.5501 55.7414 17.2843C56.517 18.0185 57.4581 18.3805 58.5749 18.3805C59.4953 18.3805 60.2709 18.153 60.8914 17.6979C61.5119 17.2429 61.9152 16.6742 62.1117 15.9709L60.1572 15.4229C59.9193 16.0847 59.4022 16.4156 58.6163 16.4156C58.151 16.4156 57.758 16.2812 57.4167 15.9916C57.0755 15.7124 56.8997 15.3608 56.879 14.9472H62.2151C62.2151 14.8334 62.2358 14.5956 62.2358 14.2129ZM56.8997 13.427C56.9307 13.1064 57.0755 12.8065 57.3443 12.5376C57.6132 12.2688 57.9752 12.1447 58.4198 12.1447C58.9265 12.1447 59.2988 12.2688 59.5574 12.5273C59.8056 12.7858 59.9503 13.0857 59.971 13.427H56.8997V13.427Z" fill="white"/>
<path d="M15.8035 22C14.5626 22 13.4147 21.3278 12.7942 20.2523L6.69287 9.65253L8.4302 8.64943L14.5315 19.2492C14.7901 19.7042 15.2761 19.9835 15.7932 19.9835C16.3309 19.9835 16.817 19.6939 17.0755 19.2182L17.0858 19.1975L25.8552 4.0062H20.4881C19.3919 4.0062 18.3785 4.59566 17.8201 5.53671L15.4726 9.66288L13.7249 8.67011L16.0931 4.52327C17.0135 2.97208 18.7094 2 20.5088 2H26.4447C27.3651 2 28.12 2.75491 28.12 3.67528C28.12 3.93382 28.0579 4.20269 27.9442 4.4302L27.9131 4.4819L18.8439 20.1903C18.2337 21.3071 17.0755 22 15.8035 22Z" fill="white"/>
<path d="M11.0879 12.1758C8.28542 12.1758 6 9.90072 6 7.0879C6 4.27508 8.28542 2 11.0879 2C13.8904 2 16.1758 4.28542 16.1758 7.0879C16.1758 9.89038 13.9007 12.1758 11.0879 12.1758ZM11.0879 4.0062C9.39193 4.0062 8.0062 5.39193 8.0062 7.0879C8.0062 8.78387 9.39193 10.1696 11.0879 10.1696C12.7839 10.1696 14.1696 8.78387 14.1696 7.0879C14.1696 5.39193 12.7839 4.0062 11.0879 4.0062Z" fill="white"/>
<path d="M15.7725 5.09192C15.2761 3.9337 14.3661 3.00299 13.2286 2.47559L12.2255 4.2336C13.363 4.67827 14.1696 5.79513 14.1696 7.08779C14.1696 7.57383 14.0559 8.02884 13.8594 8.44249L15.7725 5.09192Z" fill="url(#paint0_linear_1208_9167)"/>
</g>
<defs>
<linearGradient id="paint0_linear_1208_9167" x1="15.1792" y1="6.5541" x2="11.9504" y2="4.29329" gradientUnits="userSpaceOnUse">
<stop offset="0.12" stop-color="#A6A6A6"/>
<stop offset="0.167" stop-color="#B0B0B0"/>
<stop offset="0.4652" stop-color="#E9E9E9"/>
<stop offset="0.6087" stop-color="white"/>
</linearGradient>
<clipPath id="clip0_1208_9167">
<rect width="56.2358" height="20" fill="white" transform="translate(6 2)"/>
</clipPath>
</defs>
</svg>
