<svg width="48" height="48" viewBox="0 0 48 48" fill="none" xmlns="http://www.w3.org/2000/svg">
<g clip-path="url(#clip0_1211_13984)">
<path fill-rule="evenodd" clip-rule="evenodd" d="M43.5035 19.7406C44.8612 18.591 45.9315 17.1401 46.6291 15.5035C47.3268 13.867 47.6324 12.0901 47.5217 10.3145C47.4109 8.53892 46.8869 6.81375 45.9914 5.27656C45.0958 3.73937 43.8535 2.43267 42.3635 1.46064C37.5835 -1.77936 30.5835 -0.0993607 28.5035 3.12064C28.4262 3.25313 28.4026 3.4102 28.4375 3.55956C28.4724 3.70892 28.5632 3.83923 28.6913 3.92372C28.8193 4.00822 28.9748 4.04047 29.1259 4.01386C29.2769 3.98725 29.412 3.90379 29.5035 3.78064C31.3035 1.22064 37.5035 0.0606394 41.2835 2.96064C42.455 3.80428 43.4221 4.90029 44.1134 6.16775C44.8046 7.4352 45.2024 8.84174 45.2773 10.2835C45.3521 11.7253 45.1022 13.1654 44.546 14.4977C43.9897 15.8299 43.1414 17.0202 42.0635 17.9806C36.4435 22.7206 27.9035 19.9806 26.9235 11.5606C26.7086 10.0284 26.8176 8.46812 27.2435 6.98064C27.2728 6.81909 27.2427 6.65239 27.1586 6.51132C27.0746 6.37025 26.9424 6.26435 26.7864 6.21316C26.6304 6.16197 26.4611 6.16895 26.3099 6.23282C26.1586 6.29669 26.0356 6.41313 25.9635 6.56064C25.4165 8.21533 25.2257 9.96699 25.4035 11.7006C25.4471 13.7777 26.0812 15.7995 27.2316 17.5294C28.3821 19.2593 30.0013 20.6258 31.9 21.4692C33.7986 22.3126 35.8982 22.5979 37.953 22.2918C40.0079 21.9857 41.9331 21.1008 43.5035 19.7406V19.7406Z" fill="#6C56F9"/>
<path d="M36.924 11.588C37.332 11.644 37.672 11.812 37.944 12.092C38.224 12.372 38.364 12.724 38.364 13.148C38.364 13.556 38.24 13.904 37.992 14.192C37.744 14.48 37.408 14.7 36.984 14.852C36.568 14.996 36.112 15.068 35.616 15.068C34.744 15.068 34.088 14.916 33.648 14.612C33.216 14.308 33 13.928 33 13.472C33 13.208 33.064 13.004 33.192 12.86C33.32 12.708 33.492 12.632 33.708 12.632C33.892 12.632 34.028 12.68 34.116 12.776C34.212 12.864 34.292 13.02 34.356 13.244C34.412 13.46 34.528 13.624 34.704 13.736C34.88 13.848 35.152 13.904 35.52 13.904C35.872 13.904 36.16 13.84 36.384 13.712C36.616 13.576 36.732 13.372 36.732 13.1C36.732 12.82 36.624 12.616 36.408 12.488C36.192 12.352 35.856 12.276 35.4 12.26C35.232 12.252 35.104 12.196 35.016 12.092C34.936 11.98 34.896 11.848 34.896 11.696C34.896 11.504 34.928 11.368 34.992 11.288C35.064 11.2 35.184 11.14 35.352 11.108C35.88 11.028 36.26 10.876 36.492 10.652C36.732 10.42 36.852 10.144 36.852 9.824C36.852 9.384 36.548 9.164 35.94 9.164C35.268 9.164 34.872 9.428 34.752 9.956C34.696 10.172 34.612 10.328 34.5 10.424C34.396 10.512 34.248 10.556 34.056 10.556C33.84 10.556 33.672 10.496 33.552 10.376C33.44 10.248 33.384 10.08 33.384 9.872C33.384 9.552 33.496 9.248 33.72 8.96C33.944 8.672 34.26 8.44 34.668 8.264C35.084 8.088 35.568 8 36.12 8C36.888 8 37.476 8.148 37.884 8.444C38.292 8.74 38.496 9.18 38.496 9.764C38.496 10.148 38.348 10.508 38.052 10.844C37.764 11.172 37.388 11.42 36.924 11.588Z" fill="#6C56F9"/>
<path fill-rule="evenodd" clip-rule="evenodd" d="M28.1732 27.138C28.1514 26.9906 28.0857 26.8531 27.9847 26.7435C27.8838 26.6339 27.7522 26.5572 27.607 26.5233C27.3094 26.4925 27.0108 26.5726 26.7685 26.7483C25.5236 27.6314 24.3505 28.6117 23.2604 29.6801C20.6044 32.1586 17.3337 35.5051 15.862 37.0563L15.3263 37.6275C14.2278 36.9945 13.0597 36.4907 11.8454 36.1261C11.2902 35.9291 10.701 35.8463 10.1131 35.8828C10.032 35.8997 9.95513 35.933 9.88724 35.9805C9.81936 36.0281 9.76183 36.0889 9.71816 36.1593C9.65998 36.3241 9.63939 36.4998 9.6579 36.6735C9.67641 36.8472 9.73355 37.0146 9.82515 37.1634C10.2874 37.9901 10.846 38.759 11.4894 39.454C12.8927 41.0594 14.7356 42.6892 15.4592 42.9144C15.4968 42.926 15.5364 42.93 15.5756 42.9261C15.6148 42.9223 15.6528 42.9107 15.6875 42.892C15.7222 42.8734 15.7528 42.848 15.7776 42.8174C15.8023 42.7868 15.8208 42.7516 15.8319 42.7138C15.853 42.6365 15.8429 42.5539 15.8038 42.484C15.7646 42.414 15.6996 42.3622 15.6227 42.3396C14.4449 41.6279 13.4041 40.7109 12.5497 39.6321C11.7811 38.819 11.1086 37.9201 10.5457 36.9532C10.4949 36.8537 10.4508 36.7511 10.4135 36.6458C10.4843 36.6342 10.5563 36.632 10.6277 36.6392C11.495 36.8261 12.3381 37.1117 13.1403 37.4906C13.8273 37.7798 14.4839 38.1364 15.1006 38.5552C15.1658 38.6117 15.2468 38.6467 15.3326 38.6554C15.4184 38.6642 15.5049 38.6463 15.5801 38.6042C15.6617 38.574 15.731 38.5175 15.7771 38.4437L15.7847 38.4006C15.9052 38.271 16.1462 38.0117 16.5046 37.64C17.9875 36.1263 21.2749 32.836 23.9263 30.3833C25.1151 29.2793 26.1687 28.3378 26.8821 27.8157C26.9741 27.7481 27.0735 27.6912 27.1783 27.646C27.0928 27.8794 26.9333 28.1797 26.8027 28.4674C25.6599 30.6523 24.3362 32.7377 22.8454 34.7017C21.0517 37.2303 19.0778 39.6262 16.9392 41.8706C16.914 41.8941 16.8938 41.9224 16.8796 41.9537C16.8654 41.9851 16.8575 42.019 16.8563 42.0534C16.8552 42.0878 16.8609 42.1221 16.873 42.1543C16.8851 42.1866 16.9035 42.2161 16.9271 42.2412C16.9759 42.2927 17.043 42.323 17.1139 42.3255C17.1848 42.3281 17.2539 42.3027 17.3063 42.2549C20.8431 38.6856 24.0108 34.7687 26.7615 30.5637C27.2824 29.8007 27.7235 28.9862 28.0777 28.133C28.1959 27.8154 28.2288 27.4723 28.1732 27.138Z" fill="#0C0128"/>
<path fill-rule="evenodd" clip-rule="evenodd" d="M13.6889 34.7827C15.0361 33.4847 16.8785 31.7948 18.6004 30.2344L20.7168 28.2998C21.7643 27.3928 22.5764 26.6129 23.1495 26.1814C23.2508 26.1105 23.3465 26.0208 23.429 25.9555C23.4296 25.9996 23.4219 26.0434 23.4062 26.0846C23.3188 26.4541 23.1901 26.8125 23.0226 27.1531C22.8338 27.6701 22.5032 28.2864 22.1235 28.9296C22.0968 28.9585 22.077 28.993 22.0654 29.0306C22.0539 29.0683 22.051 29.108 22.0569 29.1469C22.0628 29.1858 22.0774 29.2229 22.0996 29.2554C22.1218 29.2878 22.151 29.3149 22.1851 29.3346C22.2192 29.3543 22.2573 29.366 22.2965 29.369C22.3358 29.3719 22.3751 29.366 22.4118 29.3516C22.4484 29.3373 22.4814 29.3149 22.5082 29.2861C22.535 29.2573 22.5549 29.2228 22.5666 29.1852C23.2238 28.2869 23.7633 27.3082 24.1719 26.2729C24.3652 25.5792 24.1231 25.1903 23.7347 25.0774C23.4903 25.0391 23.2403 25.0931 23.0334 25.2289C21.9626 25.9025 20.9583 26.6765 20.0341 27.5404C19.3703 28.1334 18.6468 28.8136 17.9102 29.518C16.2278 31.1563 14.5206 32.9855 13.2402 34.3575C13.1986 34.4168 13.1794 34.4891 13.1861 34.5613C13.1928 34.6334 13.225 34.7009 13.2768 34.7516C13.3286 34.8023 13.3967 34.833 13.4691 34.8381C13.5414 34.8433 13.6132 34.8226 13.6717 34.7797L13.6889 34.7827Z" fill="#6C56F9"/>
<path fill-rule="evenodd" clip-rule="evenodd" d="M10.3761 41.237C9.91078 41.0574 9.19614 39.8751 8.49009 38.5435C8.20189 38.0134 7.9299 37.4417 7.66905 36.9075C7.4082 36.3734 7.12961 35.7384 6.94168 35.2437C6.80607 34.9394 6.6984 34.6233 6.62001 34.2994C6.62001 34.2994 6.62001 34.2994 6.6276 34.2564C7.41021 34.3805 8.16958 34.6221 8.87999 34.9731C8.91012 34.9906 8.94341 35.0021 8.97796 35.0068C9.0125 35.0114 9.04764 35.0093 9.08135 35.0004C9.11506 34.9915 9.14669 34.9761 9.17443 34.9549C9.20218 34.9338 9.22549 34.9074 9.24304 34.8773C9.26059 34.8472 9.27204 34.8139 9.27672 34.7794C9.28141 34.7448 9.27925 34.7097 9.27035 34.676C9.26146 34.6423 9.24602 34.6106 9.2249 34.5829C9.20379 34.5551 9.17741 34.5318 9.14729 34.5143C8.43849 34.0734 7.66957 33.7375 6.86448 33.5171C6.62033 33.4352 6.35825 33.4228 6.10746 33.4812C6.00704 33.5149 5.92054 33.5807 5.8614 33.6686C5.76451 33.8917 5.71293 34.1319 5.70966 34.3751C5.70639 34.6183 5.7515 34.8598 5.84235 35.0854C6.07853 35.9091 6.399 36.7062 6.79869 37.4641C7.84157 39.5031 9.42272 41.6104 10.1605 41.8559C10.1971 41.87 10.2361 41.8768 10.2753 41.8759C10.3145 41.8749 10.3531 41.8662 10.3889 41.8502C10.4247 41.8343 10.4571 41.8114 10.484 41.7829C10.5109 41.7544 10.5319 41.7208 10.5458 41.6841C10.571 41.645 10.5867 41.6006 10.5915 41.5543C10.5964 41.508 10.5903 41.4613 10.5738 41.4178C10.5573 41.3743 10.5308 41.3353 10.4965 41.3039C10.4622 41.2725 10.4209 41.2496 10.3761 41.237V41.237Z" fill="#6C56F9"/>
</g>
<defs>
<clipPath id="clip0_1211_13984">
<rect width="48" height="48" fill="white"/>
</clipPath>
</defs>
</svg>
