<svg width="179" height="48" viewBox="0 0 179 48" fill="none" xmlns="http://www.w3.org/2000/svg">
<path d="M22.6202 38.9297C20.7736 38.9297 19.055 37.9331 18.1371 36.3287L9.03052 20.5159L11.6253 19.0211L20.735 34.8369C21.1238 35.5141 21.8458 35.9337 22.6217 35.9337C23.4209 35.9337 24.1537 35.4956 24.5332 34.7921L24.5548 34.7536L37.6446 12.0881H29.6441C28.015 12.0881 26.4908 12.9613 25.664 14.3667L22.1389 20.5252L19.5394 19.038L23.0753 12.8595C24.436 10.5362 26.9521 9.09375 29.6426 9.09375H38.4962C39.8769 9.09375 41 10.2168 41 11.5976C41 11.9879 40.9074 12.3782 40.7316 12.7253L40.6914 12.7993L27.1573 36.2346C26.2502 37.8976 24.5146 38.9297 22.6202 38.9297Z" fill="#6C56F9"/>
<path d="M15.5916 24.2786C11.4063 24.2786 8 20.8723 8 16.6854C8 12.4985 11.4063 9.09375 15.5916 9.09375C19.777 9.09375 23.1848 12.5 23.1848 16.6854C23.1848 20.8708 19.7786 24.2786 15.5916 24.2786ZM15.5916 12.0897C13.057 12.0897 10.9944 14.1523 10.9944 16.6869C10.9944 19.2216 13.057 21.2842 15.5916 21.2842C18.1263 21.2842 20.1889 19.2216 20.1889 16.6869C20.1889 14.1523 18.1279 12.0897 15.5916 12.0897Z" fill="#6C56F9"/>
<mask id="mask0_1208_9085" style="mask-type:alpha" maskUnits="userSpaceOnUse" x="8" y="9" width="16" height="16">
<path d="M15.5916 24.2786C11.4063 24.2786 8 20.8723 8 16.6854C8 12.4985 11.4063 9.09375 15.5916 9.09375C19.777 9.09375 23.1848 12.5 23.1848 16.6854C23.1848 20.8708 19.7786 24.2786 15.5916 24.2786ZM15.5916 12.0897C13.057 12.0897 10.9944 14.1523 10.9944 16.6869C10.9944 19.2216 13.057 21.2842 15.5916 21.2842C18.1263 21.2842 20.1889 19.2216 20.1889 16.6869C20.1889 14.1523 18.1279 12.0897 15.5916 12.0897Z" fill="#6C56F9"/>
</mask>
<g mask="url(#mask0_1208_9085)">
<path d="M23.1818 12.656L19.6598 18.8129L15.2893 15.8987L18.8236 9.72021C18.8792 9.72947 23.1957 12.656 23.1818 12.656Z" fill="url(#paint0_linear_1208_9085)"/>
</g>
<path d="M67.6483 32.728H67.1298C66.0927 32.728 65.0557 31.9648 65.0557 30.6928C65.0557 29.4207 65.8335 28.6575 67.1298 28.6575H67.6483C68.6853 28.6575 69.7224 29.4207 69.7224 30.6928C69.7224 31.9648 68.6853 32.728 67.6483 32.728Z" fill="url(#paint1_linear_1208_9085)"/>
<path d="M76.2038 32.728H75.6853C74.6482 32.728 73.6112 31.9648 73.6112 30.6928C73.6112 29.4207 74.389 28.6575 75.6853 28.6575H76.2038C77.2409 28.6575 78.2779 29.4207 78.2779 30.6928C78.2779 31.9648 77.2409 32.728 76.2038 32.728Z" fill="url(#paint2_linear_1208_9085)"/>
<path d="M59.0926 32.728H58.5741C57.5371 32.728 56.5 31.9648 56.5 30.6928C56.5 29.4207 57.2778 28.6575 58.5741 28.6575H59.0926C60.1297 28.6575 61.1667 29.4207 61.1667 30.6928C61.1667 31.9648 60.1297 32.728 59.0926 32.728Z" fill="url(#paint3_linear_1208_9085)"/>
<path d="M84.5 32.728H83.9815C82.9444 32.728 81.9073 31.9648 81.9073 30.6928C81.9073 29.4207 82.6851 28.6575 83.9815 28.6575H84.5C85.537 28.6575 86.5741 29.4207 86.5741 30.6928C86.5741 31.9648 85.7963 32.728 84.5 32.728Z" fill="url(#paint4_linear_1208_9085)"/>
<path d="M110.167 32.728H109.648C108.611 32.728 107.574 31.9648 107.574 30.6928C107.574 29.4207 108.352 28.6575 109.648 28.6575H110.167C111.204 28.6575 112.241 29.4207 112.241 30.6928C112.241 31.9648 111.204 32.728 110.167 32.728Z" fill="url(#paint5_linear_1208_9085)"/>
<path d="M118.723 32.728H118.204C117.167 32.728 116.13 31.9648 116.13 30.6928C116.13 29.4207 116.908 28.6575 118.204 28.6575H118.723C119.76 28.6575 120.797 29.4207 120.797 30.6928C120.797 31.9648 119.76 32.728 118.723 32.728Z" fill="url(#paint6_linear_1208_9085)"/>
<path d="M101.612 32.728H101.093C100.056 32.728 99.0192 31.9648 99.0192 30.6928C99.0192 29.4207 99.797 28.6575 101.093 28.6575H101.612C102.649 28.6575 103.686 29.4207 103.686 30.6928C103.686 31.9648 102.649 32.728 101.612 32.728Z" fill="url(#paint7_linear_1208_9085)"/>
<path d="M93.0553 32.728H92.5367C91.4997 32.728 90.4626 31.9648 90.4626 30.6928C90.4626 29.4207 91.2404 28.6575 92.5367 28.6575H93.0553C94.0923 28.6575 95.1293 29.4207 95.1293 30.6928C95.1293 31.9648 94.0923 32.728 93.0553 32.728Z" fill="url(#paint8_linear_1208_9085)"/>
<path d="M123.034 19.3423H123.552C124.59 19.3423 125.627 18.5791 125.627 17.307C125.627 16.035 124.849 15.2718 123.552 15.2718H123.034C121.997 15.2718 120.96 16.035 120.96 17.307C120.96 18.5791 121.997 19.3423 123.034 19.3423Z" fill="url(#paint9_linear_1208_9085)"/>
<path d="M114.478 19.3423H114.997C116.034 19.3423 117.071 18.5791 117.071 17.307C117.071 16.035 116.293 15.2718 114.997 15.2718H114.478C113.441 15.2718 112.404 16.035 112.404 17.307C112.404 18.5791 113.441 19.3423 114.478 19.3423Z" fill="url(#paint10_linear_1208_9085)"/>
<path d="M131.59 19.3423H132.108C133.145 19.3423 134.182 18.5791 134.182 17.307C134.182 16.035 133.404 15.2718 132.108 15.2718H131.59C130.553 15.2718 129.516 16.035 129.516 17.307C129.516 18.5791 130.553 19.3423 131.59 19.3423Z" fill="url(#paint11_linear_1208_9085)"/>
<path d="M106.182 19.3423H106.701C107.738 19.3423 108.775 18.5791 108.775 17.307C108.775 16.035 107.997 15.2718 106.701 15.2718H106.182C105.145 15.2718 104.108 16.035 104.108 17.307C104.108 18.5791 104.886 19.3423 106.182 19.3423Z" fill="url(#paint12_linear_1208_9085)"/>
<path d="M80.5153 19.3423H81.0338C82.0709 19.3423 83.1079 18.5791 83.1079 17.307C83.1079 16.035 82.3301 15.2718 81.0338 15.2718H80.5153C79.4782 15.2718 78.4412 16.035 78.4412 17.307C78.4412 18.5791 79.4782 19.3423 80.5153 19.3423Z" fill="url(#paint13_linear_1208_9085)"/>
<path d="M71.9597 19.3423H72.4783C73.5153 19.3423 74.5524 18.5791 74.5524 17.307C74.5524 16.035 73.7746 15.2718 72.4783 15.2718H71.9597C70.9227 15.2718 69.8856 16.035 69.8856 17.307C69.8856 18.5791 70.9227 19.3423 71.9597 19.3423Z" fill="url(#paint14_linear_1208_9085)"/>
<path d="M89.0705 19.3423H89.589C90.626 19.3423 91.6631 18.5791 91.6631 17.307C91.6631 16.035 90.8853 15.2718 89.589 15.2718H89.0705C88.0334 15.2718 86.9964 16.035 86.9964 17.307C86.9964 18.5791 88.0334 19.3423 89.0705 19.3423Z" fill="url(#paint15_linear_1208_9085)"/>
<path d="M97.627 19.3423H98.1455C99.1826 19.3423 100.22 18.5791 100.22 17.307C100.22 16.035 99.4418 15.2718 98.1455 15.2718H97.627C96.5899 15.2718 95.5529 16.035 95.5529 17.307C95.5529 18.5791 96.5899 19.3423 97.627 19.3423Z" fill="url(#paint16_linear_1208_9085)"/>
<path d="M63.6632 19.3423C64.9595 19.3423 65.7373 18.5791 65.7373 17.307C65.7373 16.035 64.7002 15.2718 63.6632 15.2718C62.6261 15.2718 61.5891 16.035 61.5891 17.307C61.5891 18.5791 62.6261 19.3423 63.6632 19.3423Z" fill="url(#paint17_linear_1208_9085)"/>
<g clip-path="url(#clip0_1208_9085)">
<path fill-rule="evenodd" clip-rule="evenodd" d="M154.752 15.8999C156.252 14.5649 157.932 13.3349 159.522 12.1049C159.628 12.0244 159.699 11.9055 159.718 11.7738C159.738 11.6421 159.705 11.5079 159.627 11.3999C159.547 11.2938 159.428 11.2234 159.296 11.2038C159.164 11.1842 159.03 11.2169 158.922 11.2949C157.257 12.4499 155.547 13.6199 153.912 14.8949C152.801 15.737 151.748 16.6542 150.762 17.6399L149.007 19.4999C148.816 19.6792 148.64 19.875 148.482 20.0849C148.419 20.1728 148.374 20.2727 148.351 20.3785C148.328 20.4842 148.327 20.5936 148.347 20.6999C148.362 20.8177 148.401 20.9314 148.46 21.0344C148.519 21.1374 148.598 21.2276 148.692 21.2999C148.968 21.4736 149.266 21.6097 149.577 21.7049C149.957 21.8156 150.352 21.8662 150.747 21.8549C151.242 21.8549 151.722 21.7799 152.247 21.7349C154.152 21.5099 156.102 21.2699 158.037 21.1649C159.306 21.0824 160.579 21.0824 161.847 21.1649C162.522 21.1649 163.182 21.1649 163.872 21.1649C164.862 21.1649 165.837 21.1649 166.872 21.1649L168.477 21.2399H168.972C169.167 21.2628 169.363 21.2628 169.557 21.2399C169.697 21.2004 169.824 21.1238 169.925 21.0182C170.025 20.9126 170.095 20.7819 170.127 20.6399C170.161 20.5003 170.157 20.3541 170.115 20.2168C170.073 20.0794 169.994 19.9561 169.887 19.8599C169.077 19.0949 168.222 18.3599 167.382 17.6699C166.122 16.6349 164.832 15.6299 163.557 14.5799C162.972 14.0999 162.462 13.4999 161.907 12.9749C161.641 12.7288 161.36 12.4984 161.067 12.2849C161 12.2324 160.923 12.1948 160.84 12.1746C160.757 12.1544 160.671 12.152 160.587 12.1676C160.504 12.1832 160.424 12.2164 160.354 12.2651C160.285 12.3138 160.226 12.3768 160.182 12.4499C160.139 12.511 160.108 12.58 160.091 12.653C160.075 12.726 160.072 12.8016 160.085 12.8754C160.098 12.9492 160.125 13.0199 160.164 13.0833C160.204 13.1467 160.256 13.2016 160.317 13.2449C160.565 13.4295 160.795 13.6353 161.007 13.8599C161.562 14.4149 162.072 15.0599 162.657 15.5849C163.872 16.6799 165.132 17.7299 166.347 18.8249L167.037 19.4699H166.797L161.922 19.3199C160.574 19.2224 159.22 19.2224 157.872 19.3199C155.877 19.4399 153.912 19.7099 151.962 19.9649C151.572 19.9649 151.137 20.1149 150.717 20.1449L151.872 18.7349C152.775 17.7334 153.737 16.7867 154.752 15.8999Z" fill="#6C56F9"/>
<path fill-rule="evenodd" clip-rule="evenodd" d="M178.062 22.8C176.221 20.109 174.071 17.6422 171.657 15.45C170.225 14.1441 168.723 12.9172 167.157 11.775C164.772 10.05 162.297 8.50505 159.942 6.93005C159.747 6.78005 159.267 6.49505 151.797 12.36C150.807 13.14 149.862 13.965 148.917 14.82C148.452 15.285 147.972 15.735 147.507 16.23C145.722 18.135 144.132 20.205 142.332 22.11C142.237 22.2056 142.183 22.3351 142.183 22.47C142.183 22.605 142.237 22.7345 142.332 22.83C142.43 22.9218 142.558 22.9729 142.692 22.9729C142.826 22.9729 142.955 22.9218 143.052 22.83L150.222 16.23L159.567 8.13005C159.567 8.13005 159.567 8.04005 159.642 7.98005C162.102 9.99005 164.577 12.075 167.142 14.145C168.867 15.555 170.607 16.92 172.242 18.405C174.026 19.9587 175.682 21.6543 177.192 23.475C177.23 23.5483 177.284 23.6124 177.35 23.6628C177.415 23.7133 177.491 23.7489 177.571 23.7671C177.652 23.7854 177.736 23.786 177.816 23.7687C177.897 23.7515 177.973 23.7169 178.04 23.6673C178.106 23.6177 178.16 23.5543 178.199 23.4815C178.239 23.4088 178.261 23.3284 178.266 23.2459C178.271 23.1634 178.258 23.0808 178.228 23.0038C178.198 22.9268 178.152 22.8573 178.092 22.8H178.062Z" fill="#0C0128"/>
<path fill-rule="evenodd" clip-rule="evenodd" d="M176.352 23.2802C174.477 23.4002 172.587 23.3852 170.712 23.2802C167.847 23.1752 165.027 22.9352 162.147 22.7852C159.687 22.7852 157.227 22.7852 154.782 22.7852C151.107 22.9352 147.447 23.3102 143.772 23.7002C143.64 23.7079 143.515 23.7671 143.426 23.8652C143.336 23.9632 143.288 24.0924 143.292 24.2252C143.304 24.3618 143.368 24.4885 143.472 24.5782C143.576 24.6679 143.71 24.7135 143.847 24.7052H144.837C144.756 25.2167 144.782 25.7396 144.914 26.2406C145.045 26.7416 145.28 27.2097 145.602 27.6152C145.707 27.7202 145.872 27.7502 145.992 27.8402C145.842 28.6052 145.692 29.3402 145.602 30.1652C145.58 30.5648 145.58 30.9655 145.602 31.3652C145.614 31.7668 145.649 32.1675 145.707 32.5652C145.812 33.5102 145.992 34.4102 146.172 35.3402C145.843 35.4885 145.554 35.7151 145.332 36.0002C144.993 36.4951 144.81 37.0803 144.807 37.6802C144.835 38.3989 144.962 39.1105 145.182 39.7952C145.182 39.7952 145.182 39.9152 145.272 39.9752L143.682 40.0802C143.609 40.0674 143.534 40.0709 143.462 40.0903C143.39 40.1097 143.324 40.1446 143.267 40.1924C143.21 40.2403 143.164 40.3 143.133 40.3674C143.101 40.4349 143.085 40.5083 143.085 40.5827C143.085 40.657 143.101 40.7305 143.133 40.7979C143.164 40.8653 143.21 40.925 143.267 40.9729C143.324 41.0207 143.39 41.0556 143.462 41.075C143.534 41.0944 143.609 41.0979 143.682 41.0852C147.477 41.0852 151.257 41.0852 155.052 41.0852H159.927H164.817C168.612 41.0102 172.422 40.9202 176.217 40.8752C176.291 40.8772 176.365 40.8643 176.434 40.8373C176.503 40.8103 176.566 40.7697 176.619 40.718C176.673 40.6663 176.715 40.6044 176.744 40.5361C176.772 40.4677 176.787 40.3943 176.787 40.3202C176.787 40.1701 176.73 40.0256 176.627 39.9168C176.523 39.8079 176.382 39.7429 176.232 39.7352H175.482C175.482 39.7352 175.482 39.6302 175.482 39.5702C175.61 38.7149 175.61 37.8454 175.482 36.9902C175.378 36.4948 175.114 36.0472 174.732 35.7152C174.519 35.5288 174.269 35.3907 173.997 35.3102C173.873 35.2945 173.747 35.2945 173.622 35.3102C173.727 34.5002 173.862 33.7202 173.952 32.9102C173.952 32.5352 174.042 32.1602 174.057 31.7852C174.072 31.4102 174.057 31.0502 174.057 30.6752C174.057 29.9852 173.937 29.3252 173.847 28.6652H174.222C174.623 28.5476 174.982 28.3187 175.257 28.0052C175.607 27.5203 175.819 26.9504 175.872 26.3552C175.908 25.7741 175.883 25.191 175.797 24.6152C175.992 24.6152 176.202 24.6152 176.397 24.6152C176.472 24.6096 176.544 24.5891 176.61 24.5548C176.677 24.5206 176.735 24.4734 176.783 24.416C176.83 24.3586 176.866 24.2922 176.887 24.2207C176.909 24.1493 176.915 24.0743 176.907 24.0002C176.934 23.915 176.94 23.8247 176.924 23.7369C176.908 23.6491 176.872 23.5664 176.817 23.4957C176.763 23.4251 176.692 23.3686 176.611 23.3311C176.53 23.2936 176.441 23.2761 176.352 23.2802ZM163.047 24.7802C163.043 25.0915 163.018 25.4022 162.972 25.7102C162.929 26.0937 162.76 26.4522 162.492 26.7302C162.387 26.8352 162.222 26.7302 162.057 26.8202C161.608 26.8591 161.156 26.8591 160.707 26.8202C160.156 26.8328 159.604 26.8027 159.057 26.7302C158.78 26.7098 158.509 26.6332 158.262 26.5052C157.82 26.0327 157.568 25.4125 157.557 24.7652C159.057 24.7652 160.557 24.7652 162.057 24.7652L163.047 24.7802ZM161.232 32.7602C161.307 33.5552 161.457 34.2602 161.562 35.1002H161.337C160.722 35.1002 159.912 35.1002 159.117 35.1002C159.117 35.1002 159.117 35.0102 159.117 34.9652C159.117 34.1102 159.252 33.2702 159.297 32.4152C159.297 32.0552 159.297 31.6952 159.297 31.3352C159.297 30.9752 159.297 30.6152 159.297 30.2552C159.297 29.8952 159.147 29.1302 159.057 28.5752C159.592 28.6741 160.134 28.7293 160.677 28.7402H161.352C161.262 29.4002 161.157 30.0452 161.127 30.7052C161.105 31.0598 161.105 31.4155 161.127 31.7702C161.142 32.0552 161.187 32.4152 161.232 32.7602ZM151.182 24.6452H151.497C151.496 24.9921 151.466 25.3383 151.407 25.6802C151.364 26.0637 151.195 26.4222 150.927 26.7002C150.822 26.8052 150.657 26.7002 150.492 26.7902C150.048 26.8291 149.601 26.8291 149.157 26.7902C148.601 26.8032 148.044 26.7731 147.492 26.7002C147.207 26.6747 146.931 26.5877 146.682 26.4452C146.234 25.9886 145.981 25.3752 145.977 24.7352C147.702 24.6902 149.427 24.6452 151.182 24.6452ZM147.447 30.2102C147.447 29.6252 147.297 29.0552 147.207 28.4852C147.828 28.6197 148.462 28.6851 149.097 28.6802H150.282C150.177 29.3102 150.057 29.9552 149.997 30.6002C149.975 31.0048 149.975 31.4105 149.997 31.8152C149.997 32.2202 149.997 32.6252 149.997 33.0302C149.997 33.7502 150.147 34.5302 150.222 35.1602H149.922C149.044 35.0925 148.161 35.0925 147.282 35.1602C147.282 34.3202 147.402 33.4952 147.447 32.6552C147.447 32.2652 147.447 31.8752 147.447 31.4702C147.447 31.0652 147.477 30.6002 147.447 30.2102ZM146.112 39.6452C146.077 39.1458 146.077 38.6445 146.112 38.1452C146.14 37.7707 146.293 37.4165 146.547 37.1402C146.787 36.9152 147.132 36.9602 147.522 36.9302C148.317 36.9302 149.217 36.9302 149.877 37.0052H150.957C151.177 37.1653 151.332 37.3998 151.392 37.6652C151.508 38.2943 151.578 38.931 151.602 39.5702C149.742 39.6902 147.882 39.7952 146.037 39.9602C146.093 39.8649 146.119 39.7553 146.112 39.6452ZM155.007 39.2852C154.257 39.2852 153.507 39.4052 152.757 39.4502C152.87 38.6139 152.87 37.7664 152.757 36.9302C152.653 36.4348 152.389 35.9872 152.007 35.6552C151.858 35.535 151.691 35.4389 151.512 35.3702C151.632 34.5752 151.752 33.8702 151.812 32.9852C151.812 32.5802 151.812 32.1752 151.812 31.7702C151.812 31.3652 151.812 30.9602 151.812 30.5552C151.812 29.7752 151.602 29.0552 151.482 28.2452C151.721 28.1518 151.94 28.0144 152.127 27.8402C152.477 27.3553 152.689 26.7854 152.742 26.1902C152.786 25.6911 152.786 25.1892 152.742 24.6902H156.432C156.336 25.2158 156.354 25.7561 156.486 26.2739C156.618 26.7917 156.861 27.2749 157.197 27.6902C157.401 27.8501 157.629 27.9767 157.872 28.0652C157.69 28.7748 157.56 29.4967 157.482 30.2252C157.452 30.5946 157.452 30.9658 157.482 31.3352C157.5 31.7122 157.54 32.0879 157.602 32.4602C157.722 33.3232 157.888 34.1794 158.097 35.0252C158.097 35.0252 158.097 35.1302 158.097 35.1902C157.564 35.2975 157.082 35.5832 156.732 36.0002C156.393 36.4951 156.21 37.0803 156.207 37.6802C156.219 38.1866 156.289 38.69 156.417 39.1802L155.007 39.2852ZM157.512 39.2852C157.49 38.9055 157.49 38.5248 157.512 38.1452C157.534 37.7692 157.688 37.4131 157.947 37.1402C158.187 36.9152 158.532 36.9602 158.922 36.9302C159.717 36.9302 160.617 36.9302 161.277 37.0052H162.357C162.577 37.1653 162.732 37.3998 162.792 37.6652C162.902 38.1933 162.963 38.7307 162.972 39.2702C161.952 39.2702 160.932 39.2702 159.972 39.2702L157.512 39.2852ZM164.172 39.2852C164.284 38.5192 164.284 37.7411 164.172 36.9752C164.068 36.4798 163.804 36.0322 163.422 35.7002C163.225 35.5192 162.989 35.3858 162.732 35.3102C162.837 34.4702 162.972 33.6302 163.032 32.7752C163.032 32.4152 163.032 32.0552 163.032 31.6952C163.032 31.3352 163.032 30.9752 162.942 30.6152C162.837 29.9252 162.657 29.2652 162.492 28.5902H162.657C163.064 28.4767 163.429 28.2474 163.707 27.9302C164.058 27.4474 164.266 26.8756 164.307 26.2802C164.356 25.7814 164.356 25.279 164.307 24.7802H168.027C167.91 25.6421 168.084 26.5186 168.522 27.2702C168.356 28.1427 168.24 29.0242 168.177 29.9102C168.177 30.3302 168.177 30.7502 168.177 31.1702C168.177 31.5902 168.177 31.9952 168.267 32.4152C168.372 33.3902 168.537 34.3352 168.642 35.3102C168.642 35.3852 168.642 35.4302 168.732 35.5052C168.505 35.6336 168.305 35.8071 168.147 36.0152C167.808 36.5101 167.625 37.0953 167.622 37.6952C167.633 38.2569 167.709 38.8156 167.847 39.3602L164.847 39.2402L164.172 39.2852ZM174.192 37.6652C174.308 38.2994 174.378 38.941 174.402 39.5852C174.402 39.5852 174.402 39.5852 174.402 39.6902L168.852 39.4502C168.823 39.0157 168.823 38.5797 168.852 38.1452C168.874 37.7692 169.028 37.4131 169.287 37.1402C169.527 36.9152 169.872 36.9602 170.262 36.9302C171.057 36.9302 171.957 36.9302 172.617 37.0052H173.697C173.931 37.1436 174.107 37.3621 174.192 37.6202V37.6652ZM172.182 32.7452C172.182 33.5252 172.332 34.2452 172.437 35.0552C171.545 34.958 170.645 34.958 169.752 35.0552C169.857 34.1552 169.962 33.2552 170.022 32.3402C170.022 31.9202 170.022 31.5002 170.022 31.0952C170.022 30.6902 170.022 30.2552 169.947 29.8502C169.872 29.4452 169.782 28.7102 169.677 28.1552C169.842 28.2674 170.018 28.3629 170.202 28.4402C170.867 28.5888 171.546 28.6592 172.227 28.6502H172.617C172.482 29.2352 172.332 29.8352 172.227 30.4502C172.227 30.8302 172.197 31.2052 172.137 31.5752C172.182 31.9802 172.182 32.3552 172.182 32.7452ZM174.552 25.6802C174.495 26.0597 174.328 26.4143 174.072 26.7002C173.967 26.8052 173.787 26.7002 173.622 26.7902C173.178 26.8291 172.731 26.8291 172.287 26.7902C171.75 26.7897 171.214 26.7496 170.682 26.6702C170.409 26.6498 170.144 26.5732 169.902 26.4452C169.679 26.2285 169.5 25.97 169.377 25.6843C169.253 25.3986 169.187 25.0914 169.182 24.7802H170.682C172.002 24.7802 173.322 24.6302 174.642 24.5102C174.652 24.9011 174.632 25.2922 174.582 25.6802H174.552Z" fill="#0C0128"/>
</g>
<defs>
<linearGradient id="paint0_linear_1208_9085" x1="16.9597" y1="12.9486" x2="21.5241" y2="15.5839" gradientUnits="userSpaceOnUse">
<stop stop-color="#6C56F9" stop-opacity="0"/>
<stop offset="0.0193" stop-color="#6A54F4" stop-opacity="0.02"/>
<stop offset="0.0926" stop-color="#6550E9" stop-opacity="0.096"/>
<stop offset="0.1958" stop-color="#624EE2" stop-opacity="0.2029"/>
<stop offset="0.4824" stop-color="#614DE0" stop-opacity="0.5"/>
<stop offset="0.9484" stop-color="#5746CA" stop-opacity="0.9502"/>
<stop offset="1" stop-color="#5645C7"/>
</linearGradient>
<linearGradient id="paint1_linear_1208_9085" x1="129.051" y1="30.6991" x2="23.2952" y2="30.6991" gradientUnits="userSpaceOnUse">
<stop stop-color="#E3E0FF"/>
<stop offset="1" stop-color="#6C56F9"/>
</linearGradient>
<linearGradient id="paint2_linear_1208_9085" x1="129.05" y1="30.6991" x2="23.2954" y2="30.6991" gradientUnits="userSpaceOnUse">
<stop stop-color="#E3E0FF"/>
<stop offset="1" stop-color="#6C56F9"/>
</linearGradient>
<linearGradient id="paint3_linear_1208_9085" x1="129.051" y1="30.6991" x2="23.2952" y2="30.6991" gradientUnits="userSpaceOnUse">
<stop stop-color="#E3E0FF"/>
<stop offset="1" stop-color="#6C56F9"/>
</linearGradient>
<linearGradient id="paint4_linear_1208_9085" x1="129.051" y1="30.6991" x2="23.2947" y2="30.6991" gradientUnits="userSpaceOnUse">
<stop stop-color="#E3E0FF"/>
<stop offset="1" stop-color="#6C56F9"/>
</linearGradient>
<linearGradient id="paint5_linear_1208_9085" x1="129.051" y1="30.6991" x2="23.2948" y2="30.6991" gradientUnits="userSpaceOnUse">
<stop stop-color="#E3E0FF"/>
<stop offset="1" stop-color="#6C56F9"/>
</linearGradient>
<linearGradient id="paint6_linear_1208_9085" x1="129.051" y1="30.6991" x2="23.2946" y2="30.6991" gradientUnits="userSpaceOnUse">
<stop stop-color="#E3E0FF"/>
<stop offset="1" stop-color="#6C56F9"/>
</linearGradient>
<linearGradient id="paint7_linear_1208_9085" x1="129.051" y1="30.6991" x2="23.2952" y2="30.6991" gradientUnits="userSpaceOnUse">
<stop stop-color="#E3E0FF"/>
<stop offset="1" stop-color="#6C56F9"/>
</linearGradient>
<linearGradient id="paint8_linear_1208_9085" x1="129.05" y1="30.6991" x2="23.2949" y2="30.6991" gradientUnits="userSpaceOnUse">
<stop stop-color="#E3E0FF"/>
<stop offset="1" stop-color="#6C56F9"/>
</linearGradient>
<linearGradient id="paint9_linear_1208_9085" x1="61.6313" y1="17.3134" x2="167.387" y2="17.3134" gradientUnits="userSpaceOnUse">
<stop stop-color="#E3E0FF"/>
<stop offset="1" stop-color="#6C56F9"/>
</linearGradient>
<linearGradient id="paint10_linear_1208_9085" x1="61.6318" y1="17.3134" x2="167.387" y2="17.3134" gradientUnits="userSpaceOnUse">
<stop stop-color="#E3E0FF"/>
<stop offset="1" stop-color="#6C56F9"/>
</linearGradient>
<linearGradient id="paint11_linear_1208_9085" x1="61.6313" y1="17.3134" x2="167.387" y2="17.3134" gradientUnits="userSpaceOnUse">
<stop stop-color="#E3E0FF"/>
<stop offset="1" stop-color="#6C56F9"/>
</linearGradient>
<linearGradient id="paint12_linear_1208_9085" x1="61.6316" y1="17.3134" x2="167.388" y2="17.3134" gradientUnits="userSpaceOnUse">
<stop stop-color="#E3E0FF"/>
<stop offset="1" stop-color="#6C56F9"/>
</linearGradient>
<linearGradient id="paint13_linear_1208_9085" x1="61.6316" y1="17.3134" x2="167.387" y2="17.3134" gradientUnits="userSpaceOnUse">
<stop stop-color="#E3E0FF"/>
<stop offset="1" stop-color="#6C56F9"/>
</linearGradient>
<linearGradient id="paint14_linear_1208_9085" x1="61.6317" y1="17.3134" x2="167.388" y2="17.3134" gradientUnits="userSpaceOnUse">
<stop stop-color="#E3E0FF"/>
<stop offset="1" stop-color="#6C56F9"/>
</linearGradient>
<linearGradient id="paint15_linear_1208_9085" x1="61.6311" y1="17.3134" x2="167.387" y2="17.3134" gradientUnits="userSpaceOnUse">
<stop stop-color="#E3E0FF"/>
<stop offset="1" stop-color="#6C56F9"/>
</linearGradient>
<linearGradient id="paint16_linear_1208_9085" x1="61.6323" y1="17.3134" x2="167.387" y2="17.3134" gradientUnits="userSpaceOnUse">
<stop stop-color="#E3E0FF"/>
<stop offset="1" stop-color="#6C56F9"/>
</linearGradient>
<linearGradient id="paint17_linear_1208_9085" x1="61.6316" y1="17.3134" x2="167.388" y2="17.3134" gradientUnits="userSpaceOnUse">
<stop stop-color="#E3E0FF"/>
<stop offset="1" stop-color="#6C56F9"/>
</linearGradient>
<clipPath id="clip0_1208_9085">
<rect width="36" height="36" fill="white" transform="translate(142.182 6)"/>
</clipPath>
</defs>
</svg>
