<svg width="327" height="110" viewBox="0 0 327 110" fill="none" xmlns="http://www.w3.org/2000/svg">
<path d="M42.5355 25.2605L40.7703 20.55H38.2369L41.3687 28.1261H43.7178L46.619 20.55H44.1627L42.5355 25.2605Z" fill="#0C0128"/>
<path d="M51.5633 24.6049L49.7055 20.55H47.0968L50.3048 27.1043L48.5695 31.0371H51.0257L55.723 20.55H53.2523L51.5633 24.6049Z" fill="#0C0128"/>
<path d="M60.7363 20.3516C60.3161 20.3516 59.9052 20.4457 59.5005 20.6339C59.0968 20.8221 58.7971 21.0837 58.6024 21.4188V20.5501H56.346V28.1261H58.6787V23.7818C58.6787 23.396 58.794 23.0786 59.0237 22.8293C59.2544 22.5801 59.5592 22.456 59.9372 22.456C60.346 22.456 60.656 22.5749 60.8661 22.8138C61.0762 23.0527 61.1812 23.3702 61.1812 23.7662V28.1261H63.5139V23.3702C63.5139 22.486 63.278 21.7621 62.8074 21.1985C62.3378 20.6339 61.6467 20.3516 60.7363 20.3516Z" fill="#0C0128"/>
<path d="M72 24.2088C72 22.9896 71.6591 22.0361 70.9794 21.3505C70.2986 20.6649 69.3645 20.3215 68.1781 20.3215C67.1442 20.3215 66.2513 20.6928 65.4995 21.4343C64.7477 22.1768 64.3707 23.1364 64.3707 24.3153C64.3707 25.5449 64.7569 26.5253 65.5293 27.2574C66.3017 27.9885 67.241 28.3546 68.346 28.3546C69.2667 28.3546 70.034 28.1282 70.6488 27.6762C71.2626 27.2243 71.6673 26.6473 71.8609 25.9461L69.9114 25.397C69.6756 26.0578 69.1648 26.3877 68.3769 26.3877C67.9166 26.3877 67.517 26.2481 67.1802 25.9689C66.8424 25.6897 66.6632 25.3412 66.6426 24.9244H71.9536C71.9835 24.8334 72 24.5945 72 24.2088ZM66.6879 23.4312C66.7188 23.1064 66.8671 22.8117 67.1328 22.547C67.3985 22.2833 67.7569 22.1509 68.208 22.1509C68.7096 22.1509 69.0855 22.2781 69.3357 22.5315C69.586 22.7859 69.7219 23.0858 69.7425 23.4312H66.6879Z" fill="#0C0128"/>
<path d="M36.3584 12H30.448C28.6519 12 26.9722 12.9669 26.0628 14.5243L25.7343 15.1013C24.9619 13.2802 23.1607 12 21.068 12C18.2739 12 16 14.2834 16 17.0889C16 18.0238 16.2533 18.8997 16.6931 19.6536L16.688 19.6567L22.7673 30.2565C23.38 31.332 24.5273 32 25.76 32C27.0247 32 28.1833 31.3082 28.7889 30.1934L37.8239 14.484L37.8507 14.4343C37.9681 14.2017 38.0299 13.94 38.0299 13.6784C38.0299 12.7528 37.2801 12 36.3584 12ZM18 17.0889C18 15.3899 19.3769 14.0072 21.069 14.0072C22.7611 14.0072 24.138 15.3899 24.138 17.0889C24.138 17.6101 24.0082 18.1024 23.7796 18.5326L23.7044 18.6649H23.7055C23.1689 19.5657 22.1885 20.1696 21.07 20.1696C19.3759 20.1706 18 18.789 18 17.0889ZM27.0505 29.2017L27.036 29.2275C26.7827 29.7001 26.2935 29.9928 25.76 29.9928C25.242 29.9928 24.76 29.7115 24.5005 29.2575L20.4161 22.1355C20.6292 22.1634 20.8465 22.1789 21.068 22.1789C22.9279 22.1789 24.5561 21.1665 25.4377 19.6629L25.4634 19.6184C25.4851 19.5812 25.5067 19.545 25.5273 19.5067L27.7899 15.5346C28.3419 14.5926 29.3594 14.0072 30.447 14.0072H35.7878L27.0505 29.2017Z" fill="#0C0128"/>
<path d="M30.1667 61.5H21.8334C20.9125 61.5 20.1667 60.7542 20.1667 59.8333V53.1667C20.1667 52.2458 20.9125 51.5 21.8334 51.5H30.1667C31.0875 51.5 31.8334 52.2458 31.8334 53.1667V59.8333C31.8334 60.7542 31.0875 61.5 30.1667 61.5Z" stroke="#0C0128" stroke-width="1.22125" stroke-linecap="round" stroke-linejoin="round"/>
<path d="M29.3334 51.5V49.8333C29.3334 47.9925 27.8409 46.5 26 46.5C24.1592 46.5 22.6667 47.9925 22.6667 49.8333V51.5" stroke="#0C0128" stroke-width="1.16925" stroke-linecap="round" stroke-linejoin="round"/>
<path d="M25.9983 56.0833C25.7683 56.0833 25.5817 56.2699 25.5833 56.4999C25.5833 56.7299 25.77 56.9166 26 56.9166C26.23 56.9166 26.4167 56.7299 26.4167 56.4999C26.4167 56.2699 26.23 56.0833 25.9983 56.0833Z" fill="#0C0128" stroke="#0C0128" stroke-width="1.25" stroke-linecap="round" stroke-linejoin="round"/>
<path d="M41.316 48.354V58H42.632V54.388H45.166C47.21 54.388 48.036 52.89 48.036 51.378C48.036 49.866 47.21 48.354 45.166 48.354H41.316ZM45.152 49.572C46.272 49.572 46.734 50.496 46.734 51.378C46.734 52.274 46.258 53.17 45.082 53.17H42.632V49.572H45.152ZM54.4881 58H55.7481V51.462H54.4881V52.442C54.0401 51.7 53.1021 51.322 52.1921 51.322C50.4001 51.322 48.8741 52.638 48.8741 54.724C48.8741 56.796 50.4001 58.14 52.1921 58.14C53.1021 58.14 54.0541 57.72 54.4881 56.992V58ZM54.4741 54.71C54.4741 56.096 53.4661 56.894 52.3041 56.894C51.1281 56.894 50.1761 55.998 50.1761 54.71C50.1761 53.422 51.1281 52.568 52.3041 52.568C53.3681 52.568 54.4741 53.31 54.4741 54.71ZM59.6444 61.178L63.7044 51.462H62.3464L60.3864 56.194L58.4264 51.462H57.0684L59.6864 57.804L58.3144 61.178H59.6444ZM75.5647 58L77.9867 51.462H76.6287L74.9907 56.04L73.3527 51.462H72.1207L70.4827 56.04L68.8447 51.462H67.4867L69.9787 58H71.0147L72.7367 53.198L74.5147 58H75.5647ZM80.6053 51.462H79.3453V58H80.6053V51.462ZM79.0933 49.054C79.0933 49.544 79.4853 49.88 79.9753 49.88C80.4653 49.88 80.8573 49.544 80.8573 49.054C80.8573 48.564 80.4653 48.228 79.9753 48.228C79.4853 48.228 79.0933 48.564 79.0933 49.054ZM84.4999 51.462V48.998H83.2259V51.462H82.0499V52.54H83.2259V58H84.4999V52.54H85.8859V51.462H84.4999ZM88.6036 54.472C88.6036 53.072 89.6956 52.568 90.5916 52.568C91.4876 52.568 92.1316 53.226 92.1316 54.304V58H93.4056V54.22C93.4196 52.372 92.3976 51.322 90.7596 51.322C90.0596 51.322 88.9816 51.658 88.6036 52.442V47.906H87.3296V58H88.6036V54.472ZM100.361 56.992C100.795 57.72 101.733 58.14 102.643 58.14C104.435 58.14 105.961 56.796 105.961 54.724C105.961 52.638 104.463 51.322 102.657 51.322C101.705 51.322 100.795 51.7 100.361 52.442V47.906H99.0874V58H100.361V56.992ZM100.375 54.71C100.375 53.31 101.481 52.568 102.545 52.568C103.721 52.568 104.659 53.422 104.659 54.71C104.659 55.998 103.721 56.894 102.545 56.894C101.383 56.894 100.375 56.096 100.375 54.71ZM112.84 58H114.1V51.462H112.84V52.442C112.392 51.7 111.454 51.322 110.544 51.322C108.752 51.322 107.226 52.638 107.226 54.724C107.226 56.796 108.752 58.14 110.544 58.14C111.454 58.14 112.406 57.72 112.84 56.992V58ZM112.826 54.71C112.826 56.096 111.818 56.894 110.656 56.894C109.48 56.894 108.528 55.998 108.528 54.71C108.528 53.422 109.48 52.568 110.656 52.568C111.72 52.568 112.826 53.31 112.826 54.71ZM117.506 54.472C117.506 53.086 118.43 52.568 119.354 52.568C120.25 52.568 120.796 53.198 120.796 54.304V58H122.07V54.22C122.07 52.372 121.188 51.322 119.55 51.322C118.836 51.322 117.884 51.658 117.506 52.442V51.462H116.232V58H117.506V54.472ZM125.381 54.808L128.363 58H130.043L126.571 54.29L129.371 51.462H127.635L125.381 53.744V47.906H124.121V58H125.381V54.808Z" fill="#0C0128"/>
<path d="M145 61.5C149.142 61.5 152.5 58.1421 152.5 54C152.5 49.8579 149.142 46.5 145 46.5C140.858 46.5 137.5 49.8579 137.5 54C137.5 58.1421 140.858 61.5 145 61.5Z" stroke="#0C0128" stroke-linecap="round" stroke-linejoin="round"/>
<path d="M144.167 56.9167H146.092" stroke="#0C0128" stroke-linecap="round" stroke-linejoin="round"/>
<path d="M145.132 56.9167V53.375H144.174" stroke="#0C0128" stroke-linecap="round" stroke-linejoin="round"/>
<path d="M145.083 50.8729C145.083 50.9879 144.99 51.0812 144.875 51.0812C144.76 51.0812 144.667 50.9879 144.667 50.8729C144.667 50.7578 144.76 50.6646 144.875 50.6646" stroke="#0C0128" stroke-linecap="round" stroke-linejoin="round"/>
<path d="M144.875 50.6646V50.6646C144.99 50.6646 145.083 50.7578 145.083 50.8729" stroke="#0C0128" stroke-linecap="round" stroke-linejoin="round"/>
<path fill-rule="evenodd" clip-rule="evenodd" d="M34.0228 82.6979C33.8539 82.3054 33.5735 81.8566 33.0684 81.5198C32.8442 81.3515 32.5637 81.1831 32.2828 81.071C32.0587 81.0152 31.834 80.9585 31.5536 80.9585H31.4977C31.1605 80.9585 30.5438 81.0147 30.2071 81.5198C30.0387 81.6882 29.9824 82.0249 30.0387 82.3054C30.095 82.53 30.2634 82.7542 30.488 82.8105C30.488 82.8105 30.5438 82.8663 30.6559 82.8663C30.6559 82.9226 30.6001 83.0347 30.6001 83.0347C30.4317 83.2026 30.1508 83.4835 29.3094 83.4835H29.2532C28.8043 83.4277 28.4681 83.3156 27.963 82.81C27.6825 82.4737 27.5141 81.8566 27.5141 80.9026C27.5141 80.398 27.4579 80.005 27.3458 79.6683C27.2895 79.4436 27.0653 79.2194 26.897 79.1073C26.7286 78.9948 26.6165 78.939 26.3356 78.8269C25.9989 78.7706 25.6621 78.7144 25.3817 78.7144C25.0454 78.7144 24.8208 78.7706 24.7087 78.939H24.372L23.811 78.9948C23.4743 79.0511 23.2501 79.2194 23.025 79.3874C22.9692 79.4436 22.745 79.6683 22.6887 79.8925C22.6887 80.0608 22.7446 80.2292 22.7446 80.2855L22.8008 80.3413C22.9129 80.2292 23.1376 80.1729 23.418 80.1729C23.8106 80.1729 24.3715 80.3413 24.484 80.6217C24.7645 81.071 24.6519 81.4073 24.6519 81.8003C24.484 82.8663 24.091 83.3714 23.2497 83.4835C23.0813 83.5398 22.9129 83.5398 22.8004 83.5398C22.1837 83.5398 21.7344 83.3714 21.5102 82.9784V82.8663C21.5102 82.8663 21.566 82.8663 21.6223 82.81C21.8465 82.6979 22.0148 82.5296 22.0711 82.3049C22.1269 82.0245 22.0711 81.744 21.9032 81.5194C21.5665 81.1831 21.1172 80.9585 20.6126 80.9585C20.2758 80.9585 20.0512 81.0147 19.827 81.0706C19.1535 81.2389 18.5364 81.7998 18.0875 82.6979C17.7513 83.3714 17.5266 84.1565 17.4708 85.0541C17.4145 85.9522 17.4145 86.6815 17.4708 87.355C17.5266 88.4768 17.7513 89.1503 18.0317 89.8795C18.3122 90.6088 18.6489 91.2823 19.0414 91.8995C19.1535 92.0678 19.2098 92.2358 19.3219 92.3483L19.3782 92.2925C19.434 92.2362 19.4903 92.1799 19.5461 92.0678C19.7707 91.8995 20.1633 91.3386 20.2754 91.1702C20.3879 91.0018 20.5563 90.7214 20.6684 90.4409L20.7242 90.3288L20.8367 90.3846C20.9488 90.4972 21.0051 90.6651 21.0051 90.8335C21.0051 91.0018 20.9488 91.1702 20.8367 91.5069C20.7242 91.8995 20.4996 92.3487 20.2754 92.7971C20.3316 92.8534 20.3316 92.9659 20.2754 92.9659C20.1075 93.2459 20.1075 93.3585 20.1075 93.4706H20.1633C20.2191 93.4706 20.4437 93.4147 20.6121 93.2459C20.78 93.1338 21.2293 92.7413 21.7902 91.9557C22.239 91.3944 22.5199 90.7776 22.8567 90.1042L22.9125 89.9921L23.0246 90.0479L23.1929 90.16C23.2492 90.2721 23.2492 90.4405 23.2492 90.6088C23.1929 91.0576 22.9125 91.6753 22.7437 92.1241C22.4074 92.9097 21.7902 93.7515 21.3414 94.3682C21.3414 94.4245 21.2288 94.5366 21.173 94.5366C21.2288 94.5929 21.2856 94.6487 21.3976 94.7049L21.5656 94.8729C22.1832 95.3784 22.7437 95.771 23.4734 96.164C24.0348 96.5002 25.1566 97.0611 25.9421 97.2858C26.7277 97.1174 27.8495 96.5002 28.4109 96.164C29.1406 95.771 29.7011 95.3784 30.3187 94.8729L30.4866 94.7049L30.7113 94.5366C30.7676 94.4245 30.7676 94.3682 30.7676 94.3124L30.7113 94.2561C30.2625 93.6948 29.6453 92.7971 29.3085 92.0116C29.1406 91.5632 28.8597 90.9456 28.8034 90.4972C28.7476 90.3288 28.8034 90.16 28.8597 90.0479L28.9718 89.9358C29.0276 89.8795 29.1402 89.8795 29.1402 89.8795L29.196 89.9921C29.5327 90.6655 29.8695 91.2823 30.262 91.8432C30.8234 92.6292 31.2722 93.0218 31.4406 93.1338C31.6089 93.3022 31.7773 93.3585 31.8894 93.3585H31.9456C32.0015 93.3022 31.9457 93.1901 31.7773 92.9092C31.721 92.8534 31.721 92.7971 31.721 92.7413C31.4968 92.2925 31.2722 91.8436 31.1601 91.4506C31.0476 91.1139 30.9917 90.8897 30.9917 90.7776C30.9917 90.6088 31.0476 90.4405 31.1601 90.3284L31.2722 90.2721L31.328 90.3846C31.4406 90.6651 31.6647 91.0018 31.7773 91.1702L32.4503 92.0116C32.5628 92.1241 32.6187 92.1799 32.6187 92.2362L32.6749 92.2925C32.7308 92.2362 32.787 92.1241 32.8991 91.8995L32.9554 91.8436C33.2921 91.2823 33.6284 90.553 33.9089 89.8237C34.1898 89.1503 34.3581 88.421 34.4702 87.2987C34.5265 86.6257 34.5823 85.8964 34.4702 84.9988C34.5274 84.1569 34.3028 83.3156 34.0228 82.6979Z" fill="#00AEEF"/>
<path d="M62.6224 88.7148C62.8791 88.9038 63.1358 89.0388 63.1358 89.3224C63.1358 89.4034 63.0277 89.4982 62.7846 89.4982C62.5955 89.4982 62.3929 89.4441 62.2983 89.3091C62.2174 89.2146 62.3255 89.0795 62.2714 88.9715C62.2174 88.8905 62.1093 88.931 62.0283 88.8905C61.9338 88.8364 61.9338 88.7959 61.8664 88.6743C61.7987 88.5257 61.5692 88.2692 61.2992 87.9992C61.0696 87.7696 60.8265 87.648 60.7184 87.6616C60.6374 87.6751 60.6103 87.6751 60.5429 87.6751C60.3538 87.6751 60.1781 87.8642 59.9081 87.9723C59.719 88.0532 59.6109 88.1073 59.4759 88.1207L59.4354 88.1747L59.6921 88.1611C59.9216 88.1611 60.2457 88.1207 60.4753 88.1207C60.7184 88.1207 60.8399 88.3366 60.9344 88.5664C61.1234 89.0255 61.3937 89.7006 61.7311 90.2544C61.8933 90.5109 62.0283 90.6866 62.0283 91.0107C62.0283 91.1052 62.0147 91.2402 61.8797 91.2402C61.6906 91.2402 61.218 91.0512 61.218 90.835C61.218 90.673 61.3396 90.6054 61.3396 90.4435C61.3396 90.349 61.1911 90.3623 61.1506 90.2678C61.0289 89.7682 60.8939 89.282 60.6103 88.985C60.4617 88.8364 60.4484 88.7688 60.3133 88.7688C60.2322 88.7688 60.1648 88.7824 60.0971 88.8095C59.7057 88.9579 59.1925 89.3765 58.5577 89.5791C58.3146 89.6601 58.2741 89.5117 58.0174 89.5656H58.031C57.8286 89.6063 57.6664 89.7277 57.3964 89.7951C57.0047 89.9032 56.343 89.9573 55.8162 89.8896C55.4381 89.8358 54.9519 89.7682 54.7359 89.7682C54.574 90.2273 54.2363 90.835 53.7232 91.0781C53.4531 91.1998 53.3719 91.3617 53.4531 91.6722C53.5474 92.0506 53.8851 92.3342 54.0606 92.6447C54.2227 92.9283 54.4792 93.3604 54.7628 93.509C55.0466 93.6576 55.2086 93.86 55.2086 94.0355C55.2086 94.1167 55.1681 94.1706 55.0869 94.1706H54.5333C54.4523 94.1706 54.4118 94.1167 54.3847 94.0896C54.3037 93.941 54.3578 93.806 54.2632 93.6845C54.1823 93.59 54.1282 93.6169 54.0337 93.5359C53.8715 93.374 53.993 93.2795 53.8715 93.0768C53.5203 92.523 53.3719 92.388 53.0748 91.9965C52.9128 91.7803 52.7102 91.6858 52.7102 91.4022C52.7102 91.0647 53.0479 91.0107 53.0343 90.673C52.8183 90.835 52.5616 90.9566 52.1699 91.0107C52.1161 91.0243 51.9809 91.1186 51.927 91.1862C51.792 91.3212 51.738 91.4562 51.7244 91.6589C51.6839 92.118 51.5894 92.5771 51.6434 93.0364C51.7244 93.3333 51.7649 93.4279 52.008 93.59C52.1566 93.6845 52.3321 93.8331 52.3592 94.0491C52.3592 94.1032 52.3456 94.1708 52.2647 94.1708H51.6704C51.6163 94.1708 51.5623 94.1303 51.5489 94.0898C51.4813 93.9681 51.5218 93.8872 51.4948 93.7522C51.4408 93.4686 51.1303 93.4955 51.1303 93.2119C51.1303 93.1309 51.1843 93.0228 51.1843 92.8473C51.1977 92.4558 51.3193 91.8346 51.1977 91.0783C51.1436 90.6326 51.6029 90.619 51.8325 90.2409C51.9811 90.0249 51.927 90.1194 52.0216 89.9573C52.1025 89.7953 52.089 89.6737 52.0756 89.5658C52.0756 89.4441 51.9539 89.1741 52.0349 88.6204C52.062 88.3773 52.1835 88.1342 52.3456 87.9182C52.3456 87.9047 52.3456 87.8777 52.2916 87.8777C52.062 87.8911 52.062 87.8373 51.8999 87.8373C51.7513 87.8373 51.6299 87.9587 51.6029 88.0261C51.5218 87.9992 51.4948 87.9047 51.4948 87.8642C51.4948 87.7832 51.5084 87.702 51.5894 87.6211C51.6163 87.5941 51.5894 87.567 51.5489 87.567C51.3598 87.567 51.1843 87.7966 51.1436 87.9587C51.0357 87.9451 51.0222 87.7966 50.9817 87.7966C50.9276 87.7966 50.9007 87.8777 50.9007 87.9452C50.9007 88.4854 51.7784 88.6069 51.7784 89.3091C51.7784 90.133 50.7926 89.9573 50.7926 90.2544C50.7926 90.3085 50.8331 90.3625 50.9141 90.403C50.8872 90.484 50.7926 90.5111 50.6981 90.5111C50.4821 90.5111 50.32 90.349 50.32 90.133C50.32 89.6872 50.9141 89.6737 50.9141 89.3362C50.9141 89.1741 50.8196 89.12 50.725 89.0526C50.158 88.6474 49.8337 88.2423 49.8337 87.5806C49.8337 86.8648 50.3335 86.3112 50.9817 86.3112C51.927 86.3112 51.9539 87.3915 52.8047 87.486C53.1288 87.2701 53.507 87.1348 53.8717 87.1348C54.4254 87.1348 54.6685 87.2834 55.2626 87.2834C55.4922 87.2834 55.8974 87.216 56.3701 86.8919C56.5456 86.7703 56.6266 86.7433 56.7887 86.6083C57.1533 86.2842 57.5043 85.663 57.5043 85.2173V85.2444C57.5043 85.0958 57.4773 85.0148 57.4097 85.0148C57.2073 85.0148 57.0316 85.2037 56.829 85.393C56.7075 85.528 56.8966 85.582 56.613 85.744C56.5185 85.798 56.397 85.7035 56.2889 85.7035C56.0594 85.7035 55.9648 85.4334 55.9648 85.2039C55.9648 85.0822 56.0594 85.0553 56.1134 84.9472C56.2349 84.7177 56.2213 84.6367 56.3294 84.4071C56.397 84.2586 56.5185 84.1505 56.5049 84.0426C56.5049 84.0019 56.478 83.975 56.478 83.9345C56.478 83.7049 56.7751 83.5563 56.7751 83.3268C56.7751 83.2051 56.6266 83.1377 56.5994 83.0432C56.5725 82.9487 56.5861 82.9215 56.5861 82.9215C56.5994 82.908 56.613 82.8946 56.6266 82.8946C56.748 82.8946 56.7885 83.0161 56.9102 83.0837C56.9237 82.9351 56.8695 82.8946 56.8695 82.7865C56.8695 82.7325 56.8561 82.6379 56.9235 82.6379C57.0047 82.6379 56.9911 82.7325 57.0585 82.7865C57.1397 82.8541 57.2207 82.8406 57.3152 82.908C57.4367 82.9891 57.5043 83.1106 57.5448 83.1242C57.6664 83.1375 57.6933 83.0025 57.6393 82.908C57.7743 82.8946 57.9093 83.0025 58.085 83.0025C58.3686 83.0025 58.4496 83.0837 58.5036 83.1242C58.6792 83.2727 58.7196 83.3942 58.9087 83.3942C59.0032 83.3942 59.0573 83.3132 59.0842 83.2727C59.2192 83.3673 59.2328 83.624 59.0842 83.8399C59.1383 84.0154 59.3949 84.029 59.5164 84.1235C59.638 84.2045 59.6109 84.245 59.7055 84.299C59.7731 84.3395 59.8271 84.3262 59.881 84.299C59.935 84.5286 59.7326 84.7448 59.4895 84.7717C59.503 85.0689 59.8135 85.2579 59.9621 85.3389C59.881 85.528 59.7326 85.582 59.5976 85.6225C59.638 85.8116 59.8405 86.0816 59.7459 86.3247C59.6514 86.2842 59.5164 86.3247 59.5164 86.4597C59.5164 86.6083 59.7055 86.6893 59.5028 86.7974C59.4083 86.8512 59.3949 86.9862 59.5569 87.1079C59.7729 87.0539 59.9891 87.0539 60.2322 87.0539C60.3807 87.0539 60.5832 87.0134 60.7184 87.0134C60.9749 87.0134 61.1234 87.1079 61.3125 87.3105C61.7178 87.8235 62.1364 88.3502 62.6224 88.7148Z" fill="black"/>
<path d="M51.1302 85.5045C51.2247 85.5045 51.4138 84.9507 51.7919 84.9507C51.8998 84.9507 51.927 84.9912 51.927 85.0319C51.927 85.1128 51.8053 85.1802 51.8053 85.2748C51.8053 85.2883 51.8189 85.3153 51.846 85.3153C51.9403 85.3153 52.0079 85.1128 52.3861 85.1128C52.4942 85.1128 52.5751 85.1262 52.6697 85.1533C52.7101 85.1669 52.7913 85.2074 52.7642 85.0857C52.6697 84.8292 52.3861 84.5861 51.981 84.5861C51.5757 84.5861 51.1571 84.9507 51.1031 85.3829C51.0895 85.4505 51.0895 85.5045 51.1302 85.5045ZM58.1119 82.0337C58.004 81.9932 57.9904 81.9258 58.0174 81.7908C58.0445 81.6422 58.0445 81.5882 57.9769 81.5746C57.9228 81.5611 57.8418 81.5882 57.7609 81.6692C57.6933 81.7637 57.5852 81.8718 57.5447 81.9663C57.5042 82.088 57.6528 82.0744 57.5583 82.2635C57.3827 82.5876 57.3423 82.6552 57.2611 82.8712C57.1801 83.1007 57.1261 83.1414 57.0856 83.2224C57.0315 83.29 57.1532 83.3033 57.2882 83.2629C57.4368 83.2088 57.4368 83.3845 57.3827 83.4924C57.3421 83.5734 57.3692 83.6141 57.4908 83.5195C57.5987 83.4384 57.4368 83.3709 57.4773 83.1009C57.5178 82.8578 57.5718 82.7228 57.7202 82.4797C57.8418 82.2637 57.9497 82.1149 58.1795 82.1961C58.274 82.2364 58.2335 82.0878 58.1119 82.0337ZM62.798 89.1775C62.8385 89.1775 62.8519 89.1237 62.8519 89.0697C62.8519 88.948 62.7845 88.7725 62.69 88.7051C62.663 88.8806 62.5819 89.0022 62.5819 89.0697C62.5819 89.1371 62.744 89.1775 62.798 89.1775ZM63.8379 87.4895C63.9053 87.4895 63.9999 87.4626 63.9999 87.4085C63.9999 87.314 63.8513 87.1249 63.7163 87.0845C63.8108 87.2735 63.7163 87.4895 63.8379 87.4895ZM59.2194 85.1938C60.1647 85.626 60.1106 86.4363 60.1916 86.2337C60.2321 86.1527 60.3536 85.7612 60.0161 85.3695C59.7594 85.0723 59.6515 85.1399 59.7594 84.8968C60.178 83.8975 60.4347 82.3849 59.1922 81.8449C59.0437 81.7908 58.9358 81.7908 58.9358 81.8177C58.9358 81.8449 59.0708 81.8853 59.2329 81.9932C60.0566 82.5471 59.7999 84.0325 59.0439 84.7483C58.7872 84.9912 58.9086 85.0452 59.2194 85.1938ZM55.9647 92.1757C56.0322 92.1757 55.9917 92.0811 55.9783 92.0271C55.9243 91.9326 55.8162 91.865 55.7216 91.8111C55.7486 91.9056 55.7621 92.1621 55.8567 92.1621H55.9647V92.1757ZM53.1018 92.1757C53.1692 92.1757 53.1154 92.0811 53.0883 92.0271C53.0342 91.9326 52.9128 91.865 52.8182 91.8245C52.8452 91.919 52.8587 92.1757 52.9666 92.1757H53.1018ZM56.5724 86.4768C57.0991 86.4227 57.1801 86.3013 57.2747 85.9096C57.3151 85.7205 57.4502 85.5314 57.5718 85.41C57.6528 85.3288 57.7204 85.2614 57.8014 85.1264C57.8283 85.0723 57.8418 85.0319 57.8014 85.0454C57.7473 85.0859 57.5718 85.2074 57.4908 85.2614C57.1261 85.5179 56.5589 85.6531 56.3293 85.6531C55.8433 85.6531 55.438 85.5045 54.9925 85.5045C53.6826 85.5045 53.1964 86.5308 53.2638 87.1249C53.2773 87.2195 53.2909 87.2195 53.3178 87.2195C53.4126 87.2195 53.4935 86.8685 53.8176 86.5577C54.3036 86.0986 54.8168 85.842 55.5597 85.842C56.0998 85.842 56.316 86.0177 56.316 86.0851C56.316 86.2201 56.0862 86.2337 56.0998 86.3687C56.0998 86.4092 56.2348 86.5173 56.5724 86.4768Z" fill="#747172"/>
<path d="M44 94.3999H59.8947V94.859H44V94.3999Z" fill="#008037"/>
<path d="M72.0498 83H79.9607C80.0718 83.0833 80.1774 83.1667 80.2829 83.2555C77.633 83.2611 74.9831 83.2611 72.3331 83.2555C72.2387 83.1722 72.1442 83.0833 72.0498 83Z" fill="#15569C"/>
<path d="M84.1003 83H91.9501C91.9223 83.1389 91.7223 83.25 91.5834 83.25C88.9835 83.25 86.378 83.25 83.7781 83.25C83.8614 83.1889 84.0225 83.0611 84.1003 83Z" fill="#15569C"/>
<path d="M72.7275 83.5888C75.3219 83.5832 77.9163 83.5888 80.5107 83.5888C80.7107 83.5388 80.8273 83.7443 80.9662 83.8388C78.3163 83.8388 75.6719 83.8499 73.022 83.8388C72.922 83.7554 72.8275 83.6721 72.7275 83.5888Z" fill="#15569C"/>
<path d="M83.1105 83.8442C83.2049 83.7553 83.3049 83.672 83.4049 83.5887C86.0493 83.5831 88.6881 83.5887 91.3269 83.5887C91.2269 83.6775 91.1269 83.7664 91.0214 83.8442C88.3881 83.8386 85.7493 83.8442 83.1105 83.8442Z" fill="#15569C"/>
<path d="M73.3998 84.161C76.0553 84.1666 78.7163 84.1499 81.3718 84.1666C81.4662 84.2499 81.5662 84.3332 81.6607 84.4166C79.0718 84.4166 76.483 84.4166 73.8942 84.4166C73.6831 84.4666 73.5553 84.261 73.3998 84.161Z" fill="#15569C"/>
<path d="M82.4439 84.4167C82.5328 84.3334 82.6272 84.2445 82.7161 84.1612C85.3661 84.1556 88.016 84.1612 90.6659 84.1612C90.5548 84.2556 90.4437 84.3389 90.3215 84.4167C87.6993 84.4167 85.0716 84.4223 82.4439 84.4167Z" fill="#15569C"/>
<path d="M74.0892 84.7444C76.7224 84.7499 79.3557 84.7444 81.989 84.7499C82.1278 84.7944 82.2223 84.9166 82.3445 84.9944C79.7001 84.9944 77.0613 84.9944 74.4169 84.9944C74.3058 84.911 74.2003 84.8333 74.0892 84.7444Z" fill="#15569C"/>
<path d="M82.5333 84.7444C85.0166 84.7444 87.4999 84.7444 89.9831 84.7444C89.8331 84.8333 89.7109 85.0277 89.5109 84.9944C87.2832 84.9888 85.0499 84.9944 82.8222 84.9888C82.7222 84.911 82.6278 84.8333 82.5333 84.7444Z" fill="#15569C"/>
<path d="M74.7832 85.322C77.4165 85.3276 80.0553 85.322 82.6885 85.3276C82.8163 85.3776 82.8996 85.4942 83.0052 85.5776C80.3775 85.5776 77.7442 85.5776 75.1165 85.572C74.9832 85.5276 74.8943 85.3998 74.7832 85.322Z" fill="#15569C"/>
<path d="M83.1882 85.322C85.2271 85.322 87.2659 85.322 89.3047 85.322C89.1936 85.4054 89.0825 85.4887 88.9714 85.572C87.1548 85.5776 85.3382 85.572 83.5216 85.572C83.4049 85.4942 83.2993 85.4109 83.1882 85.322Z" fill="#15569C"/>
<path d="M75.4777 85.9055C78.111 85.9055 80.7498 85.9055 83.3831 85.9055C83.4831 85.9888 83.5831 86.0722 83.6831 86.1555C81.0387 86.1555 78.3999 86.1611 75.7555 86.15C75.6611 86.0666 75.5666 85.9888 75.4777 85.9055Z" fill="#15569C"/>
<path d="M83.9046 85.9001C85.4712 85.9001 87.0378 85.9001 88.61 85.9001C88.4934 85.9835 88.4045 86.1168 88.2656 86.1613C86.9045 86.1557 85.5434 86.1724 84.1824 86.1557C84.0879 86.0668 83.9935 85.9835 83.9046 85.9001Z" fill="#15569C"/>
<path d="M72 86.6944C72.3611 86.6944 72.7222 86.6888 73.0833 86.6944C73.0889 87.0555 73.0833 87.4166 73.0889 87.7777C73.4611 87.7777 73.8333 87.7777 74.2055 87.7777C74.211 87.4166 74.2055 87.0555 74.2111 86.6944C74.5777 86.6888 74.9444 86.6888 75.311 86.6944C75.311 87.7054 75.3166 88.7165 75.311 89.722C74.9444 89.7276 74.5777 89.7276 74.2111 89.722C74.2055 89.3387 74.2166 88.9554 74.2055 88.5721C73.8333 88.5665 73.4611 88.5665 73.0889 88.5721C73.0833 88.9554 73.0889 89.3387 73.0833 89.722C72.7222 89.7276 72.3611 89.722 72 89.722V86.6944Z" fill="#15569C"/>
<path d="M75.4224 89.7443C75.8724 88.7277 76.3168 87.711 76.7723 86.7C77.1168 86.7 77.4668 86.7 77.8112 86.7C78.2778 87.7055 78.7112 88.7277 79.1667 89.7443C78.8 89.7443 78.4334 89.7443 78.0667 89.7443C77.989 89.5776 77.9223 89.411 77.8445 89.2388C77.4779 89.2332 77.1056 89.2332 76.739 89.2388C76.6612 89.4054 76.5946 89.5776 76.5168 89.7443C76.1557 89.7443 75.789 89.7443 75.4224 89.7443ZM77.0501 88.5832C77.2168 88.5832 77.3779 88.5832 77.539 88.5832C77.4612 88.3943 77.3834 88.2055 77.3001 88.0166C77.1945 88.1944 77.1279 88.3943 77.0501 88.5832Z" fill="#15569C"/>
<path d="M79.2446 86.7051C79.6112 86.6996 79.9779 86.7051 80.3445 86.7051C80.3501 87.4606 80.3445 88.2106 80.3445 88.9662C80.7056 88.9717 81.0667 88.9662 81.4334 88.9717C81.4334 89.2328 81.4334 89.4884 81.4334 89.7495C80.7056 89.7495 79.9779 89.7495 79.2446 89.7495C79.2446 88.7273 79.2501 87.7162 79.2446 86.7051Z" fill="#15569C"/>
<path d="M81.6436 86.7C81.9992 86.6944 82.3547 86.7 82.7103 86.7C82.7103 87.7166 82.7103 88.7277 82.7103 89.7443C82.3547 89.7499 81.9992 89.7443 81.6436 89.7443C81.6381 88.7277 81.6436 87.7166 81.6436 86.7Z" fill="#15569C"/>
<path d="M83.1277 86.7C83.8388 86.6944 84.5499 86.6944 85.2666 86.7C85.2666 86.9333 85.2666 87.1611 85.2666 87.3944C84.9277 87.3999 84.5833 87.3888 84.2444 87.3999C84.2444 87.5277 84.2444 87.6611 84.2444 87.7944C84.5722 87.7999 84.9055 87.7944 85.2332 87.7999C85.2388 88.0499 85.2332 88.3055 85.2388 88.5555C84.911 88.5721 84.5777 88.5555 84.2499 88.561C84.2444 88.9555 84.2499 89.3443 84.2444 89.7388C83.8722 89.7388 83.5 89.7443 83.1277 89.7388C83.1277 88.7277 83.1277 87.7166 83.1277 86.7Z" fill="#15569C"/>
<path d="M86.2215 86.7055C86.5715 86.6999 86.9215 86.7055 87.2715 86.7055C87.6548 87.5555 88.0214 88.4165 88.4103 89.2665C88.6881 88.9221 88.977 88.5776 89.2547 88.2277C88.8547 87.7166 88.4492 87.211 88.0548 86.6944C88.5325 86.6944 89.0047 86.6888 89.4769 86.6944C89.6492 86.9055 89.8103 87.1277 89.9825 87.3443C90.1603 87.1277 90.3269 86.9055 90.5103 86.6944C90.9214 86.6944 91.3324 86.6944 91.7435 86.6944C91.3713 87.1832 90.9436 87.6388 90.5991 88.1388C91.0213 88.6665 91.4269 89.2054 91.8435 89.7387C91.3769 89.7276 90.9047 89.7609 90.438 89.7221C90.2547 89.4776 90.0658 89.2387 89.8714 88.9999C89.6714 89.2443 89.4769 89.4887 89.2825 89.7332C88.6936 89.7443 88.1103 89.7721 87.5214 89.7387C87.4492 89.5721 87.377 89.3998 87.2937 89.2332C86.9326 89.2332 86.5715 89.2332 86.2048 89.2332C86.1215 89.3998 86.0493 89.5665 85.977 89.7387C85.6104 89.7443 85.2437 89.7443 84.8826 89.7387C85.3271 88.7332 85.777 87.7221 86.2215 86.7055ZM86.7492 88.0165C86.6659 88.2054 86.5826 88.3943 86.5048 88.5888C86.6715 88.5888 86.8326 88.5888 86.9992 88.5888C86.9215 88.3999 86.8381 88.2054 86.7492 88.0165Z" fill="#15569C"/>
<path d="M75.7446 90.2444C77.1168 90.2388 78.4834 90.2388 79.8556 90.2444C79.9501 90.3277 80.0501 90.4111 80.139 90.5C78.5723 90.5 77.0057 90.5 75.4391 90.5C75.5391 90.4111 75.6446 90.3277 75.7446 90.2444Z" fill="#15569C"/>
<path d="M80.3613 90.2439C82.9946 90.2439 85.6278 90.2439 88.2611 90.2439C88.3778 90.3106 88.4667 90.4106 88.5722 90.4939C85.9445 90.4994 83.3112 90.4939 80.6835 90.4939C80.5613 90.4439 80.4724 90.3272 80.3613 90.2439Z" fill="#15569C"/>
<path d="M74.7385 91.0719C74.8885 90.9885 75.0051 90.7997 75.194 90.8219C76.9606 90.8274 78.7328 90.8219 80.4994 90.8274C80.6383 90.8719 80.7327 90.9941 80.855 91.0719C78.8161 91.0719 76.7773 91.0719 74.7385 91.0719Z" fill="#15569C"/>
<path d="M81.0386 90.8276C83.6829 90.8276 86.3218 90.8276 88.9661 90.8276C89.0661 90.9054 89.1717 90.9887 89.2717 91.0721C86.6273 91.0721 83.9829 91.0721 81.3386 91.0721C81.233 90.9887 81.133 90.911 81.0386 90.8276Z" fill="#15569C"/>
<path d="M74.4173 91.4053C76.6839 91.3997 78.945 91.3997 81.2116 91.4053C81.3338 91.4608 81.4171 91.5664 81.5227 91.6497C79.0394 91.6497 76.5506 91.6497 74.0673 91.6497C74.1784 91.572 74.284 91.4664 74.4173 91.4053Z" fill="#15569C"/>
<path d="M81.6996 91.4053C84.3328 91.4053 86.9661 91.4053 89.5994 91.4053C89.7327 91.4553 89.8382 91.5719 89.9549 91.6497C87.3161 91.6497 84.6717 91.6497 82.0329 91.6497C81.9162 91.5775 81.8051 91.4942 81.6996 91.4053Z" fill="#15569C"/>
<path d="M73.3774 92.2332C73.4885 92.1498 73.5996 92.0665 73.7107 91.9832C76.344 91.9776 78.9717 91.9832 81.6049 91.9832C81.5105 92.0721 81.416 92.1554 81.316 92.2387C78.6717 92.2332 76.0218 92.2332 73.3774 92.2332Z" fill="#15569C"/>
<path d="M82.388 91.9829C85.0268 91.9829 87.6656 91.9829 90.3044 91.9829C90.4211 92.0607 90.5322 92.144 90.6433 92.2329C87.9934 92.2329 85.3379 92.2329 82.688 92.2329C82.5824 92.1496 82.4824 92.0662 82.388 91.9829Z" fill="#15569C"/>
<path d="M72.7164 92.8053C72.8108 92.7219 72.9108 92.6386 73.0108 92.5608C75.6496 92.5553 78.2884 92.5608 80.9273 92.5608C80.7939 92.6497 80.6939 92.8497 80.4995 92.8108C77.9051 92.8053 75.3163 92.8053 72.7164 92.8053Z" fill="#15569C"/>
<path d="M83.0825 92.561C85.7269 92.561 88.3713 92.5554 91.0156 92.5554C91.1212 92.6332 91.2212 92.7165 91.3212 92.8054C88.7101 92.811 86.0991 92.8054 83.4936 92.8054C83.3103 92.8387 83.2158 92.6443 83.0825 92.561Z" fill="#15569C"/>
<path d="M72.3492 93.1553C74.9881 93.1497 77.6213 93.1553 80.2601 93.1553C80.1657 93.2386 80.0713 93.322 79.9713 93.4053H72.0437C72.1437 93.3164 72.2493 93.2331 72.3492 93.1553Z" fill="#15569C"/>
<path d="M83.7613 93.1442C86.3723 93.1387 88.9778 93.1442 91.5889 93.1442C91.7722 93.1164 91.8666 93.3164 91.9999 93.4053H84.0835C83.9724 93.3164 83.8668 93.2276 83.7613 93.1442Z" fill="#15569C"/>
<path d="M112.788 89.3743C112.822 89.4081 112.855 89.4419 112.923 89.4419C112.991 89.4419 113.025 89.4081 113.059 89.3743L115.697 84.8075C115.799 84.6046 115.799 84.368 115.697 84.1646L113.16 79.7668C113.025 79.564 112.822 79.4287 112.551 79.4287H112.314L109.879 84.4018L110.352 85.1456L112.788 89.3743Z" fill="#DD3E56"/>
<path d="M110.317 83.9614L112.618 80.0031C112.652 79.9355 112.652 79.9017 112.652 79.8341C112.652 79.6312 112.483 79.4622 112.279 79.4622H107.408C107.172 79.4622 106.969 79.5974 106.867 79.7665L104.228 84.2995C104.194 84.3333 104.194 84.4009 104.228 84.4685C104.262 84.5023 104.296 84.5362 104.364 84.5362H109.303C109.743 84.5362 110.114 84.7733 110.317 85.1114L110.351 85.1452C110.114 84.7733 110.114 84.3333 110.317 83.9614Z" fill="#CF002C"/>
<path d="M108.593 86.9729C108.627 86.939 108.627 86.8714 108.593 86.8038C108.559 86.77 108.525 86.7357 108.457 86.7019H103.18C102.977 86.7019 102.74 86.8038 102.639 87.0067L100.101 91.4383C99.9662 91.6411 99.9662 91.9116 100.101 92.1483L100.203 92.3516L105.751 91.8778L106.123 91.1673L108.593 86.9729Z" fill="#DD3E56"/>
<path d="M105.108 91.8101H100.541C100.473 91.8101 100.44 91.8101 100.372 91.8439C100.203 91.9453 100.135 92.182 100.237 92.3511L102.672 96.5798C102.773 96.7827 103.011 96.8841 103.213 96.8841H108.457C108.525 96.8841 108.558 96.8503 108.592 96.8165C108.626 96.7827 108.626 96.7151 108.592 96.6474L106.123 92.3849C105.92 92.013 105.92 91.573 106.123 91.201L106.156 91.1672C105.954 91.573 105.548 91.8101 105.108 91.8101Z" fill="#CF002C"/>
<path d="M108.626 91.8101C108.558 91.8101 108.525 91.8439 108.491 91.9115C108.457 91.9791 108.457 92.0129 108.491 92.0805L111.129 96.6474C111.231 96.8507 111.434 96.9521 111.67 96.9521H116.779C117.015 96.9521 117.252 96.8169 117.388 96.6136L117.489 96.4107L115.189 91.8439H113.531L108.626 91.8101Z" fill="#DD3E56"/>
<path d="M114.579 92.3847L116.846 96.3768C116.88 96.4106 116.914 96.4783 116.981 96.5121C117.15 96.6135 117.387 96.5459 117.488 96.3768L119.924 92.1481C120.026 91.9452 120.026 91.7085 119.924 91.5052L117.285 86.9722C117.252 86.9384 117.218 86.9045 117.15 86.9045C117.083 86.9045 117.049 86.9384 117.015 86.9722L114.545 91.2347C114.343 91.6066 113.936 91.81 113.531 91.81H113.497C113.936 91.81 114.343 92.0466 114.579 92.3847Z" fill="#CF002C"/>
<path d="M142.383 87.1925C142.338 86.527 142.155 85.8615 141.789 85.2838L138.685 80.0014C138.457 79.6017 138.274 79.158 138.182 78.7144L138.045 78.9362C137.269 80.2233 137.269 81.8662 138.045 83.1533L140.556 87.3704C141.332 88.6575 141.332 90.3005 140.556 91.5875L140.42 91.8094C140.328 91.3657 140.145 90.922 139.917 90.5223L137.634 86.6598L136.174 84.1747C135.944 83.7749 135.763 83.3312 135.671 82.8864L135.534 83.1082C134.757 84.3965 134.757 85.9944 135.534 87.3265L138.045 91.5437C138.821 92.8307 138.821 94.4725 138.045 95.7608L137.909 95.9825C137.817 95.5389 137.634 95.0941 137.406 94.6955L134.256 89.4119C133.844 88.7026 133.661 87.903 133.661 87.1035C130.329 87.9469 128 89.7678 128 91.8544C128 94.7833 132.474 97.1368 137.999 97.1368C143.524 97.1368 147.999 94.7833 147.999 91.8544C148.044 89.8568 145.762 88.0359 142.383 87.1925Z" fill="#FE2500"/>
<path fill-rule="evenodd" clip-rule="evenodd" d="M165.366 82.6427C165.137 84.2568 164.954 85.6157 164.624 87.732C165.516 87.7127 167.541 88.0679 167.987 85.1756C168.356 82.7694 166.711 82.5466 165.366 82.6427Z" fill="#191C1F"/>
<path fill-rule="evenodd" clip-rule="evenodd" d="M173.094 94.2788C173.441 95.0516 173.091 96.0286 172.367 96.4218C171.951 96.6479 171.476 96.8578 171.002 96.9757C170.22 97.1626 169.42 97.2666 168.616 97.2858C167.329 97.2858 166.04 96.5494 165.484 95.6531C165.341 95.9624 164.822 96.5841 163.914 96.8764C163.34 97.0621 162.648 97.2858 161.203 97.2842C159.909 97.2834 159.171 96.6963 158.781 96.2038C158.159 95.4206 158.068 94.4258 158.189 93.7556L158.195 93.7233C158.684 91.2727 159.352 86.8172 159.659 84.5846L159.663 84.5628C159.747 83.9434 159.832 83.3241 159.883 82.7008C159.908 82.3867 159.925 82.071 159.928 81.7561C159.931 81.4581 159.904 81.161 159.906 80.863C159.91 80.582 159.955 80.2978 160.087 80.0491C160.3 79.6478 160.692 79.3313 161.106 79.1932C161.561 79.0414 162.036 78.9808 162.508 78.9259C162.991 78.8681 163.475 78.8196 163.96 78.7806C164.551 78.7371 165.144 78.7151 165.736 78.7144C166.75 78.7136 167.771 78.7305 168.771 78.9364C169.789 79.1464 170.818 79.5477 171.621 80.251C172.172 80.733 172.608 81.341 172.937 82.0064C173.225 82.5926 173.342 83.2095 173.411 83.681C173.535 84.5273 173.502 85.3891 173.315 86.2237C173.167 86.8322 172.918 87.4114 172.578 87.9371C172.195 88.5314 171.704 89.0708 171.078 89.5843C171.459 90.6905 172.453 92.8513 173.094 94.2788ZM161.704 80.9752C161.728 81.3854 161.731 81.7988 161.714 82.2106C161.696 82.6313 161.659 83.0504 161.613 83.4687C161.567 83.8853 161.511 84.3003 161.454 84.7154L161.436 84.851C161.258 86.1486 161.071 87.4446 160.875 88.7381C160.668 90.0978 160.436 91.4503 160.204 92.8044C160.097 93.4359 159.856 94.2449 160.186 94.8473C160.48 95.385 161.234 95.4504 161.76 95.3963C163.674 95.2009 163.978 94.7754 163.978 94.7754C163.597 94.3523 163.928 92.4241 164.313 89.8322H165.673L167.098 94.1399C167.098 94.1399 167.517 95.4747 168.684 95.4101C170.179 95.3277 171.279 94.9862 171.437 94.7964C170.977 94.5396 169.66 91.2485 168.943 88.8318C169.291 88.6202 169.627 88.3901 169.945 88.1325C170.378 87.7788 170.78 87.3711 171.088 86.8923C171.309 86.5483 171.478 86.1696 171.575 85.7675C171.626 85.5551 171.654 85.3331 171.672 85.1159C171.704 84.7331 171.692 84.3456 171.636 83.9661C171.583 83.6011 171.503 83.1949 171.34 82.8655C171.037 82.2494 170.608 81.7116 170.024 81.3677C169.037 80.7879 167.9 80.6773 166.792 80.6167C165.589 80.5499 164.383 80.5893 163.188 80.7346C163.054 80.7508 161.698 80.8703 161.704 80.9752Z" fill="#191C1F"/>
<path d="M187.024 87.73H184.756V88.948H187.024V91.23H188.242V88.948H190.51V87.73H188.242V85.462H187.024V87.73ZM201.14 92H202.4V85.462H201.14V86.442C200.692 85.7 199.754 85.322 198.844 85.322C197.052 85.322 195.526 86.638 195.526 88.724C195.526 90.796 197.052 92.14 198.844 92.14C199.754 92.14 200.706 91.72 201.14 90.992V92ZM201.126 88.71C201.126 90.096 200.118 90.894 198.956 90.894C197.78 90.894 196.828 89.998 196.828 88.71C196.828 87.422 197.78 86.568 198.956 86.568C200.02 86.568 201.126 87.31 201.126 88.71ZM204.533 81.906V92H205.807V81.906H204.533ZM207.937 81.906V92H209.211V81.906H207.937ZM222.496 86.568C223.448 86.568 223.994 87.226 223.994 88.304V92H225.268V88.22C225.268 86.372 224.386 85.322 222.748 85.322C222.118 85.322 221.082 85.504 220.48 86.666C220.172 85.952 219.598 85.518 218.772 85.392C218.548 85.35 218.31 85.336 218.058 85.35C217.526 85.392 216.588 85.714 216.252 86.442V85.462H214.978V92H216.252V88.472C216.252 87.1 217.162 86.568 218.072 86.568C218.926 86.568 219.486 87.212 219.486 88.29V92H220.76V88.472C220.76 87.38 221.418 86.568 222.496 86.568ZM232.49 92H233.75V85.462H232.49V86.442C232.042 85.7 231.104 85.322 230.194 85.322C228.402 85.322 226.876 86.638 226.876 88.724C226.876 90.796 228.402 92.14 230.194 92.14C231.104 92.14 232.056 91.72 232.49 90.992V92ZM232.476 88.71C232.476 90.096 231.468 90.894 230.306 90.894C229.13 90.894 228.178 89.998 228.178 88.71C228.178 87.422 229.13 86.568 230.306 86.568C231.37 86.568 232.476 87.31 232.476 88.71ZM233.95 95.206H234.818C236.582 95.206 237.17 94.03 237.17 92.406V85.462H235.882V92.392C235.882 93.134 235.784 94.016 234.706 94.016H233.95V95.206ZM235.644 83.054C235.644 83.544 236.036 83.88 236.526 83.88C237.016 83.88 237.408 83.544 237.408 83.054C237.408 82.564 237.016 82.228 236.526 82.228C236.036 82.228 235.644 82.564 235.644 83.054ZM242.282 92.14C244.144 92.14 245.712 90.782 245.712 88.71C245.712 86.638 244.144 85.322 242.282 85.322C240.42 85.322 238.866 86.638 238.866 88.71C238.866 90.782 240.42 92.14 242.282 92.14ZM242.282 90.908C241.092 90.908 240.126 90.054 240.126 88.71C240.126 87.394 241.092 86.568 242.282 86.568C243.444 86.568 244.438 87.394 244.438 88.71C244.438 90.054 243.444 90.908 242.282 90.908ZM248.682 89.62C248.682 87.884 249.214 86.54 250.474 86.54C250.74 86.54 251.09 86.596 251.44 86.764L251.636 85.574C251.454 85.448 250.964 85.322 250.502 85.322C249.648 85.322 249.018 85.77 248.682 86.932V85.462H247.408V92H248.682V89.62ZM257.5 90.992C257.934 91.72 258.872 92.14 259.782 92.14C261.574 92.14 263.1 90.796 263.1 88.724C263.1 86.638 261.602 85.322 259.796 85.322C258.844 85.322 257.934 85.7 257.5 86.442V81.906H256.226V92H257.5V90.992ZM257.514 88.71C257.514 87.31 258.62 86.568 259.684 86.568C260.86 86.568 261.798 87.422 261.798 88.71C261.798 89.998 260.86 90.894 259.684 90.894C258.522 90.894 257.514 90.096 257.514 88.71ZM269.978 92H271.238V85.462H269.978V86.442C269.53 85.7 268.592 85.322 267.682 85.322C265.89 85.322 264.364 86.638 264.364 88.724C264.364 90.796 265.89 92.14 267.682 92.14C268.592 92.14 269.544 91.72 269.978 90.992V92ZM269.964 88.71C269.964 90.096 268.956 90.894 267.794 90.894C266.618 90.894 265.666 89.998 265.666 88.71C265.666 87.422 266.618 86.568 267.794 86.568C268.858 86.568 269.964 87.31 269.964 88.71ZM274.645 88.472C274.645 87.086 275.569 86.568 276.493 86.568C277.389 86.568 277.935 87.198 277.935 88.304V92H279.209V88.22C279.209 86.372 278.327 85.322 276.689 85.322C275.975 85.322 275.023 85.658 274.645 86.442V85.462H273.371V92H274.645V88.472ZM282.519 88.808L285.501 92H287.181L283.709 88.29L286.509 85.462H284.773L282.519 87.744V81.906H281.259V92H282.519V88.808ZM290.516 89.326C291.006 89.438 291.398 89.662 291.384 90.152C291.37 90.642 290.992 90.964 290.39 91.006C289.984 91.034 289.648 90.964 289.354 90.782C289.032 90.628 288.864 90.32 288.822 90.04H287.66C287.702 91.384 288.92 92.14 290.096 92.14C291.454 92.14 292.63 91.412 292.63 90.18C292.63 89.438 292.28 88.612 290.936 88.276L289.97 88.038C289.634 87.94 289.326 87.8 289.2 87.534C289.13 87.394 289.13 87.226 289.186 87.016C289.284 86.666 289.676 86.428 290.166 86.428C290.67 86.428 291.118 86.68 291.188 87.17H292.406C292.294 85.84 291.244 85.322 290.138 85.322C288.962 85.322 287.982 86.036 287.87 86.988C287.758 88.206 288.43 88.794 289.62 89.116L290.516 89.326Z" fill="#0C0128"/>
<path d="M8 1H319V-1H8V1ZM326 8V102H328V8H326ZM319 109H8V111H319V109ZM1 102V8H-1V102H1ZM8 109C4.13401 109 1 105.866 1 102H-1C-1 106.971 3.02944 111 8 111V109ZM326 102C326 105.866 322.866 109 319 109V111C323.971 111 328 106.971 328 102H326ZM319 1C322.866 1 326 4.13401 326 8H328C328 3.02944 323.971 -1 319 -1V1ZM8 -1C3.02944 -1 -1 3.02944 -1 8H1C1 4.13401 4.13401 1 8 1V-1Z" fill="black"/>
</svg>
