<svg width="327" height="56" viewBox="0 0 327 56" fill="none" xmlns="http://www.w3.org/2000/svg">
<rect width="327" height="56" fill="#0C0128"/>
<path d="M16.246 19.648C15.588 20.418 14.65 20.88 13.572 20.88C11.542 20.88 9.988 19.256 9.988 17.198C9.988 15.14 11.542 13.502 13.572 13.502C14.636 13.502 15.56 13.978 16.218 14.692L17.198 13.88C16.344 12.872 15.07 12.242 13.572 12.242C10.842 12.242 8.686 14.468 8.686 17.198C8.686 19.942 10.842 22.14 13.572 22.14C15.084 22.14 16.372 21.496 17.226 20.474L16.246 19.648ZM23.8006 22H25.0606V15.462H23.8006V16.442C23.3526 15.7 22.4146 15.322 21.5046 15.322C19.7126 15.322 18.1866 16.638 18.1866 18.724C18.1866 20.796 19.7126 22.14 21.5046 22.14C22.4146 22.14 23.3666 21.72 23.8006 20.992V22ZM23.7866 18.71C23.7866 20.096 22.7786 20.894 21.6166 20.894C20.4406 20.894 19.4886 19.998 19.4886 18.71C19.4886 17.422 20.4406 16.568 21.6166 16.568C22.6806 16.568 23.7866 17.31 23.7866 18.71ZM28.4669 19.62C28.4669 17.884 28.9989 16.54 30.2589 16.54C30.5249 16.54 30.8749 16.596 31.2249 16.764L31.4209 15.574C31.2389 15.448 30.7489 15.322 30.2869 15.322C29.4329 15.322 28.8029 15.77 28.4669 16.932V15.462H27.1929V22H28.4669V19.62ZM37.7183 22H38.9923V11.906H37.7183V16.442C37.2843 15.7 36.3743 15.322 35.4083 15.322C33.6163 15.322 32.1183 16.638 32.1183 18.724C32.1183 20.796 33.6303 22.14 35.4223 22.14C36.3323 22.14 37.2843 21.72 37.7183 20.992V22ZM37.7043 18.71C37.7043 20.096 36.6963 20.894 35.5343 20.894C34.3583 20.894 33.4203 19.998 33.4203 18.71C33.4203 17.422 34.3583 16.568 35.5343 16.568C36.5983 16.568 37.7043 17.31 37.7043 18.71ZM46.0353 18.472C46.0353 17.086 46.9593 16.568 47.8833 16.568C48.7793 16.568 49.3253 17.198 49.3253 18.304V22H50.5993V18.22C50.5993 16.372 49.7173 15.322 48.0793 15.322C47.3653 15.322 46.4133 15.658 46.0353 16.442V15.462H44.7613V22H46.0353V18.472ZM55.6319 22.14C57.4939 22.14 59.0619 20.782 59.0619 18.71C59.0619 16.638 57.4939 15.322 55.6319 15.322C53.7699 15.322 52.2159 16.638 52.2159 18.71C52.2159 20.782 53.7699 22.14 55.6319 22.14ZM55.6319 20.908C54.4419 20.908 53.4759 20.054 53.4759 18.71C53.4759 17.394 54.4419 16.568 55.6319 16.568C56.7939 16.568 57.7879 17.394 57.7879 18.71C57.7879 20.054 56.7939 20.908 55.6319 20.908ZM62.5214 15.462V12.998H61.2474V15.462H60.0714V16.54H61.2474V22H62.5214V16.54H63.9074V15.462H62.5214ZM69.9881 15.462H68.7281V22H69.9881V15.462ZM68.4761 13.054C68.4761 13.544 68.8681 13.88 69.3581 13.88C69.8481 13.88 70.2401 13.544 70.2401 13.054C70.2401 12.564 69.8481 12.228 69.3581 12.228C68.8681 12.228 68.4761 12.564 68.4761 13.054ZM73.3927 18.472C73.3927 17.086 74.3167 16.568 75.2407 16.568C76.1367 16.568 76.6827 17.198 76.6827 18.304V22H77.9567V18.22C77.9567 16.372 77.0747 15.322 75.4367 15.322C74.7227 15.322 73.7707 15.658 73.3927 16.442V15.462H72.1187V22H73.3927V18.472ZM84.9181 18.472C84.9181 17.072 86.0101 16.568 86.9061 16.568C87.8021 16.568 88.4461 17.226 88.4461 18.304V22H89.7201V18.22C89.7341 16.372 88.7121 15.322 87.0741 15.322C86.3741 15.322 85.2961 15.658 84.9181 16.442V11.906H83.6441V22H84.9181V18.472ZM96.9452 22H98.2052V15.462H96.9452V16.442C96.4972 15.7 95.5592 15.322 94.6492 15.322C92.8572 15.322 91.3312 16.638 91.3312 18.724C91.3312 20.796 92.8572 22.14 94.6492 22.14C95.5592 22.14 96.5112 21.72 96.9452 20.992V22ZM96.9312 18.71C96.9312 20.096 95.9232 20.894 94.7612 20.894C93.5852 20.894 92.6332 19.998 92.6332 18.71C92.6332 17.422 93.5852 16.568 94.7612 16.568C95.8252 16.568 96.9312 17.31 96.9312 18.71ZM101.611 18.472C101.611 17.086 102.535 16.568 103.459 16.568C104.355 16.568 104.901 17.198 104.901 18.304V22H106.175V18.22C106.175 16.372 105.293 15.322 103.655 15.322C102.941 15.322 101.989 15.658 101.611 16.442V15.462H100.337V22H101.611V18.472ZM113.392 22H114.666V11.906H113.392V16.442C112.958 15.7 112.048 15.322 111.082 15.322C109.29 15.322 107.792 16.638 107.792 18.724C107.792 20.796 109.304 22.14 111.096 22.14C112.006 22.14 112.958 21.72 113.392 20.992V22ZM113.378 18.71C113.378 20.096 112.37 20.894 111.208 20.894C110.032 20.894 109.094 19.998 109.094 18.71C109.094 17.422 110.032 16.568 111.208 16.568C112.272 16.568 113.378 17.31 113.378 18.71ZM117.54 15.168C117.54 14.132 118.268 13.488 119.094 13.488C119.92 13.488 120.718 14.062 120.718 14.972C120.718 15.616 120.158 16.274 119.57 16.414C118.492 16.75 117.694 17.296 117.694 18.64V19.41H118.926L118.954 18.64C118.954 17.982 119.374 17.786 119.948 17.618C121.04 17.282 121.964 16.33 121.964 14.972C121.964 13.292 120.606 12.242 119.094 12.242C117.582 12.242 116.336 13.376 116.336 15.168H117.54ZM117.4 21.258C117.4 21.762 117.82 22.126 118.324 22.126C118.828 22.126 119.234 21.762 119.234 21.258C119.234 20.754 118.828 20.376 118.324 20.376C117.82 20.376 117.4 20.754 117.4 21.258ZM16.246 39.648C15.588 40.418 14.65 40.88 13.572 40.88C11.542 40.88 9.988 39.256 9.988 37.198C9.988 35.14 11.542 33.502 13.572 33.502C14.636 33.502 15.56 33.978 16.218 34.692L17.198 33.88C16.344 32.872 15.07 32.242 13.572 32.242C10.842 32.242 8.686 34.468 8.686 37.198C8.686 39.942 10.842 42.14 13.572 42.14C15.084 42.14 16.372 41.496 17.226 40.474L16.246 39.648ZM19.8946 38.472C19.8946 37.072 20.9866 36.568 21.8826 36.568C22.7786 36.568 23.4226 37.226 23.4226 38.304V42H24.6966V38.22C24.7106 36.372 23.6886 35.322 22.0506 35.322C21.3506 35.322 20.2726 35.658 19.8946 36.442V31.906H18.6206V42H19.8946V38.472ZM27.5817 38.22C27.7357 37.114 28.5757 36.47 29.6537 36.47C30.7177 36.47 31.4877 37.114 31.6417 38.22H27.5817ZM32.9017 38.71C32.9017 36.638 31.5157 35.322 29.6537 35.322C27.7917 35.322 26.3077 36.638 26.3077 38.71C26.3077 40.782 27.7917 42.14 29.6537 42.14C30.9277 42.14 32.1037 41.566 32.6637 40.404C32.3137 40.25 31.9077 40.138 31.5717 39.984C31.1937 40.642 30.4797 40.992 29.6957 40.992C28.5757 40.992 27.7357 40.32 27.5817 39.214H32.8877C32.9017 39.06 32.9017 38.864 32.9017 38.71ZM34.087 38.71C34.087 40.782 35.683 42.14 37.545 42.14C38.553 42.14 39.463 41.748 40.079 41.076L39.099 40.264C38.707 40.67 38.147 40.908 37.545 40.908C36.369 40.908 35.347 40.012 35.347 38.71C35.347 37.394 36.369 36.568 37.545 36.568C38.147 36.568 38.707 36.792 39.099 37.184L40.065 36.372C39.449 35.7 38.553 35.322 37.545 35.322C35.683 35.322 34.087 36.638 34.087 38.71ZM42.9451 38.808L45.9271 42H47.6071L44.1351 38.29L46.9351 35.462H45.1991L42.9451 37.744V31.906H41.6851V42H42.9451V38.808ZM51.2843 42.14C53.1463 42.14 54.7143 40.782 54.7143 38.71C54.7143 36.638 53.1463 35.322 51.2843 35.322C49.4223 35.322 47.8683 36.638 47.8683 38.71C47.8683 40.782 49.4223 42.14 51.2843 42.14ZM51.2843 40.908C50.0943 40.908 49.1283 40.054 49.1283 38.71C49.1283 37.394 50.0943 36.568 51.2843 36.568C52.4463 36.568 53.4403 37.394 53.4403 38.71C53.4403 40.054 52.4463 40.908 51.2843 40.908ZM60.8757 38.99C60.8757 40.39 59.9517 40.894 59.0277 40.894C58.1317 40.894 57.5997 40.264 57.5997 39.158V35.462H56.3257V39.242C56.3117 41.09 57.2077 42.14 58.8457 42.14C59.5597 42.14 60.4697 41.804 60.8757 41.02V42H62.1497V35.462H60.8757V38.99ZM66.035 35.462V32.998H64.761V35.462H63.585V36.54H64.761V42H66.035V36.54H67.421V35.462H66.035ZM74.6217 39.326C75.1117 39.438 75.5037 39.662 75.4897 40.152C75.4757 40.642 75.0977 40.964 74.4957 41.006C74.0897 41.034 73.7537 40.964 73.4597 40.782C73.1377 40.628 72.9697 40.32 72.9277 40.04H71.7657C71.8077 41.384 73.0257 42.14 74.2017 42.14C75.5597 42.14 76.7357 41.412 76.7357 40.18C76.7357 39.438 76.3857 38.612 75.0417 38.276L74.0757 38.038C73.7397 37.94 73.4317 37.8 73.3057 37.534C73.2357 37.394 73.2357 37.226 73.2917 37.016C73.3897 36.666 73.7817 36.428 74.2717 36.428C74.7757 36.428 75.2237 36.68 75.2937 37.17H76.5117C76.3997 35.84 75.3497 35.322 74.2437 35.322C73.0677 35.322 72.0877 36.036 71.9757 36.988C71.8637 38.206 72.5357 38.794 73.7257 39.116L74.6217 39.326ZM79.2341 38.22C79.3881 37.114 80.2281 36.47 81.3061 36.47C82.3701 36.47 83.1401 37.114 83.2941 38.22H79.2341ZM84.5541 38.71C84.5541 36.638 83.1681 35.322 81.3061 35.322C79.4441 35.322 77.9601 36.638 77.9601 38.71C77.9601 40.782 79.4441 42.14 81.3061 42.14C82.5801 42.14 83.7561 41.566 84.3161 40.404C83.9661 40.25 83.5601 40.138 83.2241 39.984C82.8461 40.642 82.1321 40.992 81.3481 40.992C80.2281 40.992 79.3881 40.32 79.2341 39.214H84.5401C84.5541 39.06 84.5541 38.864 84.5541 38.71ZM85.7394 38.71C85.7394 40.782 87.3354 42.14 89.1974 42.14C90.2054 42.14 91.1154 41.748 91.7314 41.076L90.7514 40.264C90.3594 40.67 89.7994 40.908 89.1974 40.908C88.0214 40.908 86.9994 40.012 86.9994 38.71C86.9994 37.394 88.0214 36.568 89.1974 36.568C89.7994 36.568 90.3594 36.792 90.7514 37.184L91.7174 36.372C91.1014 35.7 90.2054 35.322 89.1974 35.322C87.3354 35.322 85.7394 36.638 85.7394 38.71ZM97.8034 38.99C97.8034 40.39 96.8794 40.894 95.9554 40.894C95.0594 40.894 94.5274 40.264 94.5274 39.158V35.462H93.2534V39.242C93.2394 41.09 94.1354 42.14 95.7734 42.14C96.4874 42.14 97.3974 41.804 97.8034 41.02V42H99.0774V35.462H97.8034V38.99ZM102.473 39.62C102.473 37.884 103.005 36.54 104.265 36.54C104.531 36.54 104.881 36.596 105.231 36.764L105.427 35.574C105.245 35.448 104.755 35.322 104.293 35.322C103.439 35.322 102.809 35.77 102.473 36.932V35.462H101.199V42H102.473V39.62ZM107.398 38.22C107.552 37.114 108.392 36.47 109.47 36.47C110.534 36.47 111.304 37.114 111.458 38.22H107.398ZM112.718 38.71C112.718 36.638 111.332 35.322 109.47 35.322C107.608 35.322 106.124 36.638 106.124 38.71C106.124 40.782 107.608 42.14 109.47 42.14C110.744 42.14 111.92 41.566 112.48 40.404C112.13 40.25 111.724 40.138 111.388 39.984C111.01 40.642 110.296 40.992 109.512 40.992C108.392 40.992 107.552 40.32 107.398 39.214H112.704C112.718 39.06 112.718 38.864 112.718 38.71ZM114.337 31.906V42H115.611V31.906H114.337ZM119.506 45.178L123.566 35.462H122.208L120.248 40.194L118.288 35.462H116.93L119.548 41.804L118.176 45.178H119.506ZM135.426 42L137.848 35.462H136.49L134.852 40.04L133.214 35.462H131.982L130.344 40.04L128.706 35.462H127.348L129.84 42H130.876L132.598 37.198L134.376 42H135.426ZM140.467 35.462H139.207V42H140.467V35.462ZM138.955 33.054C138.955 33.544 139.347 33.88 139.837 33.88C140.327 33.88 140.719 33.544 140.719 33.054C140.719 32.564 140.327 32.228 139.837 32.228C139.347 32.228 138.955 32.564 138.955 33.054ZM144.361 35.462V32.998H143.087V35.462H141.911V36.54H143.087V42H144.361V36.54H145.747V35.462H144.361ZM148.465 38.472C148.465 37.072 149.557 36.568 150.453 36.568C151.349 36.568 151.993 37.226 151.993 38.304V42H153.267V38.22C153.281 36.372 152.259 35.322 150.621 35.322C149.921 35.322 148.843 35.658 148.465 36.442V31.906H147.191V42H148.465V38.472ZM160.713 45.178L164.773 35.462H163.415L161.455 40.194L159.495 35.462H158.137L160.755 41.804L159.383 45.178H160.713ZM168.903 42.14C170.765 42.14 172.333 40.782 172.333 38.71C172.333 36.638 170.765 35.322 168.903 35.322C167.041 35.322 165.487 36.638 165.487 38.71C165.487 40.782 167.041 42.14 168.903 42.14ZM168.903 40.908C167.713 40.908 166.747 40.054 166.747 38.71C166.747 37.394 167.713 36.568 168.903 36.568C170.065 36.568 171.059 37.394 171.059 38.71C171.059 40.054 170.065 40.908 168.903 40.908ZM178.495 38.99C178.495 40.39 177.571 40.894 176.647 40.894C175.751 40.894 175.219 40.264 175.219 39.158V35.462H173.945V39.242C173.931 41.09 174.827 42.14 176.465 42.14C177.179 42.14 178.089 41.804 178.495 41.02V42H179.769V35.462H178.495V38.99ZM183.164 39.62C183.164 37.884 183.696 36.54 184.956 36.54C185.222 36.54 185.572 36.596 185.922 36.764L186.118 35.574C185.936 35.448 185.446 35.322 184.984 35.322C184.13 35.322 183.5 35.77 183.164 36.932V35.462H181.89V42H183.164V39.62ZM191.983 40.992C192.417 41.72 193.355 42.14 194.265 42.14C196.057 42.14 197.583 40.796 197.583 38.724C197.583 36.638 196.085 35.322 194.279 35.322C193.327 35.322 192.417 35.7 191.983 36.442V31.906H190.709V42H191.983V40.992ZM191.997 38.71C191.997 37.31 193.103 36.568 194.167 36.568C195.343 36.568 196.281 37.422 196.281 38.71C196.281 39.998 195.343 40.894 194.167 40.894C193.005 40.894 191.997 40.096 191.997 38.71ZM204.461 42H205.721V35.462H204.461V36.442C204.013 35.7 203.075 35.322 202.165 35.322C200.373 35.322 198.847 36.638 198.847 38.724C198.847 40.796 200.373 42.14 202.165 42.14C203.075 42.14 204.027 41.72 204.461 40.992V42ZM204.447 38.71C204.447 40.096 203.439 40.894 202.277 40.894C201.101 40.894 200.149 39.998 200.149 38.71C200.149 37.422 201.101 36.568 202.277 36.568C203.341 36.568 204.447 37.31 204.447 38.71ZM209.127 38.472C209.127 37.086 210.051 36.568 210.975 36.568C211.871 36.568 212.417 37.198 212.417 38.304V42H213.691V38.22C213.691 36.372 212.809 35.322 211.171 35.322C210.457 35.322 209.505 35.658 209.127 36.442V35.462H207.853V42H209.127V38.472ZM217.002 38.808L219.984 42H221.664L218.192 38.29L220.992 35.462H219.256L217.002 37.744V31.906H215.742V42H217.002V38.808ZM222.657 41.272C222.657 41.776 223.077 42.14 223.567 42.14C224.071 42.14 224.491 41.776 224.491 41.272C224.491 40.768 224.071 40.39 223.567 40.39C223.077 40.39 222.657 40.768 222.657 41.272Z" fill="white"/>
<g clip-path="url(#clip0_728_6117)">
<path d="M290.536 26.5518L288.902 31.257L287.123 26.5518H284.58L287.723 34.1216H290.081L292.997 26.5518H290.536Z" fill="white"/>
<path d="M302.139 26.5518H299.657L297.961 30.6055L296.1 26.5518H293.473L296.699 33.1081L294.962 37.0378H297.423L302.139 26.5518Z" fill="white"/>
<path d="M305.459 28.827C305.686 28.5788 305.996 28.4547 306.379 28.4547C306.793 28.4547 307.103 28.5788 307.31 28.8167C307.516 29.0545 307.63 29.3751 307.63 29.7681V34.1321H309.978V29.3751C309.978 28.4961 309.74 27.7619 309.264 27.2035C308.788 26.6347 308.096 26.3555 307.186 26.3555C306.762 26.3555 306.348 26.4485 305.945 26.6347C305.541 26.8208 305.241 27.0794 305.045 27.4206V26.552H302.78V34.1321H305.128V29.7888C305.107 29.3958 305.221 29.0752 305.459 28.827Z" fill="white"/>
<path d="M318.488 30.2129C318.488 28.9927 318.147 28.0413 317.465 27.3587C316.782 26.6762 315.841 26.335 314.652 26.335C313.618 26.335 312.718 26.7072 311.963 27.4518C311.208 28.1964 310.826 29.1581 310.826 30.337C310.826 31.5676 311.208 32.5501 311.994 33.2843C312.77 34.0185 313.711 34.3805 314.828 34.3805C315.748 34.3805 316.524 34.153 317.144 33.6979C317.765 33.2429 318.168 32.6742 318.364 31.971L316.41 31.4229C316.172 32.0847 315.655 32.4156 314.869 32.4156C314.404 32.4156 314.011 32.2812 313.669 31.9916C313.328 31.7124 313.152 31.3608 313.132 30.9472H318.468C318.468 30.8334 318.488 30.5956 318.488 30.2129ZM313.152 29.427C313.183 29.1064 313.328 28.8065 313.597 28.5377C313.866 28.2688 314.228 28.1447 314.673 28.1447C315.179 28.1447 315.552 28.2688 315.81 28.5273C316.058 28.7858 316.203 29.0857 316.224 29.427H313.152Z" fill="white"/>
<path d="M272.056 38C270.815 38 269.668 37.3278 269.047 36.2523L262.946 25.6525L264.683 24.6494L270.784 35.2492C271.043 35.7042 271.529 35.9835 272.046 35.9835C272.584 35.9835 273.07 35.6939 273.328 35.2182L273.339 35.1975L282.108 20.0062H276.741C275.645 20.0062 274.631 20.5957 274.073 21.5367L271.725 25.6629L269.978 24.6701L272.346 20.5233C273.266 18.9721 274.962 18 276.762 18H282.698C283.618 18 284.373 18.7549 284.373 19.6753C284.373 19.9338 284.311 20.2027 284.197 20.4302L284.166 20.4819L275.097 36.1903C274.487 37.3071 273.328 38 272.056 38Z" fill="white"/>
<path d="M267.341 28.1758C264.538 28.1758 262.253 25.9007 262.253 23.0879C262.253 20.2751 264.538 18 267.341 18C270.143 18 272.429 20.2854 272.429 23.0879C272.429 25.8904 270.154 28.1758 267.341 28.1758ZM267.341 20.0062C265.645 20.0062 264.259 21.3919 264.259 23.0879C264.259 24.7839 265.645 26.1696 267.341 26.1696C269.037 26.1696 270.422 24.7839 270.422 23.0879C270.422 21.3919 269.037 20.0062 267.341 20.0062Z" fill="white"/>
<path d="M272.025 21.0919C271.529 19.9337 270.619 19.003 269.481 18.4756L268.478 20.2336C269.616 20.6783 270.422 21.7951 270.422 23.0878C270.422 23.5738 270.309 24.0288 270.112 24.4425L272.025 21.0919Z" fill="url(#paint0_linear_728_6117)"/>
</g>
<defs>
<linearGradient id="paint0_linear_728_6117" x1="271.432" y1="22.5541" x2="268.203" y2="20.2933" gradientUnits="userSpaceOnUse">
<stop offset="0.12" stop-color="#A6A6A6"/>
<stop offset="0.167" stop-color="#B0B0B0"/>
<stop offset="0.4652" stop-color="#E9E9E9"/>
<stop offset="0.6087" stop-color="white"/>
</linearGradient>
<clipPath id="clip0_728_6117">
<rect width="56.2358" height="20" fill="white" transform="translate(262.253 18)"/>
</clipPath>
</defs>
</svg>
