<svg width="20" height="20" viewBox="0 0 20 20" fill="none" xmlns="http://www.w3.org/2000/svg">
<path d="M10 17.5C14.1421 17.5 17.5 14.1421 17.5 10C17.5 5.85786 14.1421 2.5 10 2.5C5.85786 2.5 2.5 5.85786 2.5 10C2.5 14.1421 5.85786 17.5 10 17.5Z" stroke="white" stroke-linecap="round" stroke-linejoin="round"/>
<path d="M9.16666 12.9167H11.0917" stroke="white" stroke-linecap="round" stroke-linejoin="round"/>
<path d="M10.1325 12.9167V9.375H9.17416" stroke="white" stroke-linecap="round" stroke-linejoin="round"/>
<path d="M10.0834 6.87288C10.0834 6.98794 9.99008 7.08122 9.87502 7.08122C9.75996 7.08122 9.66669 6.98794 9.66669 6.87288C9.66669 6.75782 9.75996 6.66455 9.87502 6.66455" stroke="white" stroke-linecap="round" stroke-linejoin="round"/>
<path d="M9.875 6.66455V6.66455C9.99006 6.66455 10.0833 6.75782 10.0833 6.87288" stroke="white" stroke-linecap="round" stroke-linejoin="round"/>
</svg>
