<svg width="20" height="20" viewBox="0 0 20 20" fill="none" xmlns="http://www.w3.org/2000/svg">
<path d="M14.1667 17.5H5.83332C4.91249 17.5 4.16666 16.7542 4.16666 15.8333V9.16667C4.16666 8.24583 4.91249 7.5 5.83332 7.5H14.1667C15.0875 7.5 15.8333 8.24583 15.8333 9.16667V15.8333C15.8333 16.7542 15.0875 17.5 14.1667 17.5Z" stroke="white" stroke-width="1.22125" stroke-linecap="round" stroke-linejoin="round"/>
<path d="M13.3333 7.5V5.83333C13.3333 3.9925 11.8408 2.5 9.99999 2.5C8.15916 2.5 6.66666 3.9925 6.66666 5.83333V7.5" stroke="white" stroke-width="1.16925" stroke-linecap="round" stroke-linejoin="round"/>
<path d="M9.99835 12.0833C9.76835 12.0833 9.58169 12.2699 9.58335 12.4999C9.58335 12.7299 9.77002 12.9166 10 12.9166C10.23 12.9166 10.4167 12.7299 10.4167 12.4999C10.4167 12.2699 10.23 12.0833 9.99835 12.0833Z" fill="white" stroke="white" stroke-width="1.25" stroke-linecap="round" stroke-linejoin="round"/>
</svg>
