<?xml version="1.0" encoding="utf-8"?>
<!-- Generator: Adobe Illustrator 26.0.2, SVG Export Plug-In . SVG Version: 6.00 Build 0)  -->
<svg version="1.1" id="Layer_1" xmlns="http://www.w3.org/2000/svg" xmlns:xlink="http://www.w3.org/1999/xlink" x="0px" y="0px"
	 viewBox="0 0 544 194" style="enable-background:new 0 0 544 194;" xml:space="preserve">
<style type="text/css">
	.st0{clip-path:url(#SVGID_00000054235869775831030490000004459301950393017019_);fill:#6C56F9;}
	.st1{clip-path:url(#SVGID_00000054235869775831030490000004459301950393017019_);}
	.st2{fill:#6C56F9;}
	
		.st3{clip-path:url(#SVGID_00000147924003388591839700000000355759938069107082_);fill:url(#SVGID_00000121958201255633309920000002522254258625507484_);}
</style>
<g>
	<defs>
		<rect id="SVGID_00000140695667932563847560000007820482213657076919_" width="543.8" height="193.4"/>
	</defs>
	<clipPath id="SVGID_00000162319145349409921820000005822170799457521331_">
		<use xlink:href="#SVGID_00000140695667932563847560000007820482213657076919_"  style="overflow:visible;"/>
	</clipPath>
	<path style="clip-path:url(#SVGID_00000162319145349409921820000005822170799457521331_);fill:#6C56F9;" d="M273.2,82.4L257.4,128
		l-17.2-45.6h-24.6l30.4,73.3h22.8L297,82.4H273.2z"/>
	<path style="clip-path:url(#SVGID_00000162319145349409921820000005822170799457521331_);fill:#6C56F9;" d="M385.4,82.4h-24
		L345,121.6l-18-39.2h-25.4l31.2,63.4l-16.9,38h23.9L385.4,82.4z"/>
	<path style="clip-path:url(#SVGID_00000162319145349409921820000005822170799457521331_);fill:#6C56F9;" d="M417.5,104.5
		c2.2-2.4,5.2-3.6,8.9-3.6c4,0,7,1.2,9,3.5c2,2.3,3.1,5.4,3.1,9.2v42.2h22.7v-46c0-8.5-2.3-15.6-6.9-21c-4.6-5.5-11.3-8.2-20.1-8.2
		c-4.1,0-8.1,0.9-12,2.7c-3.9,1.8-6.8,4.3-8.7,7.6v-8.4h-21.9v73.3h22.7v-42C414.1,109.9,415.2,106.9,417.5,104.5z"/>
	<path style="clip-path:url(#SVGID_00000162319145349409921820000005822170799457521331_);fill:#6C56F9;" d="M543.4,117.8
		c0-11.8-3.3-21-9.9-27.6c-6.6-6.6-15.7-9.9-27.2-9.9c-10,0-18.7,3.6-26,10.8c-7.3,7.2-11,16.5-11,27.9c0,11.9,3.7,21.4,11.3,28.5
		c7.5,7.1,16.6,10.6,27.4,10.6c8.9,0,16.4-2.2,22.4-6.6s9.9-9.9,11.8-16.7l-18.9-5.3c-2.3,6.4-7.3,9.6-14.9,9.6
		c-4.5,0-8.3-1.3-11.6-4.1c-3.3-2.7-5-6.1-5.2-10.1H543C543.3,123.8,543.4,121.5,543.4,117.8z M491.9,110.3c0.3-3.1,1.7-6,4.3-8.6
		c2.6-2.6,6.1-3.8,10.4-3.8c4.9,0,8.5,1.2,11,3.7c2.4,2.5,3.8,5.4,4,8.7H491.9z"/>
	<g style="clip-path:url(#SVGID_00000162319145349409921820000005822170799457521331_);">
		<path class="st2" d="M94.77,193.4c-11.97,0-23.11-6.46-29.06-16.86L6.68,74.04l16.82-9.69l59.05,102.52
			c2.52,4.39,7.2,7.11,12.23,7.11c5.18,0,9.93-2.84,12.39-7.4l0.14-0.25l84.85-146.92H140.3c-10.56,0-20.44,5.66-25.8,14.77
			L91.65,74.1L74.8,64.46l22.92-40.05C106.54,9.35,122.85,0,140.29,0h57.39c8.95,0,16.23,7.28,16.23,16.23
			c0,2.53-0.6,5.06-1.74,7.31l-0.26,0.48l-87.73,151.91C118.3,186.71,107.05,193.4,94.77,193.4z"/>
		<g>
			<g>
				<path id="SVGID_1_" class="st2" d="M49.21,98.43C22.08,98.43,0,76.35,0,49.21S22.08,0,49.21,0s49.22,22.08,49.22,49.21
					S76.35,98.43,49.21,98.43z M49.21,19.42c-16.43,0-29.8,13.37-29.8,29.8s13.37,29.8,29.8,29.8s29.8-13.37,29.8-29.8
					S65.65,19.42,49.21,19.42z"/>
			</g>
			<g>
				<defs>
					<path id="SVGID_00000042014878645649974380000015860169314200433053_" d="M49.21,98.43C22.08,98.43,0,76.35,0,49.21
						S22.08,0,49.21,0s49.22,22.08,49.22,49.21S76.35,98.43,49.21,98.43z M49.21,19.42c-16.43,0-29.8,13.37-29.8,29.8
						s13.37,29.8,29.8,29.8s29.8-13.37,29.8-29.8S65.65,19.42,49.21,19.42z"/>
				</defs>
				<clipPath id="SVGID_00000134222749032893068920000017184219412128299199_">
					<use xlink:href="#SVGID_00000042014878645649974380000015860169314200433053_"  style="overflow:visible;"/>
				</clipPath>
				
					<linearGradient id="SVGID_00000099647007836826497050000002481058753096885926_" gradientUnits="userSpaceOnUse" x1="58.0778" y1="170.0131" x2="87.6646" y2="152.9311" gradientTransform="matrix(1 0 0 -1 0 195)">
					<stop  offset="0" style="stop-color:#6C56F9;stop-opacity:0"/>
					<stop  offset="0.0193" style="stop-color:#6A54F4;stop-opacity:0.02"/>
					<stop  offset="0.0926" style="stop-color:#6550E9;stop-opacity:0.096"/>
					<stop  offset="0.1958" style="stop-color:#624EE2;stop-opacity:0.2029"/>
					<stop  offset="0.4824" style="stop-color:#614DE0;stop-opacity:0.5"/>
					<stop  offset="0.9484" style="stop-color:#5746CA;stop-opacity:0.9502"/>
					<stop  offset="1" style="stop-color:#5645C7"/>
				</linearGradient>
				
					<path style="clip-path:url(#SVGID_00000134222749032893068920000017184219412128299199_);fill:url(#SVGID_00000099647007836826497050000002481058753096885926_);" d="
					M98.41,23.09L75.58,63L47.25,44.11L70.16,4.06C70.52,4.12,98.5,23.09,98.41,23.09z"/>
			</g>
		</g>
	</g>
</g>
</svg>
