<?xml version="1.0" encoding="UTF-8" standalone="no"?>
<!DOCTYPE svg PUBLIC "-//W3C//DTD SVG 1.1//EN" "http://www.w3.org/Graphics/SVG/1.1/DTD/svg11.dtd">
<svg width="100%" height="100%" viewBox="0 0 62 32" version="1.1" xmlns="http://www.w3.org/2000/svg" xmlns:xlink="http://www.w3.org/1999/xlink" xml:space="preserve" xmlns:serif="http://www.serif.com/" style="fill-rule:evenodd;clip-rule:evenodd;stroke-linejoin:round;stroke-miterlimit:2;">
    <g transform="matrix(1,0,0,1,-257,-12)">
        <path d="M319,20C319,15.585 315.415,12 311,12L265,12C260.585,12 257,15.585 257,20L257,36C257,40.415 260.585,44 265,44L311,44C315.415,44 319,40.415 319,36L319,20Z" style="fill:rgb(108,86,249);"/>
    </g>
    <g transform="matrix(1,0,0,1,-257,-12)">
        <path d="M288.127,26.842L286.82,30.606L285.397,26.842L283.362,26.842L285.877,32.898L287.763,32.898L290.096,26.842L288.127,26.842Z" style="fill:white;fill-rule:nonzero;"/>
    </g>
    <g transform="matrix(1,0,0,1,-257,-12)">
        <path d="M297.409,26.842L295.424,26.842L294.067,30.085L292.578,26.842L290.476,26.842L293.057,32.087L291.668,35.231L293.637,35.231L297.409,26.842Z" style="fill:white;fill-rule:nonzero;"/>
    </g>
    <g transform="matrix(1,0,0,1,-257,-12)">
        <path d="M300.065,28.662C300.247,28.463 300.495,28.364 300.801,28.364C301.132,28.364 301.38,28.463 301.546,28.654C301.711,28.844 301.802,29.1 301.802,29.415L301.802,32.906L303.68,32.906L303.68,29.1C303.68,28.397 303.49,27.81 303.109,27.363C302.729,26.908 302.174,26.685 301.446,26.685C301.107,26.685 300.776,26.759 300.454,26.908C300.131,27.057 299.891,27.264 299.734,27.537L299.734,26.842L297.922,26.842L297.922,32.906L299.8,32.906L299.8,29.431C299.784,29.117 299.875,28.86 300.065,28.662Z" style="fill:white;fill-rule:nonzero;"/>
    </g>
    <g transform="matrix(1,0,0,1,-257,-12)">
        <path d="M310.489,29.77C310.489,28.794 310.216,28.033 309.67,27.487C309.124,26.941 308.371,26.668 307.42,26.668C306.592,26.668 305.872,26.966 305.269,27.562C304.665,28.157 304.359,28.927 304.359,29.87C304.359,30.854 304.665,31.64 305.293,32.227C305.914,32.815 306.667,33.104 307.56,33.104C308.296,33.104 308.917,32.922 309.413,32.558C309.91,32.194 310.232,31.739 310.39,31.177L308.826,30.738C308.636,31.268 308.222,31.533 307.593,31.533C307.221,31.533 306.907,31.425 306.634,31.193C306.361,30.97 306.22,30.689 306.203,30.358L310.472,30.358C310.472,30.267 310.489,30.076 310.489,29.77ZM306.22,29.142C306.245,28.885 306.361,28.645 306.576,28.43C306.791,28.215 307.08,28.116 307.436,28.116C307.841,28.116 308.139,28.215 308.346,28.422C308.545,28.629 308.66,28.869 308.677,29.142L306.22,29.142Z" style="fill:white;fill-rule:nonzero;"/>
    </g>
    <g transform="matrix(1,0,0,1,-257,-12)">
        <path d="M273.343,36C272.35,36 271.432,35.462 270.935,34.602L266.054,26.122L267.444,25.32L272.325,33.799C272.532,34.163 272.921,34.387 273.335,34.387C273.765,34.387 274.154,34.155 274.36,33.775L274.369,33.758L281.384,21.605L277.091,21.605C276.214,21.605 275.403,22.077 274.956,22.829L273.078,26.13L271.68,25.336L273.574,22.019C274.311,20.778 275.668,20 277.107,20L281.856,20C282.592,20 283.196,20.604 283.196,21.34C283.196,21.547 283.146,21.762 283.055,21.944L283.031,21.985L275.775,34.552C275.287,35.446 274.36,36 273.343,36Z" style="fill:white;fill-rule:nonzero;"/>
    </g>
    <g transform="matrix(1,0,0,1,-257,-12)">
        <path d="M269.57,28.141C267.328,28.141 265.5,26.321 265.5,24.07C265.5,21.82 267.328,20 269.57,20C271.812,20 273.641,21.828 273.641,24.07C273.641,26.312 271.821,28.141 269.57,28.141ZM269.57,21.605C268.214,21.605 267.105,22.714 267.105,24.07C267.105,25.427 268.214,26.536 269.57,26.536C270.927,26.536 272.036,25.427 272.036,24.07C272.036,22.714 270.927,21.605 269.57,21.605Z" style="fill:white;fill-rule:nonzero;"/>
    </g>
    <g transform="matrix(1,0,0,1,-257,-12)">
        <path d="M273.318,22.474C272.921,21.547 272.193,20.803 271.283,20.381L270.48,21.787C271.39,22.143 272.036,23.037 272.036,24.071C272.036,24.459 271.945,24.824 271.787,25.154L273.318,22.474Z" style="fill:url(#_Linear1);fill-rule:nonzero;"/>
    </g>
    <defs>
        <linearGradient id="_Linear1" x1="0" y1="0" x2="1" y2="0" gradientUnits="userSpaceOnUse" gradientTransform="matrix(-2.583,-1.8087,1.8087,-2.583,272.843,23.6437)"><stop offset="0" style="stop-color:rgb(166,166,166);stop-opacity:1"/><stop offset="0.12" style="stop-color:rgb(166,166,166);stop-opacity:1"/><stop offset="0.17" style="stop-color:rgb(176,176,176);stop-opacity:1"/><stop offset="0.47" style="stop-color:rgb(233,233,233);stop-opacity:1"/><stop offset="0.61" style="stop-color:white;stop-opacity:1"/><stop offset="1" style="stop-color:white;stop-opacity:1"/></linearGradient>
    </defs>
</svg>
