<?xml version="1.0" encoding="utf-8"?>
<!-- Generator: Adobe Illustrator 26.0.3, SVG Export Plug-In . SVG Version: 6.00 Build 0)  -->
<svg version="1.1" id="Layer_1" xmlns="http://www.w3.org/2000/svg" xmlns:xlink="http://www.w3.org/1999/xlink" x="0px" y="0px"
	 viewBox="0 0 543.8 193.4" style="enable-background:new 0 0 543.8 193.4;" xml:space="preserve">
<style type="text/css">
	.st0{fill:#0C0128;}
</style>
<g>
	<polygon class="st0" points="257.7,128.2 240.5,82.7 215.9,82.7 246.3,155.9 269.1,155.9 297.3,82.7 273.5,82.7 	"/>
	<polygon class="st0" points="345.3,121.9 327.3,82.7 302,82.7 333.1,146.1 316.2,184.1 340.1,184.1 385.7,82.7 361.7,82.7 	"/>
	<path class="st0" d="M434.4,80.8c-4.1,0-8.1,0.9-12,2.7c-3.9,1.8-6.8,4.3-8.7,7.6v-8.4h-21.9v73.3h22.6v-42c0-3.7,1.1-6.8,3.4-9.2
		c2.2-2.4,5.2-3.6,8.9-3.6c4,0,7,1.2,9,3.5c2,2.3,3.1,5.4,3.1,9.2v42.2h22.6v-46c0-8.6-2.3-15.6-6.9-21
		C449.9,83.5,443.2,80.8,434.4,80.8z"/>
	<path class="st0" d="M543.8,118.1c0-11.8-3.3-21-9.9-27.6c-6.6-6.6-15.7-9.9-27.2-9.9c-10,0-18.7,3.6-26,10.8
		c-7.3,7.2-11,16.5-11,27.9c0,11.9,3.8,21.4,11.2,28.5c7.5,7.1,16.6,10.6,27.4,10.6c8.9,0,16.4-2.2,22.4-6.6
		c6-4.4,9.9-9.9,11.8-16.7l-18.9-5.3c-2.3,6.4-7.2,9.6-14.9,9.6c-4.5,0-8.4-1.4-11.6-4.1c-3.3-2.7-5-6.1-5.2-10.1h51.6
		C543.6,124.1,543.8,121.8,543.8,118.1z M492.2,110.5c0.3-3.1,1.7-6,4.3-8.6c2.6-2.6,6.1-3.8,10.4-3.8c4.9,0,8.5,1.2,11,3.7
		c2.4,2.5,3.8,5.4,4,8.7C521.8,110.5,492.2,110.5,492.2,110.5z"/>
	<path class="st0" d="M197.7,0h-57.4c-17.4,0-33.8,9.4-42.6,24.4L94.5,30C87,12.4,69.5,0,49.2,0C22.1,0,0,22.1,0,49.2
		c0,9,2.5,17.5,6.7,24.8l-0.1,0l59,102.5c5.9,10.4,17.1,16.9,29.1,16.9c12.3,0,23.5-6.7,29.4-17.5L211.9,24l0.3-0.5
		c1.1-2.2,1.7-4.8,1.7-7.3C213.9,7.3,206.6,0,197.7,0z M19.4,49.2c0-16.4,13.4-29.8,29.8-29.8S79,32.8,79,49.2c0,5-1.3,9.8-3.5,14
		l-0.7,1.3h0C69.6,73.2,60.1,79,49.2,79C32.8,79,19.4,65.7,19.4,49.2z M107.3,166.3l-0.1,0.2c-2.5,4.6-7.2,7.4-12.4,7.4
		c-5,0-9.7-2.7-12.2-7.1L42.9,98c2.1,0.3,4.2,0.4,6.3,0.4c18.1,0,33.9-9.8,42.4-24.3l0,0l0.2-0.4c0.2-0.4,0.4-0.7,0.6-1.1l22-38.4
		c5.4-9.1,15.2-14.8,25.8-14.8h51.9L107.3,166.3z"/>
</g>
</svg>
