<?xml version="1.0" encoding="UTF-8" standalone="no"?>
<!DOCTYPE svg PUBLIC "-//W3C//DTD SVG 1.1//EN" "http://www.w3.org/Graphics/SVG/1.1/DTD/svg11.dtd">
<svg width="100%" height="100%" viewBox="0 0 57 20" version="1.1" xmlns="http://www.w3.org/2000/svg" xmlns:xlink="http://www.w3.org/1999/xlink" xml:space="preserve" xmlns:serif="http://www.serif.com/" style="fill-rule:evenodd;clip-rule:evenodd;stroke-linejoin:round;stroke-miterlimit:2;">
    <g transform="matrix(1,0,0,1,-262.253,-18)">
        <path d="M290.536,26.552L288.902,31.257L287.123,26.552L284.58,26.552L287.723,34.122L290.081,34.122L292.997,26.552L290.536,26.552Z" style="fill:white;fill-rule:nonzero;"/>
        <path d="M302.139,26.552L299.657,26.552L297.961,30.606L296.1,26.552L293.473,26.552L296.699,33.108L294.962,37.038L297.423,37.038L302.139,26.552Z" style="fill:white;fill-rule:nonzero;"/>
        <path d="M305.459,28.827C305.686,28.579 305.996,28.455 306.379,28.455C306.793,28.455 307.103,28.579 307.31,28.817C307.516,29.055 307.63,29.375 307.63,29.768L307.63,34.132L309.978,34.132L309.978,29.375C309.978,28.496 309.74,27.762 309.264,27.203C308.788,26.635 308.096,26.356 307.186,26.356C306.762,26.356 306.348,26.449 305.945,26.635C305.541,26.821 305.241,27.079 305.045,27.421L305.045,26.552L302.78,26.552L302.78,34.132L305.128,34.132L305.128,29.789C305.107,29.396 305.221,29.075 305.459,28.827Z" style="fill:white;fill-rule:nonzero;"/>
        <path d="M318.488,30.213C318.488,28.993 318.147,28.041 317.465,27.359C316.782,26.676 315.841,26.335 314.652,26.335C313.618,26.335 312.718,26.707 311.963,27.452C311.208,28.196 310.826,29.158 310.826,30.337C310.826,31.568 311.208,32.55 311.994,33.284C312.77,34.019 313.711,34.381 314.828,34.381C315.748,34.381 316.524,34.153 317.144,33.698C317.765,33.243 318.168,32.674 318.364,31.971L316.41,31.423C316.172,32.085 315.655,32.416 314.869,32.416C314.404,32.416 314.011,32.281 313.669,31.992C313.328,31.712 313.152,31.361 313.132,30.947L318.468,30.947C318.468,30.833 318.488,30.596 318.488,30.213ZM313.152,29.427C313.183,29.106 313.328,28.807 313.597,28.538C313.866,28.269 314.228,28.145 314.673,28.145C315.179,28.145 315.552,28.269 315.81,28.527C316.058,28.786 316.203,29.086 316.224,29.427L313.152,29.427Z" style="fill:white;fill-rule:nonzero;"/>
        <path d="M272.056,38C270.815,38 269.668,37.328 269.047,36.252L262.946,25.653L264.683,24.649L270.784,35.249C271.043,35.704 271.529,35.984 272.046,35.984C272.584,35.984 273.07,35.694 273.328,35.218L273.339,35.198L282.108,20.006L276.741,20.006C275.645,20.006 274.631,20.596 274.073,21.537L271.725,25.663L269.978,24.67L272.346,20.523C273.266,18.972 274.962,18 276.762,18L282.698,18C283.618,18 284.373,18.755 284.373,19.675C284.373,19.934 284.311,20.203 284.197,20.43L284.166,20.482L275.097,36.19C274.487,37.307 273.328,38 272.056,38Z" style="fill:white;fill-rule:nonzero;"/>
        <path d="M267.341,28.176C264.538,28.176 262.253,25.901 262.253,23.088C262.253,20.275 264.538,18 267.341,18C270.143,18 272.429,20.285 272.429,23.088C272.429,25.89 270.154,28.176 267.341,28.176ZM267.341,20.006C265.645,20.006 264.259,21.392 264.259,23.088C264.259,24.784 265.645,26.17 267.341,26.17C269.037,26.17 270.422,24.784 270.422,23.088C270.422,21.392 269.037,20.006 267.341,20.006Z" style="fill:white;fill-rule:nonzero;"/>
        <path d="M272.025,21.092C271.529,19.934 270.619,19.003 269.481,18.476L268.478,20.234C269.616,20.678 270.422,21.795 270.422,23.088C270.422,23.574 270.309,24.029 270.112,24.443L272.025,21.092Z" style="fill:url(#_Linear1);fill-rule:nonzero;"/>
    </g>
    <defs>
        <linearGradient id="_Linear1" x1="0" y1="0" x2="1" y2="0" gradientUnits="userSpaceOnUse" gradientTransform="matrix(-3.229,-2.2608,2.2608,-3.229,271.432,22.5541)"><stop offset="0" style="stop-color:rgb(166,166,166);stop-opacity:1"/><stop offset="0.12" style="stop-color:rgb(166,166,166);stop-opacity:1"/><stop offset="0.17" style="stop-color:rgb(176,176,176);stop-opacity:1"/><stop offset="0.47" style="stop-color:rgb(233,233,233);stop-opacity:1"/><stop offset="0.61" style="stop-color:white;stop-opacity:1"/><stop offset="1" style="stop-color:white;stop-opacity:1"/></linearGradient>
    </defs>
</svg>
