<svg width="283" height="164" viewBox="0 0 283 164" fill="none" xmlns="http://www.w3.org/2000/svg">
<path d="M22.304 34.192C24.112 34.192 25.696 33.344 26.688 32.048L25.216 30.928C24.544 31.808 23.552 32.368 22.352 32.368C20.224 32.368 18.672 30.608 18.672 28.496C18.672 26.384 20.256 24.608 22.352 24.608C23.552 24.608 24.544 25.168 25.216 26.048L26.688 24.928C25.696 23.632 24.112 22.784 22.304 22.784C19.2 22.784 16.704 25.376 16.704 28.496C16.704 31.616 19.2 34.192 22.304 34.192ZM33.8629 26.528V27.568C33.3669 26.784 32.3749 26.336 31.3509 26.336C29.2389 26.336 27.7029 28 27.7029 30.256C27.7029 32.576 29.3029 34.192 31.3029 34.192C32.3749 34.192 33.3669 33.648 33.8629 32.832V34H35.7189V26.528H33.8629ZM31.6869 32.464C30.4709 32.464 29.5589 31.456 29.5589 30.256C29.5589 29.056 30.4709 28.064 31.6709 28.064C32.7749 28.064 33.8309 28.976 33.8309 30.256C33.8309 31.504 32.8389 32.464 31.6869 32.464ZM41.9321 26.336C41.0041 26.336 40.1881 26.88 39.7881 28.128V26.528H37.9321V34H39.8041V31.392C39.8041 29.296 40.4761 28.08 41.6921 28.08C41.9641 28.08 42.3481 28.128 42.7801 28.352L43.1481 26.592C42.8601 26.432 42.3801 26.336 41.9321 26.336ZM49.8629 22.464V27.504C49.3509 26.72 48.3109 26.336 47.3669 26.336C45.3989 26.336 43.7029 27.856 43.7029 30.256C43.7029 32.64 45.4149 34.192 47.3829 34.192C48.2949 34.192 49.3509 33.792 49.8629 33.008V34H51.7189V22.464H49.8629ZM47.6709 32.464C46.5189 32.464 45.5749 31.488 45.5749 30.24C45.5749 28.992 46.5189 28.064 47.6709 28.064C48.7429 28.064 49.8309 28.928 49.8309 30.24C49.8309 31.552 48.8069 32.464 47.6709 32.464ZM62.0144 26.336C61.2464 26.336 60.0784 26.768 59.6944 27.712V26.528H57.8384V34H59.6944V30.032C59.6944 28.592 60.7504 28.096 61.5984 28.096C62.4304 28.096 63.1504 28.736 63.1504 29.936V34H65.0064V29.808C65.0064 27.632 63.9344 26.336 62.0144 26.336ZM70.6236 34.192C72.7516 34.192 74.6076 32.624 74.6076 30.256C74.6076 27.888 72.7516 26.336 70.6236 26.336C68.4956 26.336 66.6556 27.888 66.6556 30.256C66.6556 32.624 68.4956 34.192 70.6236 34.192ZM70.6236 32.464C69.4716 32.464 68.5276 31.568 68.5276 30.256C68.5276 28.976 69.4716 28.064 70.6236 28.064C71.7756 28.064 72.7356 28.976 72.7356 30.256C72.7356 31.568 71.7756 32.464 70.6236 32.464ZM80.3254 26.528H78.7414V23.776H76.8854V26.528H75.5414V28H76.8854V34H78.7414V28H80.3254V26.528ZM86.5789 25.024C87.2509 25.024 87.7789 24.528 87.7789 23.888C87.7789 23.232 87.2509 22.752 86.5789 22.752C85.9229 22.752 85.3629 23.232 85.3629 23.888C85.3629 24.528 85.9229 25.024 86.5789 25.024ZM85.6509 34H87.5069V26.528H85.6509V34ZM93.8894 26.336C93.1214 26.336 91.9534 26.768 91.5694 27.712V26.528H89.7134V34H91.5694V30.032C91.5694 28.592 92.6254 28.096 93.4734 28.096C94.3054 28.096 95.0254 28.736 95.0254 29.936V34H96.8814V29.808C96.8814 27.632 95.8094 26.336 93.8894 26.336ZM107.077 26.336C106.325 26.336 105.125 26.752 104.757 27.664V22.464H102.901V34H104.757V30.048C104.757 28.592 105.813 28.096 106.661 28.096C107.493 28.096 108.213 28.736 108.213 29.936V34H110.069V29.808C110.069 27.632 108.997 26.336 107.077 26.336ZM117.894 26.528V27.568C117.398 26.784 116.406 26.336 115.382 26.336C113.27 26.336 111.734 28 111.734 30.256C111.734 32.576 113.334 34.192 115.334 34.192C116.406 34.192 117.398 33.648 117.894 32.832V34H119.75V26.528H117.894ZM115.718 32.464C114.502 32.464 113.59 31.456 113.59 30.256C113.59 29.056 114.502 28.064 115.702 28.064C116.806 28.064 117.862 28.976 117.862 30.256C117.862 31.504 116.87 32.464 115.718 32.464ZM126.139 26.336C125.371 26.336 124.203 26.768 123.819 27.712V26.528H121.963V34H123.819V30.032C123.819 28.592 124.875 28.096 125.723 28.096C126.555 28.096 127.275 28.736 127.275 29.936V34H129.131V29.808C129.131 27.632 128.059 26.336 126.139 26.336ZM136.957 22.464V27.504C136.445 26.72 135.405 26.336 134.461 26.336C132.493 26.336 130.797 27.856 130.797 30.256C130.797 32.64 132.509 34.192 134.477 34.192C135.389 34.192 136.445 33.792 136.957 33.008V34H138.813V22.464H136.957ZM134.765 32.464C133.613 32.464 132.669 31.488 132.669 30.24C132.669 28.992 133.613 28.064 134.765 28.064C135.837 28.064 136.925 28.928 136.925 30.24C136.925 31.552 135.901 32.464 134.765 32.464ZM142.178 30.48H143.778L143.794 30.048C143.794 29.36 144.242 29.184 144.866 28.976C146.114 28.576 147.09 27.456 147.09 25.904C147.09 23.984 145.682 22.784 143.858 22.784C142.034 22.784 140.514 24.016 140.514 26.16H142.258C142.274 25.12 143.058 24.528 143.842 24.528C144.674 24.528 145.282 25.04 145.282 25.952C145.282 26.544 144.914 27.12 144.274 27.344L143.73 27.568C142.53 28.048 142.082 28.736 142.178 30.048V30.48ZM142.978 34.144C143.65 34.144 144.21 33.648 144.21 32.96C144.21 32.288 143.65 31.776 142.978 31.776C142.306 31.776 141.746 32.288 141.746 32.96C141.746 33.648 142.306 34.144 142.978 34.144ZM22.304 58.192C24.112 58.192 25.696 57.344 26.688 56.048L25.216 54.928C24.544 55.808 23.552 56.368 22.352 56.368C20.224 56.368 18.672 54.608 18.672 52.496C18.672 50.384 20.256 48.608 22.352 48.608C23.552 48.608 24.544 49.168 25.216 50.048L26.688 48.928C25.696 47.632 24.112 46.784 22.304 46.784C19.2 46.784 16.704 49.376 16.704 52.496C16.704 55.616 19.2 58.192 22.304 58.192ZM32.405 50.336C31.653 50.336 30.453 50.752 30.085 51.664V46.464H28.229V58H30.085V54.048C30.085 52.592 31.141 52.096 31.989 52.096C32.821 52.096 33.541 52.736 33.541 53.936V58H35.397V53.808C35.397 51.632 34.325 50.336 32.405 50.336ZM44.7903 54.192C44.7903 51.856 43.1103 50.336 40.9823 50.336C38.8383 50.336 37.0623 51.872 37.0623 54.256C37.0623 56.592 38.7582 58.192 40.9823 58.192C42.3423 58.192 43.6703 57.584 44.3583 56.496L43.1103 55.552C42.6783 56.16 41.8943 56.512 41.0943 56.512C39.9743 56.512 39.1743 55.952 38.9663 54.912H44.7583C44.7743 54.64 44.7903 54.4 44.7903 54.192ZM38.9663 53.616C39.1903 52.48 40.0063 51.984 40.9983 51.984C42.0383 51.984 42.8383 52.592 42.9503 53.616H38.9663ZM50.0786 58.192C51.3746 58.192 52.4306 57.616 53.1186 56.752L51.8066 55.712C51.4226 56.176 50.7826 56.464 50.1106 56.464C48.8146 56.464 47.8866 55.504 47.8866 54.256C47.8866 52.992 48.8146 52.064 50.1106 52.064C50.7826 52.064 51.4226 52.352 51.8066 52.816L53.1186 51.776C52.4306 50.912 51.3746 50.336 50.0786 50.336C47.9186 50.336 46.0146 51.888 46.0146 54.256C46.0146 56.624 47.9186 58.192 50.0786 58.192ZM61.8334 58L58.0894 53.792L61.1294 50.528H58.7134L56.5694 52.912V46.464H54.7134V58H56.5694V54.608L59.4814 58H61.8334ZM65.8424 58.192C67.9704 58.192 69.8264 56.624 69.8264 54.256C69.8264 51.888 67.9704 50.336 65.8424 50.336C63.7144 50.336 61.8744 51.888 61.8744 54.256C61.8744 56.624 63.7144 58.192 65.8424 58.192ZM65.8424 56.464C64.6904 56.464 63.7464 55.568 63.7464 54.256C63.7464 52.976 64.6904 52.064 65.8424 52.064C66.9944 52.064 67.9544 52.976 67.9544 54.256C67.9544 55.568 66.9944 56.464 65.8424 56.464ZM76.7888 50.528V54.528C76.7888 55.984 75.7328 56.464 74.8848 56.464C74.0528 56.464 73.3328 55.84 73.3328 54.64V50.528H71.4768V54.72C71.4768 56.896 72.5488 58.192 74.4688 58.192C75.2208 58.192 76.4048 57.776 76.7888 56.832V58H78.6448V50.528H76.7888ZM84.966 50.528H83.382V47.776H81.526V50.528H80.182V52H81.526V58H83.382V52H84.966V50.528ZM92.7875 58.192C94.3075 58.192 95.8275 57.36 95.8275 55.84C95.8275 55.152 95.5235 54.096 93.8435 53.664L92.6435 53.344C92.2115 53.248 91.8435 53.024 91.8435 52.64C91.8435 52.176 92.2435 51.84 92.8195 51.84C93.3475 51.84 93.8115 52.16 93.8115 52.672H95.5875C95.6035 51.008 94.0995 50.336 92.7715 50.336C91.1395 50.336 89.9875 51.392 89.9875 52.56C89.9875 53.504 90.4195 54.4 92.0995 54.848L93.0915 55.104C93.6515 55.232 93.9715 55.424 93.9715 55.84C93.9715 56.32 93.4915 56.688 92.7555 56.688C91.9715 56.688 91.5235 56.208 91.5235 55.696H89.7795C89.8115 57.296 91.2995 58.192 92.7875 58.192ZM104.837 54.192C104.837 51.856 103.157 50.336 101.029 50.336C98.8851 50.336 97.1091 51.872 97.1091 54.256C97.1091 56.592 98.8051 58.192 101.029 58.192C102.389 58.192 103.717 57.584 104.405 56.496L103.157 55.552C102.725 56.16 101.941 56.512 101.141 56.512C100.021 56.512 99.2211 55.952 99.0131 54.912H104.805C104.821 54.64 104.837 54.4 104.837 54.192ZM99.0131 53.616C99.2371 52.48 100.053 51.984 101.045 51.984C102.085 51.984 102.885 52.592 102.997 53.616H99.0131ZM110.126 58.192C111.422 58.192 112.478 57.616 113.166 56.752L111.854 55.712C111.47 56.176 110.83 56.464 110.158 56.464C108.862 56.464 107.934 55.504 107.934 54.256C107.934 52.992 108.862 52.064 110.158 52.064C110.83 52.064 111.47 52.352 111.854 52.816L113.166 51.776C112.478 50.912 111.422 50.336 110.126 50.336C107.966 50.336 106.062 51.888 106.062 54.256C106.062 56.624 107.966 58.192 110.126 58.192ZM119.976 50.528V54.528C119.976 55.984 118.92 56.464 118.072 56.464C117.24 56.464 116.52 55.84 116.52 54.64V50.528H114.664V54.72C114.664 56.896 115.736 58.192 117.656 58.192C118.408 58.192 119.592 57.776 119.976 56.832V58H121.832V50.528H119.976ZM128.042 50.336C127.114 50.336 126.298 50.88 125.898 52.128V50.528H124.042V58H125.914V55.392C125.914 53.296 126.586 52.08 127.802 52.08C128.074 52.08 128.458 52.128 128.89 52.352L129.258 50.592C128.97 50.432 128.49 50.336 128.042 50.336ZM137.54 54.192C137.54 51.856 135.86 50.336 133.732 50.336C131.588 50.336 129.812 51.872 129.812 54.256C129.812 56.592 131.508 58.192 133.732 58.192C135.092 58.192 136.42 57.584 137.108 56.496L135.86 55.552C135.428 56.16 134.644 56.512 133.844 56.512C132.724 56.512 131.924 55.952 131.716 54.912H137.508C137.524 54.64 137.54 54.4 137.54 54.192ZM131.716 53.616C131.94 52.48 132.756 51.984 133.748 51.984C134.788 51.984 135.588 52.592 135.7 53.616H131.716ZM139.245 58H141.101V46.464H139.245V58ZM148.235 50.528L146.315 55.264L144.379 50.528H142.347L145.323 57.472L143.643 61.648H145.595L150.235 50.528H148.235ZM164.128 50.528L162.544 55.344L160.96 50.528H159.312L157.728 55.344L156.144 50.528H154.144L156.912 58H158.464L160.128 52.896L161.872 58H163.44L166.128 50.528H164.128ZM168.313 49.024C168.985 49.024 169.513 48.528 169.513 47.888C169.513 47.232 168.985 46.752 168.313 46.752C167.657 46.752 167.097 47.232 167.097 47.888C167.097 48.528 167.657 49.024 168.313 49.024ZM167.385 58H169.241V50.528H167.385V58ZM175.56 50.528H173.976V47.776H172.12V50.528H170.776V52H172.12V58H173.976V52H175.56V50.528ZM181.155 50.336C180.403 50.336 179.203 50.752 178.835 51.664V46.464H176.979V58H178.835V54.048C178.835 52.592 179.891 52.096 180.739 52.096C181.571 52.096 182.291 52.736 182.291 53.936V58H184.147V53.808C184.147 51.632 183.075 50.336 181.155 50.336ZM194.985 50.528L193.065 55.264L191.129 50.528H189.097L192.073 57.472L190.393 61.648H192.345L196.985 50.528H194.985ZM201.499 58.192C203.627 58.192 205.483 56.624 205.483 54.256C205.483 51.888 203.627 50.336 201.499 50.336C199.371 50.336 197.531 51.888 197.531 54.256C197.531 56.624 199.371 58.192 201.499 58.192ZM201.499 56.464C200.347 56.464 199.403 55.568 199.403 54.256C199.403 52.976 200.347 52.064 201.499 52.064C202.651 52.064 203.611 52.976 203.611 54.256C203.611 55.568 202.651 56.464 201.499 56.464ZM212.445 50.528V54.528C212.445 55.984 211.389 56.464 210.541 56.464C209.709 56.464 208.989 55.84 208.989 54.64V50.528H207.133V54.72C207.133 56.896 208.205 58.192 210.125 58.192C210.877 58.192 212.061 57.776 212.445 56.832V58H214.301V50.528H212.445ZM220.51 50.336C219.582 50.336 218.766 50.88 218.366 52.128V50.528H216.51V58H218.382V55.392C218.382 53.296 219.054 52.08 220.27 52.08C220.542 52.08 220.926 52.128 221.358 52.352L221.726 50.592C221.438 50.432 220.958 50.336 220.51 50.336ZM230.8 50.336C229.856 50.336 228.816 50.72 228.304 51.52V46.464H226.448V58H228.304V56.992C228.816 57.792 229.888 58.192 230.784 58.192C232.752 58.192 234.464 56.64 234.464 54.256C234.464 51.856 232.768 50.336 230.8 50.336ZM230.496 56.464C229.36 56.464 228.336 55.552 228.336 54.24C228.336 52.928 229.424 52.064 230.496 52.064C231.648 52.064 232.608 52.992 232.608 54.24C232.608 55.488 231.648 56.464 230.496 56.464ZM241.941 50.528V51.568C241.445 50.784 240.453 50.336 239.429 50.336C237.317 50.336 235.781 52 235.781 54.256C235.781 56.576 237.381 58.192 239.381 58.192C240.453 58.192 241.445 57.648 241.941 56.832V58H243.797V50.528H241.941ZM239.765 56.464C238.549 56.464 237.637 55.456 237.637 54.256C237.637 53.056 238.549 52.064 239.749 52.064C240.853 52.064 241.909 52.976 241.909 54.256C241.909 55.504 240.917 56.464 239.765 56.464ZM250.186 50.336C249.418 50.336 248.25 50.768 247.866 51.712V50.528H246.01V58H247.866V54.032C247.866 52.592 248.922 52.096 249.77 52.096C250.602 52.096 251.322 52.736 251.322 53.936V58H253.178V53.808C253.178 51.632 252.106 50.336 250.186 50.336ZM262.411 58L258.668 53.792L261.708 50.528H259.292L257.148 52.912V46.464H255.292V58H257.148V54.608L260.06 58H262.411ZM264.314 58.16C264.986 58.16 265.546 57.664 265.546 56.976C265.546 56.288 264.986 55.792 264.314 55.792C263.658 55.792 263.098 56.288 263.098 56.976C263.098 57.664 263.658 58.16 264.314 58.16Z" fill="#0C0128"/>
<path d="M27.3334 86H20.6667C19.93 86 19.3334 85.4033 19.3334 84.6667V79.3333C19.3334 78.5967 19.93 78 20.6667 78H27.3334C28.07 78 28.6667 78.5967 28.6667 79.3333V84.6667C28.6667 85.4033 28.07 86 27.3334 86Z" stroke="#9B99AD" stroke-width="0.977" stroke-linecap="round" stroke-linejoin="round"/>
<path d="M26.6667 78V76.6667C26.6667 75.194 25.4727 74 24 74C22.5274 74 21.3334 75.194 21.3334 76.6667V78" stroke="#9B99AD" stroke-width="0.9354" stroke-linecap="round" stroke-linejoin="round"/>
<path d="M23.9986 81.667C23.8146 81.667 23.6653 81.8163 23.6666 82.0003C23.6666 82.1843 23.816 82.3337 24 82.3337C24.184 82.3337 24.3333 82.1843 24.3333 82.0003C24.3333 81.8163 24.184 81.667 23.9986 81.667Z" fill="#9B99AD" stroke="#9B99AD" stroke-linecap="round" stroke-linejoin="round"/>
<path d="M42.024 75.732V82.008L38.232 75.732H37.152V84H38.244V77.7L42.06 84H43.116V75.732H42.024ZM47.5888 84.144C49.1848 84.144 50.5288 82.968 50.5288 81.192C50.5288 79.416 49.1848 78.252 47.5888 78.252C45.9928 78.252 44.6608 79.416 44.6608 81.192C44.6608 82.968 45.9928 84.144 47.5888 84.144ZM47.5888 83.16C46.5688 83.16 45.7168 82.356 45.7168 81.192C45.7168 80.04 46.5688 79.236 47.5888 79.236C48.6208 79.236 49.4848 80.04 49.4848 81.192C49.4848 82.356 48.6208 83.16 47.5888 83.16ZM57.6335 84.144C58.5095 84.144 59.2775 83.808 59.7695 83.256L59.1095 82.572C58.7615 82.932 58.2575 83.16 57.6695 83.16C56.5655 83.16 55.6775 82.344 55.6775 81.192C55.6775 80.04 56.5655 79.236 57.6695 79.236C58.2575 79.236 58.7615 79.464 59.1095 79.824L59.7695 79.14C59.2775 78.6 58.5095 78.252 57.6335 78.252C56.0255 78.252 54.6215 79.416 54.6215 81.192C54.6215 82.968 56.0255 84.144 57.6335 84.144ZM65.3632 78.396V79.272C64.9912 78.612 64.1992 78.252 63.3592 78.252C61.7752 78.252 60.5632 79.536 60.5632 81.192C60.5632 82.908 61.8472 84.144 63.3112 84.144C64.2112 84.144 64.9912 83.676 65.3632 83.004V84H66.4072V78.396H65.3632ZM63.4672 83.16C62.4352 83.16 61.6192 82.26 61.6192 81.192C61.6192 80.136 62.4352 79.236 63.4552 79.236C64.3912 79.236 65.3632 80.04 65.3632 81.192C65.3632 82.332 64.4632 83.16 63.4672 83.16ZM70.8642 78.252C70.1202 78.252 69.5802 78.684 69.2922 79.668V78.396H68.2362V84H69.2922V81.948C69.2922 80.472 69.7362 79.26 70.8522 79.26C71.0682 79.26 71.3682 79.308 71.6682 79.452L71.8362 78.468C71.6682 78.36 71.2602 78.252 70.8642 78.252ZM77.1173 75.348V79.272C76.7453 78.612 75.9533 78.252 75.1133 78.252C73.5773 78.252 72.3173 79.416 72.3173 81.192C72.3173 82.956 73.5893 84.144 75.1253 84.144C75.9293 84.144 76.7453 83.76 77.1173 83.124V84H78.1613V75.348H77.1173ZM75.2093 83.16C74.1893 83.16 73.3733 82.296 73.3733 81.18C73.3733 80.052 74.1893 79.236 75.2093 79.236C76.1333 79.236 77.1173 79.968 77.1173 81.18C77.1173 82.38 76.2173 83.16 75.2093 83.16ZM81.6341 84.144C82.7981 84.144 83.8061 83.484 83.8061 82.44C83.8061 81.804 83.5061 81.108 82.3421 80.82L81.5141 80.616C81.1541 80.532 80.7941 80.328 80.7941 79.944C80.7941 79.512 81.1541 79.164 81.6941 79.164C82.1381 79.164 82.5821 79.452 82.5941 79.884H83.6021C83.6021 78.756 82.6181 78.252 81.6701 78.252C80.5421 78.252 79.7501 78.984 79.7501 79.908C79.7501 80.808 80.2901 81.264 81.2261 81.516L81.9941 81.696C82.4381 81.792 82.7621 82.008 82.7621 82.428C82.7621 82.884 82.3421 83.232 81.6341 83.232C80.9501 83.232 80.5301 82.836 80.5181 82.356H79.5461C79.5941 83.508 80.6261 84.144 81.6341 84.144ZM85.001 85.932C85.925 85.152 86.477 83.868 86.333 82.488H85.193C85.349 83.952 84.953 84.756 84.281 85.716L85.001 85.932ZM94.0738 78.252C93.4618 78.252 92.5498 78.564 92.2138 79.248V78.396H91.1698V84H92.2138V80.964C92.2138 79.752 93.1498 79.284 93.9298 79.284C94.7098 79.284 95.2858 79.884 95.2858 80.82V84H96.3298V80.76C96.3418 79.188 95.4658 78.252 94.0738 78.252ZM100.616 84.144C102.212 84.144 103.556 82.968 103.556 81.192C103.556 79.416 102.212 78.252 100.616 78.252C99.0202 78.252 97.6882 79.416 97.6882 81.192C97.6882 82.968 99.0202 84.144 100.616 84.144ZM100.616 83.16C99.5962 83.16 98.7442 82.356 98.7442 81.192C98.7442 80.04 99.5962 79.236 100.616 79.236C101.648 79.236 102.512 80.04 102.512 81.192C102.512 82.356 101.648 83.16 100.616 83.16ZM112.461 78.396V79.272C112.089 78.612 111.297 78.252 110.457 78.252C108.873 78.252 107.661 79.536 107.661 81.192C107.661 82.908 108.945 84.144 110.409 84.144C111.309 84.144 112.089 83.676 112.461 83.004V84H113.505V78.396H112.461ZM110.565 83.16C109.533 83.16 108.717 82.26 108.717 81.192C108.717 80.136 109.533 79.236 110.553 79.236C111.489 79.236 112.461 80.04 112.461 81.192C112.461 82.332 111.561 83.16 110.565 83.16ZM118.37 78.252C117.566 78.252 116.75 78.636 116.378 79.272V78.396H115.334V86.724H116.378V83.124C116.75 83.784 117.542 84.144 118.382 84.144C119.918 84.144 121.178 82.98 121.178 81.204C121.178 79.44 119.906 78.252 118.37 78.252ZM118.274 83.16C117.362 83.16 116.378 82.428 116.378 81.216C116.378 80.016 117.278 79.236 118.274 79.236C119.306 79.236 120.122 80.1 120.122 81.216C120.122 82.344 119.306 83.16 118.274 83.16ZM125.671 78.252C124.867 78.252 124.051 78.636 123.679 79.272V78.396H122.635V86.724H123.679V83.124C124.051 83.784 124.843 84.144 125.683 84.144C127.219 84.144 128.479 82.98 128.479 81.204C128.479 79.44 127.207 78.252 125.671 78.252ZM125.575 83.16C124.663 83.16 123.679 82.428 123.679 81.216C123.679 80.016 124.579 79.236 125.575 79.236C126.607 79.236 127.423 80.1 127.423 81.216C127.423 82.344 126.607 83.16 125.575 83.16ZM137.399 75.348V79.272C137.027 78.612 136.235 78.252 135.395 78.252C133.859 78.252 132.599 79.416 132.599 81.192C132.599 82.956 133.871 84.144 135.407 84.144C136.211 84.144 137.027 83.76 137.399 83.124V84H138.443V75.348H137.399ZM135.491 83.16C134.471 83.16 133.655 82.296 133.655 81.18C133.655 80.052 134.471 79.236 135.491 79.236C136.415 79.236 137.399 79.968 137.399 81.18C137.399 82.38 136.499 83.16 135.491 83.16ZM142.815 84.144C144.411 84.144 145.755 82.968 145.755 81.192C145.755 79.416 144.411 78.252 142.815 78.252C141.219 78.252 139.887 79.416 139.887 81.192C139.887 82.968 141.219 84.144 142.815 84.144ZM142.815 83.16C141.795 83.16 140.943 82.356 140.943 81.192C140.943 80.04 141.795 79.236 142.815 79.236C143.847 79.236 144.711 80.04 144.711 81.192C144.711 82.356 143.847 83.16 142.815 83.16ZM154.243 78.396L152.815 82.38L151.375 78.396H150.355L148.927 82.38L147.499 78.396H146.371L148.507 84H149.371L150.859 79.836L152.407 84H153.283L155.371 78.396H154.243ZM159.371 78.252C158.759 78.252 157.847 78.564 157.511 79.248V78.396H156.467V84H157.511V80.964C157.511 79.752 158.447 79.284 159.227 79.284C160.007 79.284 160.583 79.884 160.583 80.82V84H161.627V80.76C161.639 79.188 160.763 78.252 159.371 78.252ZM163.369 84H164.413V75.348H163.369V84ZM168.772 84.144C170.368 84.144 171.712 82.968 171.712 81.192C171.712 79.416 170.368 78.252 168.772 78.252C167.176 78.252 165.844 79.416 165.844 81.192C165.844 82.968 167.176 84.144 168.772 84.144ZM168.772 83.16C167.752 83.16 166.9 82.356 166.9 81.192C166.9 80.04 167.752 79.236 168.772 79.236C169.804 79.236 170.668 80.04 170.668 81.192C170.668 82.356 169.804 83.16 168.772 83.16ZM177.582 78.396V79.272C177.21 78.612 176.418 78.252 175.578 78.252C173.994 78.252 172.782 79.536 172.782 81.192C172.782 82.908 174.066 84.144 175.53 84.144C176.43 84.144 177.21 83.676 177.582 83.004V84H178.626V78.396H177.582ZM175.686 83.16C174.654 83.16 173.838 82.26 173.838 81.192C173.838 80.136 174.654 79.236 175.674 79.236C176.61 79.236 177.582 80.04 177.582 81.192C177.582 82.332 176.682 83.16 175.686 83.16ZM184.883 75.348V79.272C184.511 78.612 183.719 78.252 182.879 78.252C181.343 78.252 180.083 79.416 180.083 81.192C180.083 82.956 181.355 84.144 182.891 84.144C183.695 84.144 184.511 83.76 184.883 83.124V84H185.927V75.348H184.883ZM182.975 83.16C181.955 83.16 181.139 82.296 181.139 81.18C181.139 80.052 181.955 79.236 182.975 79.236C183.899 79.236 184.883 79.968 184.883 81.18C184.883 82.38 183.983 83.16 182.975 83.16ZM189.4 84.144C190.564 84.144 191.572 83.484 191.572 82.44C191.572 81.804 191.272 81.108 190.108 80.82L189.28 80.616C188.92 80.532 188.56 80.328 188.56 79.944C188.56 79.512 188.92 79.164 189.46 79.164C189.904 79.164 190.348 79.452 190.36 79.884H191.368C191.368 78.756 190.384 78.252 189.436 78.252C188.308 78.252 187.516 78.984 187.516 79.908C187.516 80.808 188.056 81.264 188.992 81.516L189.76 81.696C190.204 81.792 190.528 82.008 190.528 82.428C190.528 82.884 190.108 83.232 189.4 83.232C188.716 83.232 188.296 82.836 188.284 82.356H187.312C187.36 83.508 188.392 84.144 189.4 84.144ZM200.422 78.396V79.272C200.05 78.612 199.258 78.252 198.418 78.252C196.834 78.252 195.622 79.536 195.622 81.192C195.622 82.908 196.906 84.144 198.37 84.144C199.27 84.144 200.05 83.676 200.422 83.004V84H201.466V78.396H200.422ZM198.526 83.16C197.494 83.16 196.678 82.26 196.678 81.192C196.678 80.136 197.494 79.236 198.514 79.236C199.45 79.236 200.422 80.04 200.422 81.192C200.422 82.332 199.522 83.16 198.526 83.16ZM206.199 78.252C205.587 78.252 204.675 78.564 204.339 79.248V78.396H203.295V84H204.339V80.964C204.339 79.752 205.275 79.284 206.055 79.284C206.835 79.284 207.411 79.884 207.411 80.82V84H208.455V80.76C208.467 79.188 207.591 78.252 206.199 78.252ZM214.625 75.348V79.272C214.253 78.612 213.461 78.252 212.621 78.252C211.085 78.252 209.825 79.416 209.825 81.192C209.825 82.956 211.097 84.144 212.633 84.144C213.437 84.144 214.253 83.76 214.625 83.124V84H215.669V75.348H214.625ZM212.717 83.16C211.697 83.16 210.881 82.296 210.881 81.18C210.881 80.052 211.697 79.236 212.717 79.236C213.641 79.236 214.625 79.968 214.625 81.18C214.625 82.38 213.725 83.16 212.717 83.16ZM223.437 78.252C222.825 78.252 221.913 78.564 221.577 79.248V78.396H220.533V84H221.577V80.964C221.577 79.752 222.513 79.284 223.293 79.284C224.073 79.284 224.649 79.884 224.649 80.82V84H225.693V80.76C225.705 79.188 224.829 78.252 223.437 78.252ZM229.979 84.144C231.575 84.144 232.919 82.968 232.919 81.192C232.919 79.416 231.575 78.252 229.979 78.252C228.383 78.252 227.051 79.416 227.051 81.192C227.051 82.968 228.383 84.144 229.979 84.144ZM229.979 83.16C228.959 83.16 228.107 82.356 228.107 81.192C228.107 80.04 228.959 79.236 229.979 79.236C231.011 79.236 231.875 80.04 231.875 81.192C231.875 82.356 231.011 83.16 229.979 83.16ZM39.54 94.252C38.796 94.252 38.256 94.684 37.968 95.668V94.396H36.912V100H37.968V97.948C37.968 96.472 38.412 95.26 39.528 95.26C39.744 95.26 40.044 95.308 40.344 95.452L40.512 94.468C40.344 94.36 39.936 94.252 39.54 94.252ZM46.6571 97.18C46.6571 95.404 45.4691 94.252 43.8731 94.252C42.2771 94.252 40.9931 95.404 40.9931 97.18C40.9931 98.956 42.2771 100.144 43.8731 100.144C44.9531 100.144 45.9611 99.616 46.4411 98.644L45.5411 98.284C45.2171 98.848 44.5931 99.16 43.9091 99.16C42.9491 99.16 42.2291 98.644 42.0731 97.648H46.6331C46.6451 97.492 46.6571 97.336 46.6571 97.18ZM42.0851 96.748C42.2531 95.74 42.9251 95.236 43.8731 95.236C44.7971 95.236 45.4811 95.788 45.6131 96.748H42.0851ZM52.508 94.396V95.272C52.136 94.624 51.344 94.252 50.504 94.252C48.968 94.252 47.708 95.416 47.708 97.192C47.708 98.956 48.98 100.144 50.516 100.144C51.32 100.144 52.136 99.76 52.508 99.124V99.292C52.508 101.188 51.74 101.884 50.504 101.884C49.88 101.884 49.22 101.536 48.872 100.9L47.984 101.368C48.536 102.352 49.484 102.868 50.504 102.868C52.352 102.868 53.552 101.872 53.552 99.22V94.396H52.508ZM50.6 99.16C49.58 99.16 48.764 98.296 48.764 97.18C48.764 96.052 49.58 95.236 50.6 95.236C51.524 95.236 52.508 95.968 52.508 97.18C52.508 98.38 51.608 99.16 50.6 99.16ZM55.8968 93.028C56.3048 93.028 56.6408 92.728 56.6408 92.332C56.6408 91.936 56.3048 91.636 55.8968 91.636C55.5008 91.636 55.1648 91.936 55.1648 92.332C55.1648 92.728 55.5008 93.028 55.8968 93.028ZM55.3808 100H56.4248V94.396H55.3808V100ZM59.8841 100.144C61.0481 100.144 62.0561 99.484 62.0561 98.44C62.0561 97.804 61.7561 97.108 60.5921 96.82L59.7641 96.616C59.4041 96.532 59.0441 96.328 59.0441 95.944C59.0441 95.512 59.4041 95.164 59.9441 95.164C60.3881 95.164 60.8321 95.452 60.8441 95.884H61.8521C61.8521 94.756 60.8681 94.252 59.9201 94.252C58.7921 94.252 58.0001 94.984 58.0001 95.908C58.0001 96.808 58.5401 97.264 59.4761 97.516L60.2441 97.696C60.6881 97.792 61.0121 98.008 61.0121 98.428C61.0121 98.884 60.5921 99.232 59.8841 99.232C59.2001 99.232 58.7801 98.836 58.7681 98.356H57.7961C57.8441 99.508 58.8761 100.144 59.8841 100.144ZM66.143 94.396H64.931V92.284H63.887V94.396H62.879V95.296H63.887V100H64.931V95.296H66.143V94.396ZM69.9384 94.252C69.1944 94.252 68.6544 94.684 68.3664 95.668V94.396H67.3104V100H68.3664V97.948C68.3664 96.472 68.8104 95.26 69.9264 95.26C70.1424 95.26 70.4424 95.308 70.7424 95.452L70.9104 94.468C70.7424 94.36 70.3344 94.252 69.9384 94.252ZM76.1796 94.396V95.272C75.8076 94.612 75.0156 94.252 74.1756 94.252C72.5916 94.252 71.3796 95.536 71.3796 97.192C71.3796 98.908 72.6636 100.144 74.1276 100.144C75.0276 100.144 75.8076 99.676 76.1796 99.004V100H77.2236V94.396H76.1796ZM74.2836 99.16C73.2516 99.16 72.4356 98.26 72.4356 97.192C72.4356 96.136 73.2516 95.236 74.2716 95.236C75.2076 95.236 76.1796 96.04 76.1796 97.192C76.1796 98.332 75.2796 99.16 74.2836 99.16ZM81.7406 94.396H80.5286V92.284H79.4846V94.396H78.4766V95.296H79.4846V100H80.5286V95.296H81.7406V94.396ZM83.4241 93.028C83.8321 93.028 84.1681 92.728 84.1681 92.332C84.1681 91.936 83.8321 91.636 83.4241 91.636C83.0281 91.636 82.6921 91.936 82.6921 92.332C82.6921 92.728 83.0281 93.028 83.4241 93.028ZM82.9081 100H83.9521V94.396H82.9081V100ZM88.3115 100.144C89.9075 100.144 91.2515 98.968 91.2515 97.192C91.2515 95.416 89.9075 94.252 88.3115 94.252C86.7155 94.252 85.3835 95.416 85.3835 97.192C85.3835 98.968 86.7155 100.144 88.3115 100.144ZM88.3115 99.16C87.2915 99.16 86.4395 98.356 86.4395 97.192C86.4395 96.04 87.2915 95.236 88.3115 95.236C89.3435 95.236 90.2075 96.04 90.2075 97.192C90.2075 98.356 89.3435 99.16 88.3115 99.16ZM95.609 94.252C94.997 94.252 94.085 94.564 93.749 95.248V94.396H92.705V100H93.749V96.964C93.749 95.752 94.685 95.284 95.465 95.284C96.245 95.284 96.821 95.884 96.821 96.82V100H97.865V96.76C97.877 95.188 97.001 94.252 95.609 94.252ZM105.546 94.252C104.934 94.252 104.022 94.564 103.686 95.248V94.396H102.642V100H103.686V96.964C103.686 95.752 104.622 95.284 105.402 95.284C106.182 95.284 106.758 95.884 106.758 96.82V100H107.802V96.76C107.814 95.188 106.938 94.252 105.546 94.252ZM114.837 97.18C114.837 95.404 113.649 94.252 112.053 94.252C110.457 94.252 109.173 95.404 109.173 97.18C109.173 98.956 110.457 100.144 112.053 100.144C113.133 100.144 114.141 99.616 114.621 98.644L113.721 98.284C113.397 98.848 112.773 99.16 112.089 99.16C111.129 99.16 110.409 98.644 110.253 97.648H114.813C114.825 97.492 114.837 97.336 114.837 97.18ZM110.265 96.748C110.433 95.74 111.105 95.236 112.053 95.236C112.977 95.236 113.661 95.788 113.793 96.748H110.265ZM121.552 97.18C121.552 95.404 120.364 94.252 118.768 94.252C117.172 94.252 115.888 95.404 115.888 97.18C115.888 98.956 117.172 100.144 118.768 100.144C119.848 100.144 120.856 99.616 121.336 98.644L120.436 98.284C120.112 98.848 119.488 99.16 118.804 99.16C117.844 99.16 117.124 98.644 116.968 97.648H121.528C121.54 97.492 121.552 97.336 121.552 97.18ZM116.98 96.748C117.148 95.74 117.82 95.236 118.768 95.236C119.692 95.236 120.376 95.788 120.508 96.748H116.98ZM127.403 91.348V95.272C127.031 94.612 126.239 94.252 125.399 94.252C123.863 94.252 122.603 95.416 122.603 97.192C122.603 98.956 123.875 100.144 125.411 100.144C126.215 100.144 127.031 99.76 127.403 99.124V100H128.447V91.348H127.403ZM125.495 99.16C124.475 99.16 123.659 98.296 123.659 97.18C123.659 96.052 124.475 95.236 125.495 95.236C126.419 95.236 127.403 95.968 127.403 97.18C127.403 98.38 126.503 99.16 125.495 99.16ZM135.567 97.18C135.567 95.404 134.379 94.252 132.783 94.252C131.187 94.252 129.903 95.404 129.903 97.18C129.903 98.956 131.187 100.144 132.783 100.144C133.863 100.144 134.871 99.616 135.351 98.644L134.451 98.284C134.127 98.848 133.503 99.16 132.819 99.16C131.859 99.16 131.139 98.644 130.983 97.648H135.543C135.555 97.492 135.567 97.336 135.567 97.18ZM130.995 96.748C131.163 95.74 131.835 95.236 132.783 95.236C133.707 95.236 134.391 95.788 134.523 96.748H130.995ZM141.418 91.348V95.272C141.046 94.612 140.254 94.252 139.414 94.252C137.878 94.252 136.618 95.416 136.618 97.192C136.618 98.956 137.89 100.144 139.426 100.144C140.23 100.144 141.046 99.76 141.418 99.124V100H142.462V91.348H141.418ZM139.51 99.16C138.49 99.16 137.674 98.296 137.674 97.18C137.674 96.052 138.49 95.236 139.51 95.236C140.434 95.236 141.418 95.968 141.418 97.18C141.418 98.38 140.518 99.16 139.51 99.16ZM144.831 100.12C145.251 100.12 145.611 99.82 145.611 99.4C145.611 98.968 145.251 98.656 144.831 98.656C144.423 98.656 144.075 98.968 144.075 99.4C144.075 99.82 144.423 100.12 144.831 100.12Z" fill="#74718A"/>
<rect x="16" y="116" width="62" height="32" rx="8" fill="#6C56F9"/>
<g clip-path="url(#clip0_728_6335)">
<path d="M47.1267 130.842L45.8196 134.606L44.3966 130.842H42.3615L44.8764 136.898H46.7627L49.0957 130.842H47.1267Z" fill="white"/>
<path d="M56.409 130.842H54.4235L53.0667 134.085L51.5775 130.842H49.4762L52.0574 136.087L50.6675 139.231H52.6365L56.409 130.842Z" fill="white"/>
<path d="M59.0646 132.662C59.2466 132.463 59.4948 132.364 59.8009 132.364C60.1318 132.364 60.38 132.463 60.5455 132.654C60.7109 132.844 60.8019 133.1 60.8019 133.415V136.906H62.6799V133.1C62.6799 132.397 62.4896 131.81 62.1091 131.363C61.7285 130.908 61.1742 130.685 60.4462 130.685C60.107 130.685 59.7761 130.759 59.4534 130.908C59.1308 131.057 58.8909 131.264 58.7337 131.537V130.842H56.9219V136.906H58.7998V133.431C58.7833 133.117 58.8743 132.86 59.0646 132.662Z" fill="white"/>
<path d="M69.4886 133.77C69.4886 132.794 69.2156 132.033 68.6696 131.487C68.1235 130.941 67.3707 130.668 66.4193 130.668C65.592 130.668 64.8722 130.966 64.2683 131.561C63.6644 132.157 63.3583 132.927 63.3583 133.87C63.3583 134.854 63.6644 135.64 64.2931 136.227C64.9136 136.815 65.6664 137.104 66.5599 137.104C67.2962 137.104 67.9167 136.922 68.4131 136.558C68.9095 136.194 69.2321 135.739 69.3893 135.177L67.8257 134.738C67.6354 135.268 67.2218 135.532 66.593 135.532C66.2207 135.532 65.9064 135.425 65.6334 135.193C65.3603 134.97 65.2197 134.689 65.2032 134.358H69.472C69.472 134.267 69.4886 134.076 69.4886 133.77ZM65.2197 133.142C65.2445 132.885 65.3603 132.645 65.5754 132.43C65.7905 132.215 66.0801 132.116 66.4358 132.116C66.8412 132.116 67.139 132.215 67.3459 132.422C67.5444 132.629 67.6602 132.869 67.6768 133.142H65.2197Z" fill="white"/>
<path d="M32.3428 140C31.3501 140 30.4318 139.462 29.9354 138.602L25.0543 130.122L26.4442 129.32L31.3253 137.799C31.5321 138.163 31.9209 138.387 32.3346 138.387C32.7648 138.387 33.1536 138.155 33.3604 137.775L33.3687 137.758L40.3842 125.605H36.0905C35.2136 125.605 34.4028 126.077 33.9561 126.829L32.0781 130.13L30.68 129.336L32.5745 126.019C33.3108 124.778 34.6676 124 36.1071 124H40.8558C41.5921 124 42.196 124.604 42.196 125.34C42.196 125.547 42.1464 125.762 42.0554 125.944L42.0305 125.986L34.7751 138.552C34.287 139.446 33.3604 140 32.3428 140Z" fill="white"/>
<path d="M28.5703 132.141C26.3283 132.141 24.5 130.321 24.5 128.07C24.5 125.82 26.3283 124 28.5703 124C30.8123 124 32.6406 125.828 32.6406 128.07C32.6406 130.312 30.8206 132.141 28.5703 132.141ZM28.5703 125.605C27.2135 125.605 26.105 126.714 26.105 128.07C26.105 129.427 27.2135 130.536 28.5703 130.536C29.9271 130.536 31.0357 129.427 31.0357 128.07C31.0357 126.714 29.9271 125.605 28.5703 125.605Z" fill="white"/>
<path d="M32.318 126.474C31.9209 125.547 31.1929 124.803 30.2828 124.381L29.4803 125.787C30.3904 126.143 31.0357 127.036 31.0357 128.071C31.0357 128.459 30.9447 128.823 30.7875 129.154L32.318 126.474Z" fill="url(#paint0_linear_728_6335)"/>
</g>
<defs>
<linearGradient id="paint0_linear_728_6335" x1="31.8433" y1="127.644" x2="29.2603" y2="125.835" gradientUnits="userSpaceOnUse">
<stop offset="0.12" stop-color="#A6A6A6"/>
<stop offset="0.167" stop-color="#B0B0B0"/>
<stop offset="0.4652" stop-color="#E9E9E9"/>
<stop offset="0.6087" stop-color="white"/>
</linearGradient>
<clipPath id="clip0_728_6335">
<rect width="44.9886" height="16" fill="white" transform="translate(24.5 124)"/>
</clipPath>
</defs>
</svg>
