<svg width="283" height="164" viewBox="0 0 283 164" fill="none" xmlns="http://www.w3.org/2000/svg">
<rect width="283" height="164" fill="#6C56F9"/>
<path d="M22.304 34.192C24.112 34.192 25.696 33.344 26.688 32.048L25.216 30.928C24.544 31.808 23.552 32.368 22.352 32.368C20.224 32.368 18.672 30.608 18.672 28.496C18.672 26.384 20.256 24.608 22.352 24.608C23.552 24.608 24.544 25.168 25.216 26.048L26.688 24.928C25.696 23.632 24.112 22.784 22.304 22.784C19.2 22.784 16.704 25.376 16.704 28.496C16.704 31.616 19.2 34.192 22.304 34.192ZM33.8629 26.528V27.568C33.3669 26.784 32.3749 26.336 31.3509 26.336C29.2389 26.336 27.7029 28 27.7029 30.256C27.7029 32.576 29.3029 34.192 31.3029 34.192C32.3749 34.192 33.3669 33.648 33.8629 32.832V34H35.7189V26.528H33.8629ZM31.6869 32.464C30.4709 32.464 29.5589 31.456 29.5589 30.256C29.5589 29.056 30.4709 28.064 31.6709 28.064C32.7749 28.064 33.8309 28.976 33.8309 30.256C33.8309 31.504 32.8389 32.464 31.6869 32.464ZM41.9321 26.336C41.0041 26.336 40.1881 26.88 39.7881 28.128V26.528H37.9321V34H39.8041V31.392C39.8041 29.296 40.4761 28.08 41.6921 28.08C41.9641 28.08 42.3481 28.128 42.7801 28.352L43.1481 26.592C42.8601 26.432 42.3801 26.336 41.9321 26.336ZM49.8629 22.464V27.504C49.3509 26.72 48.3109 26.336 47.3669 26.336C45.3989 26.336 43.7029 27.856 43.7029 30.256C43.7029 32.64 45.4149 34.192 47.3829 34.192C48.2949 34.192 49.3509 33.792 49.8629 33.008V34H51.7189V22.464H49.8629ZM47.6709 32.464C46.5189 32.464 45.5749 31.488 45.5749 30.24C45.5749 28.992 46.5189 28.064 47.6709 28.064C48.7429 28.064 49.8309 28.928 49.8309 30.24C49.8309 31.552 48.8069 32.464 47.6709 32.464ZM62.0144 26.336C61.2464 26.336 60.0784 26.768 59.6944 27.712V26.528H57.8384V34H59.6944V30.032C59.6944 28.592 60.7504 28.096 61.5984 28.096C62.4304 28.096 63.1504 28.736 63.1504 29.936V34H65.0064V29.808C65.0064 27.632 63.9344 26.336 62.0144 26.336ZM70.6236 34.192C72.7516 34.192 74.6076 32.624 74.6076 30.256C74.6076 27.888 72.7516 26.336 70.6236 26.336C68.4956 26.336 66.6556 27.888 66.6556 30.256C66.6556 32.624 68.4956 34.192 70.6236 34.192ZM70.6236 32.464C69.4716 32.464 68.5276 31.568 68.5276 30.256C68.5276 28.976 69.4716 28.064 70.6236 28.064C71.7756 28.064 72.7356 28.976 72.7356 30.256C72.7356 31.568 71.7756 32.464 70.6236 32.464ZM80.3254 26.528H78.7414V23.776H76.8854V26.528H75.5414V28H76.8854V34H78.7414V28H80.3254V26.528ZM86.5789 25.024C87.2509 25.024 87.7789 24.528 87.7789 23.888C87.7789 23.232 87.2509 22.752 86.5789 22.752C85.9229 22.752 85.3629 23.232 85.3629 23.888C85.3629 24.528 85.9229 25.024 86.5789 25.024ZM85.6509 34H87.5069V26.528H85.6509V34ZM93.8894 26.336C93.1214 26.336 91.9534 26.768 91.5694 27.712V26.528H89.7134V34H91.5694V30.032C91.5694 28.592 92.6254 28.096 93.4734 28.096C94.3054 28.096 95.0254 28.736 95.0254 29.936V34H96.8814V29.808C96.8814 27.632 95.8094 26.336 93.8894 26.336ZM107.077 26.336C106.325 26.336 105.125 26.752 104.757 27.664V22.464H102.901V34H104.757V30.048C104.757 28.592 105.813 28.096 106.661 28.096C107.493 28.096 108.213 28.736 108.213 29.936V34H110.069V29.808C110.069 27.632 108.997 26.336 107.077 26.336ZM117.894 26.528V27.568C117.398 26.784 116.406 26.336 115.382 26.336C113.27 26.336 111.734 28 111.734 30.256C111.734 32.576 113.334 34.192 115.334 34.192C116.406 34.192 117.398 33.648 117.894 32.832V34H119.75V26.528H117.894ZM115.718 32.464C114.502 32.464 113.59 31.456 113.59 30.256C113.59 29.056 114.502 28.064 115.702 28.064C116.806 28.064 117.862 28.976 117.862 30.256C117.862 31.504 116.87 32.464 115.718 32.464ZM126.139 26.336C125.371 26.336 124.203 26.768 123.819 27.712V26.528H121.963V34H123.819V30.032C123.819 28.592 124.875 28.096 125.723 28.096C126.555 28.096 127.275 28.736 127.275 29.936V34H129.131V29.808C129.131 27.632 128.059 26.336 126.139 26.336ZM136.957 22.464V27.504C136.445 26.72 135.405 26.336 134.461 26.336C132.493 26.336 130.797 27.856 130.797 30.256C130.797 32.64 132.509 34.192 134.477 34.192C135.389 34.192 136.445 33.792 136.957 33.008V34H138.813V22.464H136.957ZM134.765 32.464C133.613 32.464 132.669 31.488 132.669 30.24C132.669 28.992 133.613 28.064 134.765 28.064C135.837 28.064 136.925 28.928 136.925 30.24C136.925 31.552 135.901 32.464 134.765 32.464ZM142.178 30.48H143.778L143.794 30.048C143.794 29.36 144.242 29.184 144.866 28.976C146.114 28.576 147.09 27.456 147.09 25.904C147.09 23.984 145.682 22.784 143.858 22.784C142.034 22.784 140.514 24.016 140.514 26.16H142.258C142.274 25.12 143.058 24.528 143.842 24.528C144.674 24.528 145.282 25.04 145.282 25.952C145.282 26.544 144.914 27.12 144.274 27.344L143.73 27.568C142.53 28.048 142.082 28.736 142.178 30.048V30.48ZM142.978 34.144C143.65 34.144 144.21 33.648 144.21 32.96C144.21 32.288 143.65 31.776 142.978 31.776C142.306 31.776 141.746 32.288 141.746 32.96C141.746 33.648 142.306 34.144 142.978 34.144ZM22.304 58.192C24.112 58.192 25.696 57.344 26.688 56.048L25.216 54.928C24.544 55.808 23.552 56.368 22.352 56.368C20.224 56.368 18.672 54.608 18.672 52.496C18.672 50.384 20.256 48.608 22.352 48.608C23.552 48.608 24.544 49.168 25.216 50.048L26.688 48.928C25.696 47.632 24.112 46.784 22.304 46.784C19.2 46.784 16.704 49.376 16.704 52.496C16.704 55.616 19.2 58.192 22.304 58.192ZM32.405 50.336C31.653 50.336 30.453 50.752 30.085 51.664V46.464H28.229V58H30.085V54.048C30.085 52.592 31.141 52.096 31.989 52.096C32.821 52.096 33.541 52.736 33.541 53.936V58H35.397V53.808C35.397 51.632 34.325 50.336 32.405 50.336ZM44.7903 54.192C44.7903 51.856 43.1103 50.336 40.9823 50.336C38.8383 50.336 37.0623 51.872 37.0623 54.256C37.0623 56.592 38.7582 58.192 40.9823 58.192C42.3423 58.192 43.6703 57.584 44.3583 56.496L43.1103 55.552C42.6783 56.16 41.8943 56.512 41.0943 56.512C39.9743 56.512 39.1743 55.952 38.9663 54.912H44.7583C44.7743 54.64 44.7903 54.4 44.7903 54.192ZM38.9663 53.616C39.1903 52.48 40.0063 51.984 40.9983 51.984C42.0383 51.984 42.8383 52.592 42.9503 53.616H38.9663ZM50.0786 58.192C51.3746 58.192 52.4306 57.616 53.1186 56.752L51.8066 55.712C51.4226 56.176 50.7826 56.464 50.1106 56.464C48.8146 56.464 47.8866 55.504 47.8866 54.256C47.8866 52.992 48.8146 52.064 50.1106 52.064C50.7826 52.064 51.4226 52.352 51.8066 52.816L53.1186 51.776C52.4306 50.912 51.3746 50.336 50.0786 50.336C47.9186 50.336 46.0146 51.888 46.0146 54.256C46.0146 56.624 47.9186 58.192 50.0786 58.192ZM61.8334 58L58.0894 53.792L61.1294 50.528H58.7134L56.5694 52.912V46.464H54.7134V58H56.5694V54.608L59.4814 58H61.8334ZM65.8424 58.192C67.9704 58.192 69.8264 56.624 69.8264 54.256C69.8264 51.888 67.9704 50.336 65.8424 50.336C63.7144 50.336 61.8744 51.888 61.8744 54.256C61.8744 56.624 63.7144 58.192 65.8424 58.192ZM65.8424 56.464C64.6904 56.464 63.7464 55.568 63.7464 54.256C63.7464 52.976 64.6904 52.064 65.8424 52.064C66.9944 52.064 67.9544 52.976 67.9544 54.256C67.9544 55.568 66.9944 56.464 65.8424 56.464ZM76.7888 50.528V54.528C76.7888 55.984 75.7328 56.464 74.8848 56.464C74.0528 56.464 73.3328 55.84 73.3328 54.64V50.528H71.4768V54.72C71.4768 56.896 72.5488 58.192 74.4688 58.192C75.2208 58.192 76.4048 57.776 76.7888 56.832V58H78.6448V50.528H76.7888ZM84.966 50.528H83.382V47.776H81.526V50.528H80.182V52H81.526V58H83.382V52H84.966V50.528ZM92.7875 58.192C94.3075 58.192 95.8275 57.36 95.8275 55.84C95.8275 55.152 95.5235 54.096 93.8435 53.664L92.6435 53.344C92.2115 53.248 91.8435 53.024 91.8435 52.64C91.8435 52.176 92.2435 51.84 92.8195 51.84C93.3475 51.84 93.8115 52.16 93.8115 52.672H95.5875C95.6035 51.008 94.0995 50.336 92.7715 50.336C91.1395 50.336 89.9875 51.392 89.9875 52.56C89.9875 53.504 90.4195 54.4 92.0995 54.848L93.0915 55.104C93.6515 55.232 93.9715 55.424 93.9715 55.84C93.9715 56.32 93.4915 56.688 92.7555 56.688C91.9715 56.688 91.5235 56.208 91.5235 55.696H89.7795C89.8115 57.296 91.2995 58.192 92.7875 58.192ZM104.837 54.192C104.837 51.856 103.157 50.336 101.029 50.336C98.8851 50.336 97.1091 51.872 97.1091 54.256C97.1091 56.592 98.8051 58.192 101.029 58.192C102.389 58.192 103.717 57.584 104.405 56.496L103.157 55.552C102.725 56.16 101.941 56.512 101.141 56.512C100.021 56.512 99.2211 55.952 99.0131 54.912H104.805C104.821 54.64 104.837 54.4 104.837 54.192ZM99.0131 53.616C99.2371 52.48 100.053 51.984 101.045 51.984C102.085 51.984 102.885 52.592 102.997 53.616H99.0131ZM110.126 58.192C111.422 58.192 112.478 57.616 113.166 56.752L111.854 55.712C111.47 56.176 110.83 56.464 110.158 56.464C108.862 56.464 107.934 55.504 107.934 54.256C107.934 52.992 108.862 52.064 110.158 52.064C110.83 52.064 111.47 52.352 111.854 52.816L113.166 51.776C112.478 50.912 111.422 50.336 110.126 50.336C107.966 50.336 106.062 51.888 106.062 54.256C106.062 56.624 107.966 58.192 110.126 58.192ZM119.976 50.528V54.528C119.976 55.984 118.92 56.464 118.072 56.464C117.24 56.464 116.52 55.84 116.52 54.64V50.528H114.664V54.72C114.664 56.896 115.736 58.192 117.656 58.192C118.408 58.192 119.592 57.776 119.976 56.832V58H121.832V50.528H119.976ZM128.042 50.336C127.114 50.336 126.298 50.88 125.898 52.128V50.528H124.042V58H125.914V55.392C125.914 53.296 126.586 52.08 127.802 52.08C128.074 52.08 128.458 52.128 128.89 52.352L129.258 50.592C128.97 50.432 128.49 50.336 128.042 50.336ZM137.54 54.192C137.54 51.856 135.86 50.336 133.732 50.336C131.588 50.336 129.812 51.872 129.812 54.256C129.812 56.592 131.508 58.192 133.732 58.192C135.092 58.192 136.42 57.584 137.108 56.496L135.86 55.552C135.428 56.16 134.644 56.512 133.844 56.512C132.724 56.512 131.924 55.952 131.716 54.912H137.508C137.524 54.64 137.54 54.4 137.54 54.192ZM131.716 53.616C131.94 52.48 132.756 51.984 133.748 51.984C134.788 51.984 135.588 52.592 135.7 53.616H131.716ZM139.245 58H141.101V46.464H139.245V58ZM148.235 50.528L146.315 55.264L144.379 50.528H142.347L145.323 57.472L143.643 61.648H145.595L150.235 50.528H148.235ZM164.128 50.528L162.544 55.344L160.96 50.528H159.312L157.728 55.344L156.144 50.528H154.144L156.912 58H158.464L160.128 52.896L161.872 58H163.44L166.128 50.528H164.128ZM168.313 49.024C168.985 49.024 169.513 48.528 169.513 47.888C169.513 47.232 168.985 46.752 168.313 46.752C167.657 46.752 167.097 47.232 167.097 47.888C167.097 48.528 167.657 49.024 168.313 49.024ZM167.385 58H169.241V50.528H167.385V58ZM175.56 50.528H173.976V47.776H172.12V50.528H170.776V52H172.12V58H173.976V52H175.56V50.528ZM181.155 50.336C180.403 50.336 179.203 50.752 178.835 51.664V46.464H176.979V58H178.835V54.048C178.835 52.592 179.891 52.096 180.739 52.096C181.571 52.096 182.291 52.736 182.291 53.936V58H184.147V53.808C184.147 51.632 183.075 50.336 181.155 50.336ZM194.985 50.528L193.065 55.264L191.129 50.528H189.097L192.073 57.472L190.393 61.648H192.345L196.985 50.528H194.985ZM201.499 58.192C203.627 58.192 205.483 56.624 205.483 54.256C205.483 51.888 203.627 50.336 201.499 50.336C199.371 50.336 197.531 51.888 197.531 54.256C197.531 56.624 199.371 58.192 201.499 58.192ZM201.499 56.464C200.347 56.464 199.403 55.568 199.403 54.256C199.403 52.976 200.347 52.064 201.499 52.064C202.651 52.064 203.611 52.976 203.611 54.256C203.611 55.568 202.651 56.464 201.499 56.464ZM212.445 50.528V54.528C212.445 55.984 211.389 56.464 210.541 56.464C209.709 56.464 208.989 55.84 208.989 54.64V50.528H207.133V54.72C207.133 56.896 208.205 58.192 210.125 58.192C210.877 58.192 212.061 57.776 212.445 56.832V58H214.301V50.528H212.445ZM220.51 50.336C219.582 50.336 218.766 50.88 218.366 52.128V50.528H216.51V58H218.382V55.392C218.382 53.296 219.054 52.08 220.27 52.08C220.542 52.08 220.926 52.128 221.358 52.352L221.726 50.592C221.438 50.432 220.958 50.336 220.51 50.336ZM230.8 50.336C229.856 50.336 228.816 50.72 228.304 51.52V46.464H226.448V58H228.304V56.992C228.816 57.792 229.888 58.192 230.784 58.192C232.752 58.192 234.464 56.64 234.464 54.256C234.464 51.856 232.768 50.336 230.8 50.336ZM230.496 56.464C229.36 56.464 228.336 55.552 228.336 54.24C228.336 52.928 229.424 52.064 230.496 52.064C231.648 52.064 232.608 52.992 232.608 54.24C232.608 55.488 231.648 56.464 230.496 56.464ZM241.941 50.528V51.568C241.445 50.784 240.453 50.336 239.429 50.336C237.317 50.336 235.781 52 235.781 54.256C235.781 56.576 237.381 58.192 239.381 58.192C240.453 58.192 241.445 57.648 241.941 56.832V58H243.797V50.528H241.941ZM239.765 56.464C238.549 56.464 237.637 55.456 237.637 54.256C237.637 53.056 238.549 52.064 239.749 52.064C240.853 52.064 241.909 52.976 241.909 54.256C241.909 55.504 240.917 56.464 239.765 56.464ZM250.186 50.336C249.418 50.336 248.25 50.768 247.866 51.712V50.528H246.01V58H247.866V54.032C247.866 52.592 248.922 52.096 249.77 52.096C250.602 52.096 251.322 52.736 251.322 53.936V58H253.178V53.808C253.178 51.632 252.106 50.336 250.186 50.336ZM262.411 58L258.668 53.792L261.708 50.528H259.292L257.148 52.912V46.464H255.292V58H257.148V54.608L260.06 58H262.411ZM264.314 58.16C264.986 58.16 265.546 57.664 265.546 56.976C265.546 56.288 264.986 55.792 264.314 55.792C263.658 55.792 263.098 56.288 263.098 56.976C263.098 57.664 263.658 58.16 264.314 58.16Z" fill="white"/>
<path d="M27.3333 86H20.6667C19.93 86 19.3333 85.4033 19.3333 84.6667V79.3333C19.3333 78.5967 19.93 78 20.6667 78H27.3333C28.07 78 28.6667 78.5967 28.6667 79.3333V84.6667C28.6667 85.4033 28.07 86 27.3333 86Z" stroke="#D5CFFC" stroke-width="0.977" stroke-linecap="round" stroke-linejoin="round"/>
<path d="M26.6667 78V76.6667C26.6667 75.194 25.4727 74 24 74C22.5273 74 21.3333 75.194 21.3333 76.6667V78" stroke="#D5CFFC" stroke-width="0.9354" stroke-linecap="round" stroke-linejoin="round"/>
<path d="M23.9987 81.667C23.8147 81.667 23.6653 81.8163 23.6667 82.0003C23.6667 82.1843 23.816 82.3337 24 82.3337C24.184 82.3337 24.3333 82.1843 24.3333 82.0003C24.3333 81.8163 24.184 81.667 23.9987 81.667Z" fill="#D5CFFC" stroke="#D5CFFC" stroke-linecap="round" stroke-linejoin="round"/>
<path d="M43.08 83V74.732H41.964V80.912L38.232 74.732H37.128V83H38.244V76.772L42.012 83H43.08ZM47.5539 83.12C49.1499 83.12 50.4939 81.956 50.4939 80.18C50.4939 78.404 49.1499 77.276 47.5539 77.276C45.9579 77.276 44.6259 78.404 44.6259 80.18C44.6259 81.956 45.9579 83.12 47.5539 83.12ZM47.5539 82.064C46.5339 82.064 45.7059 81.332 45.7059 80.18C45.7059 79.052 46.5339 78.344 47.5539 78.344C48.5499 78.344 49.4019 79.052 49.4019 80.18C49.4019 81.332 48.5499 82.064 47.5539 82.064ZM54.6923 80.18C54.6923 81.956 56.0603 83.12 57.6563 83.12C58.5203 83.12 59.3003 82.784 59.8283 82.208L58.9883 81.512C58.6523 81.86 58.1723 82.064 57.6563 82.064C56.6483 82.064 55.7723 81.296 55.7723 80.18C55.7723 79.052 56.6483 78.344 57.6563 78.344C58.1723 78.344 58.6523 78.536 58.9883 78.872L59.8163 78.176C59.2883 77.6 58.5203 77.276 57.6563 77.276C56.0603 77.276 54.6923 78.404 54.6923 80.18ZM65.5043 83H66.5843V77.396H65.5043V78.236C65.1203 77.6 64.3163 77.276 63.5363 77.276C62.0003 77.276 60.6923 78.404 60.6923 80.192C60.6923 81.968 62.0003 83.12 63.5363 83.12C64.3163 83.12 65.1323 82.76 65.5043 82.136V83ZM65.4923 80.18C65.4923 81.368 64.6283 82.052 63.6323 82.052C62.6243 82.052 61.8083 81.284 61.8083 80.18C61.8083 79.076 62.6243 78.344 63.6323 78.344C64.5443 78.344 65.4923 78.98 65.4923 80.18ZM69.504 80.96C69.504 79.472 69.96 78.32 71.04 78.32C71.268 78.32 71.568 78.368 71.868 78.512L72.036 77.492C71.88 77.384 71.46 77.276 71.064 77.276C70.332 77.276 69.792 77.66 69.504 78.656V77.396H68.412V83H69.504V80.96ZM77.4338 83H78.5258V74.348H77.4338V78.236C77.0618 77.6 76.2818 77.276 75.4538 77.276C73.9178 77.276 72.6338 78.404 72.6338 80.192C72.6338 81.968 73.9298 83.12 75.4658 83.12C76.2458 83.12 77.0618 82.76 77.4338 82.136V83ZM77.4218 80.18C77.4218 81.368 76.5578 82.052 75.5618 82.052C74.5538 82.052 73.7498 81.284 73.7498 80.18C73.7498 79.076 74.5538 78.344 75.5618 78.344C76.4738 78.344 77.4218 78.98 77.4218 80.18ZM82.3934 80.708C82.8134 80.804 83.1494 80.996 83.1374 81.416C83.1254 81.836 82.8014 82.112 82.2854 82.148C81.9374 82.172 81.6494 82.112 81.3974 81.956C81.1214 81.824 80.9774 81.56 80.9414 81.32H79.9454C79.9814 82.472 81.0254 83.12 82.0334 83.12C83.1974 83.12 84.2054 82.496 84.2054 81.44C84.2054 80.804 83.9054 80.096 82.7534 79.808L81.9254 79.604C81.6374 79.52 81.3734 79.4 81.2654 79.172C81.2054 79.052 81.2054 78.908 81.2534 78.728C81.3374 78.428 81.6734 78.224 82.0934 78.224C82.5254 78.224 82.9094 78.44 82.9694 78.86H84.0134C83.9174 77.72 83.0174 77.276 82.0694 77.276C81.0614 77.276 80.2214 77.888 80.1254 78.704C80.0294 79.748 80.6054 80.252 81.6254 80.528L82.3934 80.708ZM85.6868 84.512C86.2028 84.092 86.7908 83.12 86.8868 81.62H85.7348C85.7708 82.772 85.3868 83.6 84.9188 84.26L85.6868 84.512ZM92.9181 79.976C92.9181 78.788 93.7101 78.344 94.5021 78.344C95.2701 78.344 95.7381 78.884 95.7381 79.832V83H96.8301V79.76C96.8301 78.176 96.0741 77.276 94.6701 77.276C94.0581 77.276 93.2421 77.564 92.9181 78.236V77.396H91.8261V83H92.9181V79.976ZM101.144 83.12C102.74 83.12 104.084 81.956 104.084 80.18C104.084 78.404 102.74 77.276 101.144 77.276C99.5478 77.276 98.2158 78.404 98.2158 80.18C98.2158 81.956 99.5478 83.12 101.144 83.12ZM101.144 82.064C100.124 82.064 99.2958 81.332 99.2958 80.18C99.2958 79.052 100.124 78.344 101.144 78.344C102.14 78.344 102.992 79.052 102.992 80.18C102.992 81.332 102.14 82.064 101.144 82.064ZM113.094 83H114.174V77.396H113.094V78.236C112.71 77.6 111.906 77.276 111.126 77.276C109.59 77.276 108.282 78.404 108.282 80.192C108.282 81.968 109.59 83.12 111.126 83.12C111.906 83.12 112.722 82.76 113.094 82.136V83ZM113.082 80.18C113.082 81.368 112.218 82.052 111.222 82.052C110.214 82.052 109.398 81.284 109.398 80.18C109.398 79.076 110.214 78.344 111.222 78.344C112.134 78.344 113.082 78.98 113.082 80.18ZM117.094 77.396H116.002V85.724H117.094V82.16C117.478 82.796 118.258 83.12 119.05 83.12C120.586 83.12 121.858 81.992 121.858 80.216C121.858 78.44 120.586 77.276 119.05 77.276C118.258 77.276 117.478 77.636 117.094 78.272V77.396ZM117.106 80.228C117.106 79.04 117.958 78.344 118.942 78.344C119.95 78.344 120.754 79.112 120.754 80.228C120.754 81.344 119.95 82.052 118.942 82.052C118.042 82.052 117.106 81.428 117.106 80.228ZM124.406 77.396H123.314V85.724H124.406V82.16C124.79 82.796 125.57 83.12 126.362 83.12C127.898 83.12 129.17 81.992 129.17 80.216C129.17 78.44 127.898 77.276 126.362 77.276C125.57 77.276 124.79 77.636 124.406 78.272V77.396ZM124.418 80.228C124.418 79.04 125.27 78.344 126.254 78.344C127.262 78.344 128.066 79.112 128.066 80.228C128.066 81.344 127.262 82.052 126.254 82.052C125.354 82.052 124.418 81.428 124.418 80.228ZM138.172 83H139.264V74.348H138.172V78.236C137.8 77.6 137.02 77.276 136.192 77.276C134.656 77.276 133.372 78.404 133.372 80.192C133.372 81.968 134.668 83.12 136.204 83.12C136.984 83.12 137.8 82.76 138.172 82.136V83ZM138.16 80.18C138.16 81.368 137.296 82.052 136.3 82.052C135.292 82.052 134.488 81.284 134.488 80.18C134.488 79.076 135.292 78.344 136.3 78.344C137.212 78.344 138.16 78.98 138.16 80.18ZM143.648 83.12C145.244 83.12 146.588 81.956 146.588 80.18C146.588 78.404 145.244 77.276 143.648 77.276C142.052 77.276 140.72 78.404 140.72 80.18C140.72 81.956 142.052 83.12 143.648 83.12ZM143.648 82.064C142.628 82.064 141.8 81.332 141.8 80.18C141.8 79.052 142.628 78.344 143.648 78.344C144.644 78.344 145.496 79.052 145.496 80.18C145.496 81.332 144.644 82.064 143.648 82.064ZM154.281 83L156.357 77.396H155.193L153.789 81.32L152.385 77.396H151.329L149.925 81.32L148.521 77.396H147.357L149.493 83H150.381L151.857 78.884L153.381 83H154.281ZM158.613 79.976C158.613 78.788 159.405 78.344 160.197 78.344C160.965 78.344 161.433 78.884 161.433 79.832V83H162.525V79.76C162.525 78.176 161.769 77.276 160.365 77.276C159.753 77.276 158.937 77.564 158.613 78.236V77.396H157.521V83H158.613V79.976ZM164.283 74.348V83H165.375V74.348H164.283ZM169.757 83.12C171.353 83.12 172.697 81.956 172.697 80.18C172.697 78.404 171.353 77.276 169.757 77.276C168.161 77.276 166.829 78.404 166.829 80.18C166.829 81.956 168.161 83.12 169.757 83.12ZM169.757 82.064C168.737 82.064 167.909 81.332 167.909 80.18C167.909 79.052 168.737 78.344 169.757 78.344C170.753 78.344 171.605 79.052 171.605 80.18C171.605 81.332 170.753 82.064 169.757 82.064ZM178.59 83H179.67V77.396H178.59V78.236C178.206 77.6 177.402 77.276 176.622 77.276C175.086 77.276 173.778 78.404 173.778 80.192C173.778 81.968 175.086 83.12 176.622 83.12C177.402 83.12 178.218 82.76 178.59 82.136V83ZM178.578 80.18C178.578 81.368 177.714 82.052 176.718 82.052C175.71 82.052 174.894 81.284 174.894 80.18C174.894 79.076 175.71 78.344 176.718 78.344C177.63 78.344 178.578 78.98 178.578 80.18ZM185.926 83H187.018V74.348H185.926V78.236C185.554 77.6 184.774 77.276 183.946 77.276C182.41 77.276 181.126 78.404 181.126 80.192C181.126 81.968 182.422 83.12 183.958 83.12C184.738 83.12 185.554 82.76 185.926 82.136V83ZM185.914 80.18C185.914 81.368 185.05 82.052 184.054 82.052C183.046 82.052 182.242 81.284 182.242 80.18C182.242 79.076 183.046 78.344 184.054 78.344C184.966 78.344 185.914 78.98 185.914 80.18ZM190.886 80.708C191.306 80.804 191.642 80.996 191.63 81.416C191.618 81.836 191.294 82.112 190.778 82.148C190.43 82.172 190.142 82.112 189.89 81.956C189.614 81.824 189.47 81.56 189.434 81.32H188.438C188.474 82.472 189.518 83.12 190.526 83.12C191.69 83.12 192.698 82.496 192.698 81.44C192.698 80.804 192.398 80.096 191.246 79.808L190.418 79.604C190.13 79.52 189.866 79.4 189.758 79.172C189.698 79.052 189.698 78.908 189.746 78.728C189.83 78.428 190.166 78.224 190.586 78.224C191.018 78.224 191.402 78.44 191.462 78.86H192.506C192.41 77.72 191.51 77.276 190.562 77.276C189.554 77.276 188.714 77.888 188.618 78.704C188.522 79.748 189.098 80.252 190.118 80.528L190.886 80.708ZM201.676 83H202.756V77.396H201.676V78.236C201.292 77.6 200.488 77.276 199.708 77.276C198.172 77.276 196.864 78.404 196.864 80.192C196.864 81.968 198.172 83.12 199.708 83.12C200.488 83.12 201.304 82.76 201.676 82.136V83ZM201.664 80.18C201.664 81.368 200.8 82.052 199.804 82.052C198.796 82.052 197.98 81.284 197.98 80.18C197.98 79.076 198.796 78.344 199.804 78.344C200.716 78.344 201.664 78.98 201.664 80.18ZM205.676 79.976C205.676 78.788 206.468 78.344 207.26 78.344C208.028 78.344 208.496 78.884 208.496 79.832V83H209.588V79.76C209.588 78.176 208.832 77.276 207.428 77.276C206.816 77.276 206 77.564 205.676 78.236V77.396H204.584V83H205.676V79.976ZM215.774 83H216.866V74.348H215.774V78.236C215.402 77.6 214.622 77.276 213.794 77.276C212.258 77.276 210.974 78.404 210.974 80.192C210.974 81.968 212.27 83.12 213.806 83.12C214.586 83.12 215.402 82.76 215.774 82.136V83ZM215.762 80.18C215.762 81.368 214.898 82.052 213.902 82.052C212.894 82.052 212.09 81.284 212.09 80.18C212.09 79.076 212.894 78.344 213.902 78.344C214.814 78.344 215.762 78.98 215.762 80.18ZM38.004 95.976C38.004 94.788 38.796 94.344 39.588 94.344C40.356 94.344 40.824 94.884 40.824 95.832V99H41.916V95.76C41.916 94.176 41.16 93.276 39.756 93.276C39.144 93.276 38.328 93.564 38.004 94.236V93.396H36.912V99H38.004V95.976ZM46.2297 99.12C47.8257 99.12 49.1697 97.956 49.1697 96.18C49.1697 94.404 47.8257 93.276 46.2297 93.276C44.6337 93.276 43.3017 94.404 43.3017 96.18C43.3017 97.956 44.6337 99.12 46.2297 99.12ZM46.2297 98.064C45.2097 98.064 44.3817 97.332 44.3817 96.18C44.3817 95.052 45.2097 94.344 46.2297 94.344C47.2257 94.344 48.0777 95.052 48.0777 96.18C48.0777 97.332 47.2257 98.064 46.2297 98.064ZM54.8321 96.96C54.8321 95.472 55.2881 94.32 56.3681 94.32C56.5961 94.32 56.8961 94.368 57.1961 94.512L57.3641 93.492C57.2081 93.384 56.7881 93.276 56.3921 93.276C55.6601 93.276 55.1201 93.66 54.8321 94.656V93.396H53.7401V99H54.8321V96.96ZM59.0539 95.76C59.1859 94.812 59.9059 94.26 60.8299 94.26C61.7419 94.26 62.4019 94.812 62.5339 95.76H59.0539ZM63.6139 96.18C63.6139 94.404 62.4259 93.276 60.8299 93.276C59.2339 93.276 57.9619 94.404 57.9619 96.18C57.9619 97.956 59.2339 99.12 60.8299 99.12C61.9219 99.12 62.9299 98.628 63.4099 97.632C63.1099 97.5 62.7619 97.404 62.4739 97.272C62.1499 97.836 61.5379 98.136 60.8659 98.136C59.9059 98.136 59.1859 97.56 59.0539 96.612H63.6019C63.6139 96.48 63.6139 96.312 63.6139 96.18ZM65.8418 99.804C65.6978 99.864 65.0618 100.212 64.9298 100.284C65.4698 101.28 66.4178 101.796 67.4618 101.796C69.3218 101.796 70.5218 100.788 70.5218 98.148V93.396H69.4418V94.272C69.0578 93.636 68.2538 93.276 67.4738 93.276C65.9378 93.276 64.6298 94.44 64.6298 96.216C64.6298 97.992 65.9378 99.12 67.4738 99.12C68.2658 99.12 69.0938 98.76 69.4418 98.088C69.4418 98.136 69.4538 98.172 69.4538 98.22C69.4538 100.08 68.6738 100.764 67.4618 100.764C66.8378 100.764 66.1778 100.428 65.8418 99.804ZM69.4298 96.204C69.4298 97.404 68.4818 98.052 67.5698 98.052C66.5618 98.052 65.7458 97.356 65.7458 96.204C65.7458 95.112 66.5618 94.344 67.5698 94.344C68.5658 94.344 69.4298 95.004 69.4298 96.204ZM73.4178 93.396H72.3378V99H73.4178V93.396ZM72.1218 91.332C72.1218 91.752 72.4578 92.04 72.8778 92.04C73.2978 92.04 73.6338 91.752 73.6338 91.332C73.6338 90.912 73.2978 90.624 72.8778 90.624C72.4578 90.624 72.1218 90.912 72.1218 91.332ZM77.284 96.708C77.704 96.804 78.04 96.996 78.028 97.416C78.016 97.836 77.692 98.112 77.176 98.148C76.828 98.172 76.54 98.112 76.288 97.956C76.012 97.824 75.868 97.56 75.832 97.32H74.836C74.872 98.472 75.916 99.12 76.924 99.12C78.088 99.12 79.096 98.496 79.096 97.44C79.096 96.804 78.796 96.096 77.644 95.808L76.816 95.604C76.528 95.52 76.264 95.4 76.156 95.172C76.096 95.052 76.096 94.908 76.144 94.728C76.228 94.428 76.564 94.224 76.984 94.224C77.416 94.224 77.8 94.44 77.86 94.86H78.904C78.808 93.72 77.908 93.276 76.96 93.276C75.952 93.276 75.112 93.888 75.016 94.704C74.92 95.748 75.496 96.252 76.516 96.528L77.284 96.708ZM82.0295 93.396V91.284H80.9375V93.396H79.9295V94.32H80.9375V99H82.0295V94.32H83.2175V93.396H82.0295ZM85.547 96.96C85.547 95.472 86.003 94.32 87.083 94.32C87.311 94.32 87.611 94.368 87.911 94.512L88.079 93.492C87.923 93.384 87.503 93.276 87.107 93.276C86.375 93.276 85.835 93.66 85.547 94.656V93.396H84.455V99H85.547V96.96ZM93.4887 99H94.5687V93.396H93.4887V94.236C93.1047 93.6 92.3007 93.276 91.5207 93.276C89.9847 93.276 88.6767 94.404 88.6767 96.192C88.6767 97.968 89.9847 99.12 91.5207 99.12C92.3007 99.12 93.1167 98.76 93.4887 98.136V99ZM93.4767 96.18C93.4767 97.368 92.6127 98.052 91.6167 98.052C90.6087 98.052 89.7927 97.284 89.7927 96.18C89.7927 95.076 90.6087 94.344 91.6167 94.344C92.5287 94.344 93.4767 94.98 93.4767 96.18ZM97.9084 93.396V91.284H96.8164V93.396H95.8084V94.32H96.8164V99H97.9084V94.32H99.0964V93.396H97.9084ZM101.414 93.396H100.334V99H101.414V93.396ZM100.118 91.332C100.118 91.752 100.454 92.04 100.874 92.04C101.294 92.04 101.63 91.752 101.63 91.332C101.63 90.912 101.294 90.624 100.874 90.624C100.454 90.624 100.118 90.912 100.118 91.332ZM105.796 99.12C107.392 99.12 108.736 97.956 108.736 96.18C108.736 94.404 107.392 93.276 105.796 93.276C104.2 93.276 102.868 94.404 102.868 96.18C102.868 97.956 104.2 99.12 105.796 99.12ZM105.796 98.064C104.776 98.064 103.948 97.332 103.948 96.18C103.948 95.052 104.776 94.344 105.796 94.344C106.792 94.344 107.644 95.052 107.644 96.18C107.644 97.332 106.792 98.064 105.796 98.064ZM111.281 95.976C111.281 94.788 112.073 94.344 112.865 94.344C113.633 94.344 114.101 94.884 114.101 95.832V99H115.193V95.76C115.193 94.176 114.437 93.276 113.033 93.276C112.421 93.276 111.605 93.564 111.281 94.236V93.396H110.189V99H111.281V95.976ZM121.16 95.976C121.16 94.788 121.952 94.344 122.744 94.344C123.512 94.344 123.98 94.884 123.98 95.832V99H125.072V95.76C125.072 94.176 124.316 93.276 122.912 93.276C122.3 93.276 121.484 93.564 121.16 94.236V93.396H120.068V99H121.16V95.976ZM127.55 95.76C127.682 94.812 128.402 94.26 129.326 94.26C130.238 94.26 130.898 94.812 131.03 95.76H127.55ZM132.11 96.18C132.11 94.404 130.922 93.276 129.326 93.276C127.73 93.276 126.458 94.404 126.458 96.18C126.458 97.956 127.73 99.12 129.326 99.12C130.418 99.12 131.426 98.628 131.906 97.632C131.606 97.5 131.258 97.404 130.97 97.272C130.646 97.836 130.034 98.136 129.362 98.136C128.402 98.136 127.682 97.56 127.55 96.612H132.098C132.11 96.48 132.11 96.312 132.11 96.18ZM134.218 95.76C134.35 94.812 135.07 94.26 135.994 94.26C136.906 94.26 137.566 94.812 137.698 95.76H134.218ZM138.778 96.18C138.778 94.404 137.59 93.276 135.994 93.276C134.398 93.276 133.126 94.404 133.126 96.18C133.126 97.956 134.398 99.12 135.994 99.12C137.086 99.12 138.094 98.628 138.574 97.632C138.274 97.5 137.926 97.404 137.638 97.272C137.314 97.836 136.702 98.136 136.03 98.136C135.07 98.136 134.35 97.56 134.218 96.612H138.766C138.778 96.48 138.778 96.312 138.778 96.18ZM144.594 99H145.686V90.348H144.594V94.236C144.222 93.6 143.442 93.276 142.614 93.276C141.078 93.276 139.794 94.404 139.794 96.192C139.794 97.968 141.09 99.12 142.626 99.12C143.406 99.12 144.222 98.76 144.594 98.136V99ZM144.582 96.18C144.582 97.368 143.718 98.052 142.722 98.052C141.714 98.052 140.91 97.284 140.91 96.18C140.91 95.076 141.714 94.344 142.722 94.344C143.634 94.344 144.582 94.98 144.582 96.18ZM148.234 95.76C148.366 94.812 149.086 94.26 150.01 94.26C150.922 94.26 151.582 94.812 151.714 95.76H148.234ZM152.794 96.18C152.794 94.404 151.606 93.276 150.01 93.276C148.414 93.276 147.142 94.404 147.142 96.18C147.142 97.956 148.414 99.12 150.01 99.12C151.102 99.12 152.11 98.628 152.59 97.632C152.29 97.5 151.942 97.404 151.654 97.272C151.33 97.836 150.718 98.136 150.046 98.136C149.086 98.136 148.366 97.56 148.234 96.612H152.782C152.794 96.48 152.794 96.312 152.794 96.18ZM158.61 99H159.702V90.348H158.61V94.236C158.238 93.6 157.458 93.276 156.63 93.276C155.094 93.276 153.81 94.404 153.81 96.192C153.81 97.968 155.106 99.12 156.642 99.12C157.422 99.12 158.238 98.76 158.61 98.136V99ZM158.598 96.18C158.598 97.368 157.734 98.052 156.738 98.052C155.73 98.052 154.926 97.284 154.926 96.18C154.926 95.076 155.73 94.344 156.738 94.344C157.65 94.344 158.598 94.98 158.598 96.18ZM161.433 98.376C161.433 98.808 161.793 99.12 162.213 99.12C162.645 99.12 163.005 98.808 163.005 98.376C163.005 97.944 162.645 97.62 162.213 97.62C161.793 97.62 161.433 97.944 161.433 98.376Z" fill="#E3E0FF"/>
<g clip-path="url(#clip0_726_15537)">
<path d="M44.7834 136.552L43.1494 141.257L41.3707 136.552H38.8268L41.9705 144.122H44.3283L47.2446 136.552H44.7834Z" fill="white"/>
<path d="M56.3863 136.552H53.9044L52.2084 140.606L50.347 136.552H47.7203L50.9468 143.108L49.2094 147.038H51.6706L56.3863 136.552Z" fill="white"/>
<path d="M59.7058 138.827C59.9333 138.579 60.2435 138.455 60.6262 138.455C61.0398 138.455 61.3501 138.579 61.5569 138.817C61.7637 139.055 61.8775 139.375 61.8775 139.768V144.132H64.2249V139.375C64.2249 138.496 63.9871 137.762 63.5114 137.203C63.0357 136.635 62.3428 136.355 61.4328 136.355C61.0088 136.355 60.5951 136.449 60.1918 136.635C59.7885 136.821 59.4886 137.079 59.2921 137.421V136.552H57.0274V144.132H59.3749V139.789C59.3542 139.396 59.4679 139.075 59.7058 138.827Z" fill="white"/>
<path d="M72.7358 140.213C72.7358 138.993 72.3945 138.041 71.712 137.359C71.0295 136.676 70.0884 136.335 68.8992 136.335C67.865 136.335 66.9654 136.707 66.2104 137.452C65.4555 138.196 65.0729 139.158 65.0729 140.337C65.0729 141.568 65.4555 142.55 66.2415 143.284C67.0171 144.019 67.9581 144.38 69.075 144.38C69.9953 144.38 70.7709 144.153 71.3914 143.698C72.0119 143.243 72.4152 142.674 72.6117 141.971L70.6572 141.423C70.4193 142.085 69.9023 142.416 69.1163 142.416C68.651 142.416 68.258 142.281 67.9168 141.992C67.5755 141.712 67.3997 141.361 67.379 140.947H72.7151C72.7151 140.833 72.7358 140.596 72.7358 140.213ZM67.3997 139.427C67.4307 139.106 67.5755 138.807 67.8444 138.538C68.1132 138.269 68.4752 138.145 68.9199 138.145C69.4266 138.145 69.7989 138.269 70.0574 138.527C70.3056 138.786 70.4504 139.086 70.471 139.427H67.3997Z" fill="white"/>
<path d="M26.3035 148C25.0626 148 23.9147 147.328 23.2942 146.252L17.1929 135.653L18.9302 134.649L25.0315 145.249C25.2901 145.704 25.7761 145.983 26.2932 145.983C26.8309 145.983 27.317 145.694 27.5755 145.218L27.5858 145.198L36.3552 130.006H30.9881C29.8919 130.006 28.8785 130.596 28.3201 131.537L25.9726 135.663L24.2249 134.67L26.5931 130.523C27.5135 128.972 29.2094 128 31.0088 128H36.9447C37.8651 128 38.62 128.755 38.62 129.675C38.62 129.934 38.5579 130.203 38.4442 130.43L38.4131 130.482L29.3439 146.19C28.7337 147.307 27.5755 148 26.3035 148Z" fill="white"/>
<path d="M21.5879 138.176C18.7854 138.176 16.5 135.901 16.5 133.088C16.5 130.275 18.7854 128 21.5879 128C24.3904 128 26.6758 130.285 26.6758 133.088C26.6758 135.89 24.4007 138.176 21.5879 138.176ZM21.5879 130.006C19.8919 130.006 18.5062 131.392 18.5062 133.088C18.5062 134.784 19.8919 136.17 21.5879 136.17C23.2839 136.17 24.6696 134.784 24.6696 133.088C24.6696 131.392 23.2839 130.006 21.5879 130.006Z" fill="white"/>
<path d="M26.2725 131.092C25.7761 129.934 24.8661 129.003 23.7285 128.476L22.7254 130.234C23.863 130.678 24.6696 131.795 24.6696 133.088C24.6696 133.574 24.5558 134.029 24.3594 134.442L26.2725 131.092Z" fill="url(#paint0_linear_726_15537)"/>
</g>
<path fill-rule="evenodd" clip-rule="evenodd" d="M200.677 164C200.677 118.532 237.532 81.6768 283 81.6768V98.3236C246.726 98.3236 217.323 127.726 217.323 164H200.677Z" fill="#BFB5FF"/>
<defs>
<linearGradient id="paint0_linear_726_15537" x1="25.6792" y1="132.554" x2="22.4504" y2="130.293" gradientUnits="userSpaceOnUse">
<stop offset="0.12" stop-color="#A6A6A6"/>
<stop offset="0.167" stop-color="#B0B0B0"/>
<stop offset="0.4652" stop-color="#E9E9E9"/>
<stop offset="0.6087" stop-color="white"/>
</linearGradient>
<clipPath id="clip0_726_15537">
<rect width="56.2358" height="20" fill="white" transform="translate(16.5 128)"/>
</clipPath>
</defs>
</svg>
